<svg id="svg" version="1.1" xmlns="http://www.w3.org/2000/svg" xmlns:xlink="http://www.w3.org/1999/xlink" width="400" height="400" viewBox="0, 0, 400,400"><g id="svgg"><path id="path0" d="M190.484 23.145 C 185.991 23.423,185.617 23.632,185.606 25.867 L 185.600 27.135 174.300 27.267 C 161.846 27.414,161.406 27.496,160.982 29.758 L 160.729 31.106 155.864 31.275 C 149.785 31.487,148.420 32.078,148.406 34.500 L 148.400 35.600 144.390 35.600 C 140.008 35.600,139.600 35.858,139.600 38.626 C 139.600 39.565,139.495 39.601,136.700 39.640 C 133.052 39.690,131.836 40.024,131.687 41.018 C 131.323 43.431,131.273 43.487,129.205 43.762 C 127.600 43.974,127.200 44.178,127.200 44.783 C 127.200 46.454,124.932 47.999,122.469 48.006 C 119.615 48.014,119.192 48.292,118.917 50.342 C 118.721 51.805,118.572 52.001,117.647 52.005 C 115.184 52.018,114.800 52.347,114.800 54.447 C 114.800 56.391,114.794 56.400,113.476 56.400 C 110.754 56.400,110.634 56.723,110.464 64.507 C 110.266 73.561,110.770 75.746,113.207 76.402 C 114.760 76.820,114.800 76.876,114.800 78.601 C 114.800 81.193,114.835 81.200,127.494 81.200 C 139.767 81.200,139.600 81.234,139.600 78.720 C 139.600 77.233,139.633 77.200,141.100 77.184 C 143.284 77.160,146.078 75.659,146.800 74.123 C 147.354 72.943,147.567 72.837,149.600 72.723 L 151.800 72.600 151.920 70.738 L 152.041 68.876 155.835 68.738 C 160.071 68.584,160.384 68.389,160.394 65.900 L 160.400 64.400 165.300 64.395 C 171.690 64.387,171.908 64.319,172.454 62.152 L 172.895 60.400 180.147 60.395 C 189.155 60.388,189.091 60.403,189.427 58.158 L 189.691 56.400 199.993 56.400 L 210.295 56.400 210.514 58.033 C 210.817 60.296,210.402 60.187,219.198 60.323 L 227.131 60.446 227.480 61.918 C 227.984 64.053,228.960 64.387,234.700 64.394 L 239.600 64.400 239.600 66.186 C 239.600 68.481,240.183 68.800,244.372 68.800 L 247.597 68.800 249.525 70.800 C 251.371 72.715,251.545 72.800,253.626 72.807 C 258.058 72.821,263.221 74.433,264.946 76.340 C 265.357 76.794,266.857 77.553,268.279 78.026 C 270.279 78.692,271.035 79.171,271.619 80.143 C 272.033 80.835,273.054 81.760,273.886 82.200 C 274.757 82.660,275.694 83.589,276.092 84.386 C 276.483 85.169,277.352 86.039,278.092 86.386 C 278.948 86.788,279.671 87.583,280.183 88.686 C 280.663 89.719,281.389 90.547,282.057 90.824 C 282.734 91.104,283.461 91.943,283.975 93.035 C 284.430 94.004,285.367 95.292,286.056 95.898 C 287.278 96.971,289.173 100.395,289.212 101.600 C 289.222 101.930,289.802 102.560,290.500 103.000 C 291.484 103.620,291.984 104.429,292.728 106.600 C 293.273 108.189,294.252 110.024,294.991 110.843 C 295.993 111.952,296.454 113.014,296.986 115.443 C 297.480 117.701,297.991 118.942,298.781 119.800 C 300.227 121.373,300.353 121.764,301.208 127.339 C 301.752 130.889,302.141 132.299,302.759 132.956 C 304.760 135.087,305.200 139.561,305.200 157.800 C 305.200 176.235,304.825 179.937,302.629 183.198 C 301.981 184.159,301.537 185.669,301.218 188.000 C 300.539 192.946,300.144 194.152,298.592 196.009 C 297.827 196.926,297.200 198.052,297.200 198.512 C 297.200 200.564,295.853 204.085,294.759 204.894 C 293.955 205.488,293.402 206.510,292.785 208.538 C 292.161 210.594,291.560 211.695,290.565 212.607 C 289.814 213.294,288.917 214.687,288.571 215.703 C 288.188 216.828,287.445 217.928,286.670 218.520 C 283.960 220.586,282.917 227.757,284.558 233.040 L 285.315 235.480 287.975 236.336 C 295.191 238.660,300.700 237.011,303.343 231.735 C 303.912 230.599,304.906 229.294,305.552 228.834 C 306.260 228.330,306.974 227.269,307.352 226.160 C 307.696 225.148,308.590 223.644,309.338 222.816 C 310.136 221.933,311.065 220.206,311.587 218.639 C 312.197 216.805,312.831 215.706,313.608 215.131 C 314.490 214.478,314.891 213.667,315.425 211.447 C 316.225 208.122,316.534 207.441,318.024 205.726 C 318.909 204.707,319.271 203.647,319.834 200.430 C 320.266 197.960,320.894 195.828,321.461 194.904 C 323.254 191.980,323.597 190.794,323.999 186.121 C 324.518 180.092,325.441 175.088,326.457 172.800 C 328.444 168.324,328.263 146.919,326.193 141.746 C 325.224 139.323,324.026 132.466,324.008 129.233 C 323.994 126.728,323.133 122.845,322.406 122.007 C 320.560 119.879,320.483 114.927,322.242 111.520 C 322.633 110.764,322.786 109.083,322.753 105.920 C 322.683 99.267,322.499 98.760,319.958 98.231 C 318.968 98.025,318.903 97.853,318.644 94.755 C 318.302 90.654,318.001 90.082,316.099 89.924 L 314.600 89.800 314.479 87.700 L 314.358 85.600 312.419 85.600 L 310.480 85.600 310.340 81.968 C 310.186 77.980,309.733 77.200,307.570 77.200 C 306.426 77.200,306.016 76.444,306.005 74.314 C 306.000 73.315,305.841 73.206,304.020 72.965 L 302.040 72.702 301.920 70.851 L 301.800 69.000 299.921 68.879 L 298.042 68.758 297.921 66.879 L 297.800 65.000 295.720 64.880 L 293.640 64.760 293.520 62.680 L 293.400 60.600 291.521 60.479 L 289.642 60.358 289.521 58.479 L 289.400 56.600 287.300 56.479 L 285.200 56.358 285.200 54.422 C 285.200 52.294,284.887 52.000,282.620 52.000 C 281.381 52.000,281.293 51.905,281.083 50.342 C 280.816 48.352,280.365 48.014,277.964 48.006 C 276.408 48.001,276.061 47.851,275.682 47.021 C 275.437 46.483,274.733 45.722,274.118 45.330 C 273.503 44.939,272.906 44.490,272.792 44.334 C 272.677 44.177,271.687 43.900,270.592 43.717 C 268.645 43.392,268.595 43.349,268.400 41.809 C 268.162 39.934,267.615 39.700,263.345 39.640 L 260.491 39.600 260.226 37.835 C 259.905 35.691,259.699 35.600,255.167 35.600 C 251.673 35.600,251.600 35.580,251.600 34.644 C 251.600 32.265,248.876 31.206,242.723 31.191 L 239.000 31.183 238.400 29.918 C 238.070 29.222,237.530 28.534,237.200 28.388 C 236.870 28.243,236.197 27.916,235.705 27.662 C 235.098 27.348,231.554 27.200,224.657 27.200 L 214.502 27.200 214.248 25.613 C 214.102 24.696,213.693 23.864,213.281 23.643 C 212.382 23.162,195.980 22.804,190.484 23.145 M151.700 33.930 C 151.425 34.104,150.917 34.597,150.570 35.024 C 150.224 35.451,150.072 35.530,150.233 35.200 C 150.731 34.176,151.279 33.600,151.749 33.606 C 152.044 33.610,152.027 33.722,151.700 33.930 M86.431 85.972 C 86.119 86.170,85.759 87.109,85.631 88.059 C 85.413 89.691,85.316 89.801,83.896 90.031 C 81.771 90.376,81.286 91.550,81.224 96.500 C 81.201 98.316,81.150 98.400,80.062 98.400 C 77.911 98.400,77.490 99.431,77.281 105.204 L 77.094 110.400 75.647 110.406 C 73.067 110.417,73.022 110.527,72.860 117.183 L 72.713 123.200 71.170 123.200 C 68.703 123.200,68.798 121.840,68.817 156.674 C 68.837 193.284,68.830 193.200,71.815 193.200 C 72.648 193.200,72.686 193.399,72.914 199.029 C 73.178 205.536,73.359 206.000,75.635 206.000 L 77.172 206.000 77.286 210.100 L 77.400 214.200 79.300 214.322 L 81.200 214.444 81.200 217.989 C 81.200 222.687,81.258 222.800,83.643 222.800 L 85.600 222.800 85.600 226.520 C 85.600 230.741,85.843 231.200,88.080 231.200 L 89.600 231.200 89.600 233.200 L 89.600 235.200 91.563 235.200 L 93.525 235.200 93.811 239.012 C 94.124 243.185,94.392 243.600,96.774 243.600 C 97.903 243.600,98.000 243.708,98.000 244.967 C 98.000 246.900,98.356 247.599,99.343 247.605 C 101.141 247.617,102.000 248.075,102.000 249.021 C 102.000 251.235,102.660 252.000,104.568 252.000 L 106.356 252.000 106.478 253.900 L 106.600 255.800 108.398 256.000 C 110.182 256.198,110.199 256.215,110.535 258.063 C 110.892 260.030,111.371 260.383,113.700 260.395 C 114.638 260.399,114.800 260.566,114.800 261.524 C 114.800 263.704,115.580 264.185,119.368 264.341 L 122.800 264.482 122.800 265.867 C 122.800 268.155,123.375 268.800,125.414 268.800 L 127.200 268.800 127.200 283.010 L 127.200 297.220 128.226 297.610 C 128.790 297.824,129.690 298.000,130.226 298.000 C 131.181 298.000,131.200 298.066,131.200 301.367 C 131.200 305.453,131.381 305.998,132.743 306.005 C 135.122 306.018,135.552 306.359,135.680 308.341 L 135.800 310.200 137.679 310.321 L 139.558 310.442 139.679 312.321 L 139.800 314.200 141.900 314.321 C 143.995 314.442,144.000 314.445,144.000 315.792 C 144.000 317.514,144.892 318.400,146.624 318.400 L 147.991 318.400 148.096 335.100 L 148.200 351.800 150.100 351.922 L 152.000 352.044 152.017 353.722 C 152.063 358.110,153.033 360.000,155.241 360.000 C 156.197 360.000,156.362 360.193,156.596 361.577 C 156.967 363.773,157.581 364.121,161.429 364.323 L 164.800 364.500 164.800 366.404 C 164.800 368.973,162.088 368.789,200.000 368.789 C 237.983 368.789,235.200 368.982,235.200 366.353 L 235.200 364.400 237.500 364.398 C 241.536 364.394,242.725 363.852,243.246 361.782 C 243.624 360.280,243.849 360.000,244.674 360.000 C 246.909 360.000,248.000 357.895,248.000 353.580 C 248.000 352.017,248.016 352.000,249.520 352.000 C 252.104 352.000,252.000 352.805,252.000 332.720 L 252.000 314.400 255.500 314.394 C 259.651 314.387,259.993 314.220,260.283 312.058 C 260.486 310.541,260.605 310.400,261.679 310.400 C 263.680 310.400,264.400 309.761,264.400 307.986 C 264.400 307.114,264.265 306.434,264.100 306.476 C 263.292 306.682,261.147 305.849,260.797 305.194 C 259.845 303.416,261.665 296.279,263.600 294.200 C 265.404 292.260,265.602 290.205,265.577 273.680 C 265.551 256.765,265.474 255.894,263.916 254.874 C 263.319 254.484,262.419 253.555,261.916 252.810 C 259.802 249.683,248.622 249.963,247.318 253.175 C 246.287 255.715,245.176 258.173,244.505 259.400 C 243.953 260.409,243.806 262.637,243.582 273.400 C 243.312 286.371,243.146 287.794,241.619 290.284 C 240.041 292.856,240.353 292.836,204.158 292.711 L 171.800 292.600 169.778 291.533 C 168.666 290.946,166.722 290.196,165.458 289.866 C 162.458 289.082,161.371 288.331,160.749 286.610 C 160.469 285.835,160.030 285.200,159.774 285.200 C 158.806 285.200,157.282 283.564,157.038 282.262 C 156.898 281.518,156.409 280.571,155.951 280.156 C 154.002 278.392,153.861 277.590,153.557 266.600 C 153.206 253.908,153.143 253.665,149.581 251.313 C 148.177 250.386,146.532 249.096,145.926 248.448 C 145.321 247.800,144.145 247.052,143.313 246.786 C 141.708 246.272,140.000 244.951,140.000 244.224 C 140.000 243.984,139.134 243.480,138.076 243.104 C 136.927 242.696,135.352 241.642,134.165 240.486 C 133.073 239.422,131.613 238.216,130.921 237.808 C 130.229 237.399,129.430 236.630,129.146 236.099 C 128.862 235.568,127.850 234.677,126.897 234.118 C 125.722 233.430,124.862 232.507,124.225 231.252 C 123.709 230.233,122.888 229.040,122.402 228.600 C 121.192 227.508,119.737 224.893,119.397 223.200 C 119.241 222.430,118.493 220.853,117.733 219.695 C 115.392 216.129,114.882 214.546,114.615 210.000 C 114.204 202.990,113.961 202.400,111.486 202.400 C 110.564 202.400,110.507 202.250,110.272 199.197 C 109.972 195.309,109.586 194.509,107.854 194.184 L 106.517 193.933 106.274 189.954 C 106.110 187.249,105.843 185.786,105.442 185.385 C 105.118 185.061,104.742 184.448,104.607 184.023 C 104.472 183.598,103.838 183.018,103.197 182.734 L 102.031 182.219 101.916 169.509 C 101.852 162.519,101.852 151.040,101.916 144.000 L 102.032 131.200 103.516 131.194 C 105.956 131.184,105.994 131.095,106.271 124.671 L 106.525 118.800 107.982 118.800 C 110.150 118.800,110.400 118.318,110.400 114.142 L 110.400 110.444 112.300 110.322 L 114.200 110.200 114.298 101.200 C 114.410 90.909,114.276 90.275,111.939 90.079 C 110.583 89.965,110.479 89.857,110.230 88.299 C 109.781 85.489,110.282 85.599,98.051 85.606 C 91.973 85.609,86.744 85.774,86.431 85.972 M162.295 117.598 C 160.212 117.790,159.842 117.973,158.442 119.505 C 157.590 120.437,156.713 121.200,156.495 121.200 C 155.172 121.200,154.504 129.753,155.616 132.439 C 155.912 133.154,161.870 139.454,169.271 146.877 L 182.400 160.046 182.400 162.534 C 182.400 164.391,182.222 165.186,181.700 165.669 C 173.854 172.919,155.637 192.013,155.435 193.200 C 155.137 194.947,155.002 198.016,155.114 200.491 C 155.233 203.114,158.745 206.783,161.585 207.252 C 168.903 208.461,169.278 208.252,181.582 196.088 C 187.306 190.430,192.531 185.294,193.194 184.675 C 193.858 184.056,194.400 183.398,194.400 183.212 C 194.400 182.184,198.460 180.000,200.371 180.000 L 202.340 180.000 215.573 193.185 C 229.982 207.542,230.093 207.627,234.514 207.576 C 242.522 207.485,245.846 203.451,244.808 195.084 C 244.363 191.495,245.109 192.400,230.452 177.677 L 217.600 164.767 217.600 162.785 C 217.600 160.675,219.635 157.111,221.124 156.613 C 221.496 156.488,222.315 155.689,222.944 154.837 C 223.573 153.985,224.761 152.781,225.583 152.163 C 226.406 151.544,227.367 150.534,227.721 149.919 C 228.074 149.303,228.776 148.609,229.281 148.376 C 229.787 148.143,230.740 147.227,231.400 146.339 C 232.060 145.452,232.952 144.537,233.382 144.305 C 233.812 144.074,234.532 143.449,234.982 142.918 C 235.432 142.386,237.621 140.077,239.847 137.786 C 242.073 135.496,244.122 133.070,244.402 132.396 C 245.480 129.792,244.817 121.200,243.537 121.200 C 243.335 121.200,242.383 120.390,241.421 119.400 C 239.535 117.460,239.110 117.363,233.400 117.569 C 229.403 117.713,230.842 116.540,213.760 133.584 L 202.520 144.800 200.048 144.800 L 197.577 144.800 186.288 133.591 C 171.107 118.517,171.169 118.574,169.800 118.086 C 168.242 117.531,165.189 117.332,162.295 117.598 M313.438 282.590 C 313.302 283.134,312.697 283.847,312.095 284.174 C 311.493 284.501,311.233 284.775,311.518 284.784 C 312.230 284.806,314.000 282.976,314.000 282.218 C 314.000 281.288,313.718 281.475,313.438 282.590 M222.800 324.965 L 222.800 331.130 221.195 331.401 C 219.421 331.701,218.800 332.472,218.800 334.374 C 218.800 335.527,218.709 335.600,217.280 335.600 C 215.364 335.600,214.800 336.164,214.800 338.080 L 214.800 339.600 200.000 339.600 L 185.200 339.600 185.200 338.080 C 185.200 336.164,184.636 335.600,182.720 335.600 C 181.291 335.600,181.200 335.527,181.200 334.374 C 181.200 332.473,180.597 331.734,178.815 331.449 L 177.200 331.191 177.200 324.995 L 177.200 318.800 200.000 318.800 L 222.800 318.800 222.800 324.965 " stroke="none" fill="#1f1f40" fill-rule="evenodd"></path><path id="path1" d="M256.800 73.412 C 256.800 73.504,258.269 74.312,260.064 75.208 C 261.859 76.104,263.794 77.165,264.364 77.567 C 264.934 77.969,266.342 78.772,267.493 79.352 C 268.644 79.932,269.892 80.873,270.266 81.444 C 270.640 82.015,271.632 82.915,272.470 83.444 C 273.308 83.973,274.420 85.081,274.940 85.905 C 275.460 86.729,276.322 87.637,276.854 87.922 C 277.386 88.206,278.317 89.224,278.923 90.182 C 279.530 91.141,280.454 92.206,280.978 92.549 C 281.502 92.892,282.334 93.981,282.827 94.969 C 283.321 95.957,284.442 97.628,285.318 98.683 C 286.194 99.737,287.173 101.230,287.492 102.000 C 287.811 102.770,288.611 103.964,289.269 104.652 C 289.927 105.341,290.908 107.125,291.449 108.615 C 291.990 110.106,292.958 111.989,293.600 112.800 C 294.292 113.674,295.117 115.547,295.624 117.394 C 296.095 119.110,297.094 121.703,297.846 123.157 C 298.818 125.038,299.438 127.069,299.995 130.200 C 300.426 132.620,301.214 136.055,301.748 137.833 C 304.521 147.078,304.715 167.612,302.112 176.383 C 301.554 178.262,300.608 182.230,300.009 185.200 C 299.248 188.974,298.555 191.263,297.706 192.800 C 297.039 194.010,296.095 196.350,295.610 198.000 C 295.124 199.650,294.277 201.595,293.727 202.322 C 293.177 203.048,292.279 204.758,291.732 206.122 C 291.185 207.485,290.199 209.280,289.542 210.110 C 288.884 210.941,287.979 212.451,287.529 213.466 C 287.080 214.482,286.038 216.052,285.214 216.956 C 282.917 219.476,280.325 226.489,280.841 228.786 C 281.317 230.904,283.702 236.055,284.522 236.735 C 285.927 237.901,290.949 240.054,292.705 240.242 C 296.319 240.630,302.548 237.421,304.339 234.247 C 305.019 233.042,306.121 231.434,306.789 230.674 C 307.456 229.913,308.272 228.648,308.600 227.861 C 308.929 227.074,309.735 225.819,310.390 225.072 C 311.046 224.326,312.128 222.498,312.796 221.010 C 313.463 219.522,314.441 217.792,314.967 217.166 C 315.494 216.540,316.395 214.626,316.970 212.914 C 317.545 211.201,318.539 209.027,319.180 208.081 C 319.843 207.102,320.624 205.122,320.994 203.481 C 321.351 201.897,322.260 199.340,323.015 197.800 C 324.041 195.705,324.593 193.742,325.207 190.000 C 325.659 187.250,326.468 183.650,327.004 182.000 C 328.792 176.500,328.999 173.988,329.000 157.800 C 329.000 141.360,328.906 140.322,326.707 132.600 C 325.216 127.365,324.889 117.689,326.135 115.698 C 326.691 114.811,326.662 111.678,326.100 111.894 C 325.825 111.999,325.600 111.856,325.600 111.576 C 325.600 111.296,325.482 111.185,325.337 111.330 C 325.192 111.475,324.818 111.381,324.506 111.122 C 324.068 110.758,323.866 110.769,323.618 111.171 C 323.358 111.592,323.256 111.587,323.080 111.145 C 322.961 110.845,322.849 112.116,322.832 113.969 C 322.807 116.548,322.952 117.505,323.449 118.054 C 323.903 118.555,324.262 120.337,324.640 123.959 C 325.150 128.841,326.022 133.411,327.385 138.345 C 329.645 146.521,329.173 172.118,326.609 180.400 C 326.099 182.050,325.475 184.840,325.223 186.600 C 324.430 192.138,323.938 194.127,322.723 196.700 C 322.074 198.074,321.104 200.836,320.569 202.838 C 320.004 204.947,319.104 207.175,318.426 208.138 C 317.784 209.052,316.885 211.034,316.429 212.543 C 315.973 214.051,315.079 215.943,314.442 216.747 C 313.805 217.551,312.811 219.372,312.234 220.794 C 311.656 222.216,310.663 223.924,310.028 224.590 C 309.393 225.255,308.612 226.430,308.294 227.200 C 307.976 227.970,307.046 229.399,306.226 230.376 C 305.407 231.352,304.299 233.015,303.764 234.071 C 302.107 237.341,295.326 240.229,291.639 239.235 C 285.479 237.573,283.503 235.602,282.003 229.623 L 281.356 227.047 282.606 223.423 C 284.103 219.084,284.405 218.496,285.811 217.200 C 286.408 216.650,287.219 215.458,287.612 214.550 C 288.006 213.643,288.959 212.074,289.730 211.064 C 290.501 210.054,291.505 208.230,291.962 207.011 C 292.418 205.791,293.403 203.904,294.151 202.817 C 294.899 201.730,295.735 199.886,296.009 198.720 C 296.283 197.554,297.200 195.250,298.047 193.600 C 299.167 191.418,299.760 189.564,300.222 186.800 C 300.570 184.710,301.381 181.456,302.022 179.569 C 305.189 170.254,305.173 145.654,301.994 135.800 C 301.355 133.820,300.557 130.584,300.220 128.608 C 299.792 126.093,299.127 124.054,298.004 121.808 C 297.122 120.044,296.400 118.448,296.400 118.262 C 296.400 117.095,294.983 113.404,294.160 112.425 C 293.621 111.784,292.636 109.941,291.971 108.330 C 291.307 106.718,290.248 104.860,289.618 104.200 C 288.988 103.540,288.214 102.370,287.897 101.600 C 287.581 100.830,286.395 98.975,285.261 97.479 C 284.127 95.982,283.200 94.571,283.200 94.343 C 283.200 94.115,282.435 93.139,281.500 92.174 C 280.565 91.209,278.810 89.305,277.600 87.945 C 276.390 86.584,274.798 84.914,274.063 84.235 C 273.328 83.556,271.883 82.170,270.852 81.155 C 269.822 80.141,268.546 79.173,268.016 79.005 C 267.486 78.837,265.769 77.940,264.200 77.013 C 261.295 75.295,256.800 73.108,256.800 73.412 M161.837 115.718 C 155.321 117.491,152.082 122.464,153.007 129.276 C 153.691 134.318,153.799 134.460,167.205 147.896 L 179.600 160.319 179.600 162.573 L 179.600 164.827 167.195 177.211 C 152.951 191.432,153.022 191.330,153.032 197.600 C 153.046 207.280,160.478 211.858,170.737 208.507 C 172.700 207.866,173.893 206.795,185.436 195.305 L 197.998 182.800 200.032 182.800 L 202.066 182.800 214.579 195.300 C 228.145 208.852,227.546 208.395,233.336 209.612 C 244.791 212.022,252.014 196.016,243.270 187.600 C 242.242 186.610,241.106 185.440,240.748 185.000 C 240.389 184.560,239.489 183.647,238.748 182.970 C 238.006 182.294,237.028 181.304,236.572 180.770 C 236.117 180.237,235.217 179.343,234.572 178.784 C 233.928 178.225,233.016 177.325,232.547 176.784 C 232.078 176.243,231.088 175.247,230.347 174.570 C 229.606 173.894,228.614 172.904,228.143 172.370 C 227.672 171.837,226.772 170.946,226.143 170.391 C 225.514 169.836,224.612 168.936,224.138 168.391 C 223.665 167.846,222.630 166.810,221.838 166.090 C 220.521 164.890,220.400 164.595,220.400 162.584 L 220.400 160.388 232.781 147.968 C 243.617 137.098,245.259 135.288,245.934 133.474 C 250.540 121.094,241.263 111.907,228.907 116.612 C 227.315 117.218,224.965 119.378,214.696 129.669 L 202.392 142.000 199.940 142.000 C 197.618 142.000,197.422 141.923,196.244 140.552 C 195.560 139.756,194.663 138.811,194.250 138.452 C 193.838 138.094,188.888 133.201,183.250 127.580 C 172.324 116.685,172.063 116.490,167.051 115.466 C 164.890 115.025,164.273 115.055,161.837 115.718 M171.023 117.210 C 172.429 117.812,187.605 132.231,194.400 139.419 C 197.699 142.909,197.517 142.800,200.042 142.800 L 202.426 142.800 214.825 130.374 C 227.912 117.260,228.256 116.988,232.771 116.209 C 238.269 115.260,244.920 118.466,245.768 122.476 C 246.561 126.220,246.654 127.367,246.335 129.467 C 246.140 130.750,245.702 132.520,245.362 133.400 C 244.656 135.224,244.941 134.917,230.434 149.463 L 219.600 160.326 219.600 162.563 C 219.600 164.656,219.703 164.896,221.200 166.300 C 222.080 167.125,223.115 168.127,223.500 168.527 C 223.885 168.927,224.830 169.866,225.600 170.613 C 227.342 172.304,227.696 172.658,229.387 174.400 C 230.134 175.170,231.073 176.115,231.473 176.500 C 231.873 176.885,232.920 177.920,233.800 178.800 C 234.680 179.680,235.628 180.625,235.907 180.900 C 237.063 182.041,239.441 184.430,240.000 185.011 C 240.330 185.354,241.513 186.572,242.628 187.718 C 246.618 191.814,247.702 198.856,245.102 203.800 C 241.838 210.009,231.122 210.870,225.600 205.367 C 224.610 204.381,219.435 199.245,214.100 193.954 C 208.765 188.663,204.400 184.183,204.400 183.999 C 204.400 182.991,201.700 182.026,199.570 182.274 L 197.400 182.526 186.800 193.053 C 180.970 198.844,175.390 204.386,174.400 205.371 C 165.814 213.909,152.037 207.475,153.649 195.682 C 154.302 190.912,154.428 190.749,167.879 177.343 L 180.400 164.864 180.400 162.513 C 180.400 160.329,180.296 160.063,178.947 158.781 C 178.148 158.021,177.023 156.886,176.447 156.257 C 175.871 155.628,174.966 154.728,174.435 154.257 C 173.904 153.786,173.004 152.882,172.435 152.248 C 171.866 151.614,170.884 150.624,170.254 150.048 C 169.623 149.472,168.633 148.472,168.054 147.828 C 167.474 147.183,166.566 146.283,166.035 145.828 C 165.504 145.372,164.604 144.482,164.035 143.848 C 163.466 143.214,162.486 142.224,161.857 141.648 C 161.228 141.072,160.328 140.165,159.857 139.633 C 159.386 139.101,158.165 137.875,157.146 136.910 C 155.124 134.995,154.221 133.063,153.669 129.467 C 153.346 127.362,153.437 126.231,154.232 122.476 C 155.333 117.271,164.477 114.404,171.023 117.210 M115.600 214.132 C 115.600 214.264,116.140 215.224,116.800 216.264 C 117.982 218.128,118.438 218.380,117.540 216.674 C 116.979 215.607,115.600 213.801,115.600 214.132 M119.835 222.100 C 120.451 223.846,122.002 226.392,122.453 226.397 C 122.592 226.399,123.462 227.561,124.386 228.979 C 125.311 230.398,126.907 232.232,127.933 233.055 C 128.960 233.878,130.630 235.282,131.644 236.176 C 136.186 240.177,137.933 241.550,139.497 242.348 C 140.419 242.818,141.353 243.538,141.572 243.948 C 141.791 244.357,142.922 245.148,144.085 245.704 C 145.248 246.261,147.312 247.590,148.672 248.658 C 150.031 249.726,151.588 250.910,152.131 251.288 C 154.204 252.732,154.841 255.956,155.195 266.800 L 155.514 276.600 157.007 280.000 C 157.828 281.870,158.767 283.670,159.094 284.000 C 159.622 284.532,159.639 284.509,159.245 283.800 C 156.813 279.421,156.319 276.924,155.999 267.400 C 155.608 255.774,154.874 252.583,152.125 250.553 C 151.286 249.934,149.902 248.815,149.048 248.068 C 148.194 247.320,146.563 246.281,145.422 245.759 C 144.281 245.236,142.910 244.340,142.374 243.766 C 141.838 243.192,140.683 242.355,139.807 241.905 C 138.317 241.142,136.443 239.631,131.448 235.171 C 130.322 234.165,128.815 232.938,128.101 232.444 C 127.386 231.951,126.228 230.704,125.526 229.673 C 124.824 228.643,123.573 226.990,122.746 226.000 C 121.920 225.010,120.865 223.345,120.403 222.300 C 119.359 219.940,119.033 219.825,119.835 222.100 M253.400 248.281 C 249.869 248.754,246.816 250.416,245.287 252.699 C 241.876 257.789,242.224 255.816,241.988 271.400 C 241.654 293.403,245.026 291.573,204.800 291.575 C 180.852 291.575,175.240 291.417,170.927 290.621 C 170.304 290.506,170.605 290.716,171.600 291.092 C 173.225 291.705,176.394 291.784,204.141 291.904 C 238.523 292.053,237.556 292.122,240.008 289.330 C 242.145 286.896,242.169 286.727,242.397 272.200 C 242.632 257.170,242.450 258.260,245.545 253.400 C 249.186 247.685,259.501 247.387,264.034 252.866 C 266.744 256.143,266.600 254.999,266.600 273.200 C 266.600 291.260,266.441 292.949,264.445 296.062 C 262.068 299.770,261.361 305.367,263.200 305.920 C 263.684 306.065,263.704 305.998,263.300 305.570 C 262.138 304.338,263.102 299.368,265.092 296.343 C 267.236 293.081,268.559 263.113,266.852 256.466 C 266.007 253.176,262.768 250.099,258.887 248.900 C 255.992 248.006,255.699 247.973,253.400 248.281 M162.000 287.400 C 162.746 288.170,163.447 288.800,163.557 288.800 C 163.667 288.800,163.146 288.170,162.400 287.400 C 161.654 286.630,160.953 286.000,160.843 286.000 C 160.733 286.000,161.254 286.630,162.000 287.400 " stroke="none" fill="#5c648c" fill-rule="evenodd"></path><path id="path2" d="M150.911 34.100 C 150.230 34.981,149.917 35.830,150.570 35.024 C 150.917 34.597,151.425 34.104,151.700 33.930 C 152.027 33.722,152.044 33.610,151.749 33.606 C 151.501 33.603,151.124 33.825,150.911 34.100 M248.000 69.467 C 248.000 70.205,249.339 71.935,250.222 72.337 C 251.718 73.019,251.652 72.843,249.701 70.947 C 248.765 70.038,248.000 69.372,248.000 69.467 M260.000 74.714 C 261.650 75.565,263.918 76.812,265.039 77.485 C 266.161 78.157,267.506 78.843,268.029 79.009 C 268.551 79.175,269.822 80.141,270.852 81.155 C 271.883 82.170,273.328 83.556,274.063 84.235 C 274.798 84.914,276.390 86.584,277.600 87.945 C 278.810 89.305,280.565 91.209,281.500 92.174 C 282.435 93.139,283.200 94.115,283.200 94.343 C 283.200 94.571,284.127 95.982,285.261 97.479 C 286.395 98.975,287.581 100.830,287.897 101.600 C 288.214 102.370,288.988 103.540,289.618 104.200 C 290.248 104.860,291.307 106.718,291.971 108.330 C 292.636 109.941,293.621 111.784,294.160 112.425 C 294.983 113.404,296.400 117.095,296.400 118.262 C 296.400 118.448,297.122 120.044,298.004 121.808 C 299.127 124.054,299.792 126.093,300.220 128.608 C 300.557 130.584,301.355 133.820,301.994 135.800 C 305.173 145.654,305.189 170.254,302.022 179.569 C 301.381 181.456,300.570 184.710,300.222 186.800 C 299.760 189.564,299.167 191.418,298.047 193.600 C 297.200 195.250,296.283 197.554,296.009 198.720 C 295.735 199.886,294.899 201.730,294.151 202.817 C 293.403 203.904,292.418 205.791,291.962 207.011 C 291.505 208.230,290.501 210.054,289.730 211.064 C 288.959 212.074,288.006 213.643,287.612 214.550 C 287.219 215.458,286.408 216.650,285.811 217.200 C 284.405 218.496,284.103 219.084,282.606 223.423 L 281.356 227.047 282.003 229.623 C 283.503 235.602,285.479 237.573,291.639 239.235 C 295.326 240.229,302.107 237.341,303.764 234.071 C 304.299 233.015,305.407 231.352,306.226 230.376 C 307.046 229.399,307.976 227.970,308.294 227.200 C 308.612 226.430,309.393 225.255,310.028 224.590 C 310.663 223.924,311.656 222.216,312.234 220.794 C 312.811 219.372,313.805 217.551,314.442 216.747 C 315.079 215.943,315.973 214.051,316.429 212.543 C 316.885 211.034,317.784 209.052,318.426 208.138 C 319.104 207.175,320.004 204.947,320.569 202.838 C 321.104 200.836,322.074 198.074,322.723 196.700 C 323.938 194.127,324.430 192.138,325.223 186.600 C 325.475 184.840,326.099 182.050,326.609 180.400 C 329.173 172.118,329.645 146.521,327.385 138.345 C 326.022 133.411,325.150 128.841,324.640 123.959 C 324.262 120.337,323.903 118.555,323.449 118.054 C 322.962 117.516,322.796 116.498,322.784 113.969 C 322.764 109.833,322.016 110.614,321.172 115.649 C 320.623 118.927,320.879 120.246,322.406 122.007 C 323.133 122.845,323.994 126.728,324.008 129.233 C 324.026 132.466,325.224 139.323,326.193 141.746 C 328.263 146.919,328.444 168.324,326.457 172.800 C 325.441 175.088,324.518 180.092,323.999 186.121 C 323.597 190.794,323.254 191.980,321.461 194.904 C 320.894 195.828,320.266 197.960,319.834 200.430 C 319.271 203.647,318.909 204.707,318.024 205.726 C 316.534 207.441,316.225 208.122,315.425 211.447 C 314.891 213.667,314.490 214.478,313.608 215.131 C 312.831 215.706,312.197 216.805,311.587 218.639 C 311.065 220.206,310.136 221.933,309.338 222.816 C 308.590 223.644,307.696 225.148,307.352 226.160 C 306.974 227.269,306.260 228.330,305.552 228.834 C 304.906 229.294,303.912 230.599,303.343 231.735 C 300.700 237.011,295.191 238.660,287.975 236.336 L 285.315 235.480 284.558 233.040 C 282.917 227.757,283.960 220.586,286.670 218.520 C 287.445 217.928,288.188 216.828,288.571 215.703 C 288.917 214.687,289.814 213.294,290.565 212.607 C 291.560 211.695,292.161 210.594,292.785 208.538 C 293.402 206.510,293.955 205.488,294.759 204.894 C 295.853 204.085,297.200 200.564,297.200 198.512 C 297.200 198.052,297.827 196.926,298.592 196.009 C 300.144 194.152,300.539 192.946,301.218 188.000 C 301.537 185.669,301.981 184.159,302.629 183.198 C 304.825 179.937,305.200 176.235,305.200 157.800 C 305.200 139.561,304.760 135.087,302.759 132.956 C 302.141 132.299,301.752 130.889,301.208 127.339 C 300.353 121.764,300.227 121.373,298.781 119.800 C 297.991 118.942,297.480 117.701,296.986 115.443 C 296.454 113.014,295.993 111.952,294.991 110.843 C 294.252 110.024,293.273 108.189,292.728 106.600 C 291.984 104.429,291.484 103.620,290.500 103.000 C 289.802 102.560,289.222 101.930,289.212 101.600 C 289.173 100.395,287.278 96.971,286.056 95.898 C 285.367 95.292,284.430 94.004,283.975 93.035 C 283.461 91.943,282.734 91.104,282.057 90.824 C 281.389 90.547,280.663 89.719,280.183 88.686 C 279.671 87.583,278.948 86.788,278.092 86.386 C 277.352 86.039,276.483 85.169,276.092 84.386 C 275.694 83.589,274.757 82.660,273.886 82.200 C 273.054 81.760,272.033 80.835,271.619 80.143 C 271.036 79.172,270.280 78.692,268.289 78.030 C 266.873 77.558,265.310 76.743,264.818 76.219 C 263.752 75.084,260.829 73.768,258.600 73.418 C 257.135 73.188,257.252 73.297,260.000 74.714 M162.400 116.229 C 158.713 116.972,154.756 119.998,154.232 122.476 C 153.437 126.231,153.346 127.362,153.669 129.467 C 154.221 133.063,155.124 134.995,157.146 136.910 C 158.165 137.875,159.386 139.101,159.857 139.633 C 160.328 140.165,161.228 141.072,161.857 141.648 C 162.486 142.224,163.466 143.214,164.035 143.848 C 164.604 144.482,165.504 145.372,166.035 145.828 C 166.566 146.283,167.474 147.183,168.054 147.828 C 168.633 148.472,169.623 149.472,170.254 150.048 C 170.884 150.624,171.866 151.614,172.435 152.248 C 173.004 152.882,173.904 153.786,174.435 154.257 C 174.966 154.728,175.871 155.628,176.447 156.257 C 177.023 156.886,178.148 158.021,178.947 158.781 C 180.296 160.063,180.400 160.329,180.400 162.513 L 180.400 164.864 167.879 177.343 C 154.428 190.749,154.302 190.912,153.649 195.682 C 152.037 207.475,165.814 213.909,174.400 205.371 C 175.390 204.386,180.970 198.844,186.800 193.053 L 197.400 182.526 199.570 182.274 C 201.700 182.026,204.400 182.991,204.400 183.999 C 204.400 184.183,208.765 188.663,214.100 193.954 C 219.435 199.245,224.610 204.381,225.600 205.367 C 231.122 210.870,241.838 210.009,245.102 203.800 C 247.702 198.856,246.618 191.814,242.628 187.718 C 241.513 186.572,240.330 185.354,240.000 185.011 C 239.441 184.430,237.063 182.041,235.907 180.900 C 235.628 180.625,234.680 179.680,233.800 178.800 C 232.920 177.920,231.873 176.885,231.473 176.500 C 231.073 176.115,230.134 175.170,229.387 174.400 C 227.696 172.658,227.342 172.304,225.600 170.613 C 224.830 169.866,223.885 168.927,223.500 168.527 C 223.115 168.127,222.080 167.125,221.200 166.300 C 219.703 164.896,219.600 164.656,219.600 162.563 L 219.600 160.326 230.434 149.463 C 244.941 134.917,244.656 135.224,245.362 133.400 C 245.702 132.520,246.140 130.750,246.335 129.467 C 246.654 127.367,246.561 126.220,245.768 122.476 C 244.920 118.466,238.269 115.260,232.771 116.209 C 228.256 116.988,227.912 117.260,214.825 130.374 L 202.426 142.800 200.042 142.800 C 197.517 142.800,197.699 142.909,194.400 139.419 C 187.605 132.231,172.429 117.812,171.023 117.210 C 168.444 116.104,164.976 115.710,162.400 116.229 M169.800 118.086 C 171.169 118.574,171.107 118.517,186.288 133.591 L 197.577 144.800 200.048 144.800 L 202.520 144.800 213.760 133.584 C 230.842 116.540,229.403 117.713,233.400 117.569 C 239.110 117.363,239.535 117.460,241.421 119.400 C 242.383 120.390,243.335 121.200,243.537 121.200 C 244.817 121.200,245.480 129.792,244.402 132.396 C 244.122 133.070,242.073 135.496,239.847 137.786 C 237.621 140.077,235.432 142.386,234.982 142.918 C 234.532 143.449,233.812 144.074,233.382 144.305 C 232.952 144.537,232.060 145.452,231.400 146.339 C 230.740 147.227,229.787 148.143,229.281 148.376 C 228.776 148.609,228.074 149.303,227.721 149.919 C 227.367 150.534,226.406 151.544,225.583 152.163 C 224.761 152.781,223.573 153.985,222.944 154.837 C 222.315 155.689,221.496 156.488,221.124 156.613 C 219.635 157.111,217.600 160.675,217.600 162.785 L 217.600 164.767 230.452 177.677 C 245.109 192.400,244.363 191.495,244.808 195.084 C 245.846 203.451,242.522 207.485,234.514 207.576 C 230.093 207.627,229.982 207.542,215.573 193.185 L 202.340 180.000 200.371 180.000 C 198.460 180.000,194.400 182.184,194.400 183.212 C 194.400 183.398,193.858 184.056,193.194 184.675 C 192.531 185.294,187.306 190.430,181.582 196.088 C 169.278 208.252,168.903 208.461,161.585 207.252 C 158.745 206.783,155.233 203.114,155.114 200.491 C 155.002 198.016,155.137 194.947,155.435 193.200 C 155.637 192.013,173.854 172.919,181.700 165.669 C 182.222 165.186,182.400 164.391,182.400 162.534 L 182.400 160.046 169.271 146.877 C 161.870 139.454,155.912 133.154,155.616 132.439 C 154.504 129.753,155.172 121.200,156.495 121.200 C 156.713 121.200,157.590 120.437,158.442 119.505 C 160.417 117.344,165.823 116.668,169.800 118.086 M114.528 173.600 C 114.528 175.030,114.601 175.615,114.689 174.900 C 114.778 174.185,114.778 173.015,114.689 172.300 C 114.601 171.585,114.528 172.170,114.528 173.600 M114.531 207.400 C 114.533 208.940,114.605 209.521,114.692 208.691 C 114.779 207.861,114.777 206.601,114.689 205.891 C 114.600 205.181,114.529 205.860,114.531 207.400 M114.845 213.000 C 114.812 214.424,115.851 216.828,117.742 219.708 C 118.497 220.859,119.241 222.430,119.397 223.200 C 119.737 224.893,121.192 227.508,122.402 228.600 C 122.888 229.040,123.709 230.233,124.225 231.252 C 124.862 232.507,125.722 233.430,126.897 234.118 C 127.850 234.677,128.862 235.568,129.146 236.099 C 129.430 236.630,130.229 237.399,130.921 237.808 C 131.613 238.216,133.073 239.422,134.165 240.486 C 135.352 241.642,136.927 242.696,138.076 243.104 C 139.134 243.480,140.000 243.984,140.000 244.224 C 140.000 244.951,141.708 246.272,143.313 246.786 C 144.145 247.052,145.321 247.800,145.926 248.448 C 146.532 249.096,148.177 250.386,149.581 251.313 C 153.143 253.665,153.206 253.908,153.557 266.600 C 153.861 277.590,154.002 278.392,155.951 280.156 C 156.409 280.571,156.898 281.518,157.038 282.262 C 157.178 283.008,157.744 283.970,158.300 284.407 C 159.666 285.482,160.332 285.412,159.323 284.300 C 158.873 283.805,157.832 281.870,157.010 280.000 L 155.514 276.600 155.195 266.800 C 154.841 255.956,154.204 252.732,152.131 251.288 C 151.588 250.910,150.031 249.726,148.672 248.658 C 147.312 247.590,145.248 246.261,144.085 245.704 C 142.922 245.148,141.791 244.357,141.572 243.948 C 141.353 243.538,140.419 242.818,139.497 242.348 C 137.923 241.545,136.421 240.358,131.454 235.996 C 130.324 235.003,128.709 233.664,127.864 233.021 C 127.019 232.377,125.593 230.759,124.695 229.425 C 123.797 228.091,122.556 226.474,121.938 225.831 C 121.319 225.188,120.507 223.838,120.133 222.831 C 119.419 220.911,117.545 217.311,116.363 215.585 C 115.980 215.027,115.488 213.947,115.270 213.185 L 114.872 211.800 114.845 213.000 M252.600 249.210 C 248.615 250.012,247.161 250.875,245.549 253.400 C 242.450 258.253,242.632 257.167,242.397 272.200 C 242.055 293.966,245.717 292.079,204.141 291.919 C 173.410 291.800,173.399 291.800,170.913 290.900 C 167.122 289.528,166.122 289.762,169.200 291.300 L 171.800 292.600 204.158 292.711 C 240.353 292.836,240.041 292.856,241.619 290.284 C 243.146 287.794,243.312 286.371,243.582 273.400 C 243.806 262.637,243.953 260.409,244.505 259.400 C 245.176 258.173,246.287 255.715,247.318 253.175 C 248.622 249.963,259.802 249.683,261.916 252.810 C 262.419 253.555,263.319 254.484,263.916 254.874 C 265.474 255.894,265.551 256.765,265.577 273.680 C 265.602 290.205,265.404 292.260,263.600 294.200 C 261.579 296.372,259.758 303.844,260.900 305.272 C 261.472 305.988,264.000 306.928,264.000 306.426 C 264.000 306.243,263.652 306.002,263.226 305.891 C 261.337 305.397,262.027 299.834,264.445 296.062 C 266.441 292.949,266.600 291.260,266.600 273.200 C 266.600 254.999,266.744 256.143,264.034 252.866 C 261.406 249.689,257.084 248.307,252.600 249.210 M160.400 285.893 C 160.400 286.644,161.861 288.514,162.844 289.023 C 164.619 289.941,164.511 289.635,162.331 287.573 C 161.269 286.569,160.400 285.813,160.400 285.893 " stroke="none" fill="#4c4c7c" fill-rule="evenodd"></path><path id="path3" d="M219.000 69.062 C 218.560 69.155,217.808 69.314,217.328 69.416 C 216.095 69.678,215.200 70.692,215.200 71.829 C 215.200 72.922,215.472 72.888,207.000 72.847 C 202.169 72.823,197.929 73.161,198.169 73.551 C 198.254 73.688,197.880 73.827,197.338 73.859 C 196.114 73.933,194.949 74.952,194.628 76.229 C 194.390 77.180,191.754 77.586,188.245 77.212 C 187.830 77.167,187.337 77.372,187.151 77.666 C 186.910 78.046,186.810 78.060,186.806 77.713 C 186.803 77.444,186.530 77.329,186.200 77.455 C 185.793 77.612,185.600 78.250,185.600 79.443 L 185.600 81.200 182.700 81.247 C 181.105 81.273,179.573 81.265,179.294 81.229 C 178.250 81.092,177.377 82.200,177.319 83.736 C 177.245 85.696,177.567 85.543,173.274 85.657 C 170.502 85.731,169.622 85.882,169.767 86.257 C 169.889 86.576,169.735 86.673,169.345 86.524 C 168.914 86.358,168.755 86.513,168.811 87.044 C 169.061 89.387,168.973 89.469,165.960 89.722 C 162.739 89.992,161.330 90.719,160.951 92.305 C 160.567 93.915,160.118 94.312,158.938 94.086 C 158.110 93.928,157.954 94.005,158.217 94.442 C 158.505 94.919,158.454 94.919,157.867 94.443 C 156.971 93.716,156.718 94.024,156.511 96.089 C 156.300 98.197,156.324 98.175,154.385 98.061 C 152.675 97.960,151.698 99.203,152.145 100.913 C 152.347 101.684,151.043 102.463,150.131 102.117 C 149.282 101.794,147.947 102.812,148.019 103.727 C 148.219 106.238,148.109 106.400,146.208 106.400 C 144.276 106.400,144.085 106.647,143.887 109.408 C 143.807 110.512,143.692 110.603,142.546 110.469 C 141.001 110.289,139.535 111.020,139.625 111.925 C 139.828 113.974,139.584 114.800,138.776 114.800 C 138.291 114.800,138.062 114.977,138.218 115.230 C 138.364 115.466,138.108 115.424,137.648 115.137 C 136.411 114.364,135.164 115.611,135.937 116.848 C 136.224 117.308,136.266 117.564,136.030 117.418 C 135.762 117.253,135.600 117.583,135.600 118.294 C 135.600 119.236,135.373 119.501,134.300 119.817 C 132.701 120.288,131.259 122.952,131.224 125.500 C 131.200 127.222,131.055 127.355,129.351 127.222 C 128.013 127.118,127.205 128.235,127.251 130.124 C 127.274 131.046,127.272 132.700,127.247 133.800 L 127.200 135.800 125.300 135.800 L 123.400 135.800 123.370 137.226 C 123.353 138.010,123.239 138.820,123.117 139.026 C 122.995 139.232,122.877 140.357,122.854 141.528 C 122.804 144.148,122.688 144.344,121.350 144.088 C 120.674 143.959,120.375 144.036,120.536 144.297 C 120.678 144.526,120.481 144.685,120.096 144.655 C 119.632 144.618,119.396 144.894,119.388 145.479 C 119.381 145.962,119.246 146.487,119.088 146.645 C 118.930 146.804,118.800 149.045,118.800 151.627 L 118.800 156.321 117.300 156.675 C 114.641 157.302,114.726 156.400,114.659 184.796 C 114.606 207.549,114.669 210.395,115.233 211.057 C 116.334 212.349,118.400 216.355,118.400 217.198 C 118.400 217.643,118.963 218.591,119.650 219.304 C 120.338 220.017,121.221 221.341,121.613 222.246 C 122.005 223.152,122.885 224.291,123.569 224.778 C 124.253 225.265,125.069 226.160,125.383 226.768 C 126.163 228.276,129.616 231.748,131.550 232.969 C 132.423 233.519,133.242 234.301,133.370 234.707 C 133.499 235.112,134.410 235.953,135.396 236.576 C 136.381 237.198,137.645 238.308,138.205 239.042 C 138.865 239.907,139.791 240.528,140.843 240.812 C 141.952 241.110,142.676 241.617,143.132 242.412 C 143.608 243.242,144.491 243.833,146.200 244.467 C 147.790 245.058,149.212 245.972,150.414 247.179 C 151.412 248.181,152.764 249.282,153.418 249.626 C 154.336 250.109,154.776 250.788,155.348 252.603 C 155.756 253.895,156.423 255.413,156.830 255.976 C 158.061 257.676,158.380 260.228,158.390 268.465 C 158.404 279.413,159.450 284.961,161.696 286.000 C 162.409 286.330,163.410 287.230,163.921 288.000 C 165.244 289.996,165.677 290.021,203.126 290.247 L 235.653 290.443 237.135 288.822 C 237.950 287.930,238.832 287.200,239.095 287.200 C 240.399 287.200,240.571 285.479,240.729 270.800 C 240.900 254.938,240.916 254.826,243.194 253.204 C 243.857 252.732,244.400 252.112,244.400 251.827 C 244.400 250.789,246.080 249.209,247.627 248.793 C 248.498 248.558,249.840 247.814,250.609 247.139 C 252.729 245.277,256.626 245.250,259.200 247.079 C 260.190 247.783,261.481 248.474,262.070 248.615 C 267.348 249.881,268.797 254.838,268.799 271.644 C 268.801 288.541,267.687 297.213,265.159 299.980 C 264.190 301.042,264.001 301.589,264.006 303.325 C 264.015 306.389,264.020 306.391,268.812 306.157 C 271.115 306.045,273.436 305.964,273.968 305.977 C 275.507 306.017,276.911 304.893,276.700 303.791 C 276.404 302.238,276.854 302.042,281.000 301.919 L 284.975 301.800 285.124 300.000 C 285.311 297.735,285.003 297.910,288.781 297.924 C 290.616 297.931,291.911 297.779,291.783 297.572 C 291.659 297.373,291.829 297.313,292.160 297.440 C 293.026 297.772,293.846 297.202,293.143 296.756 C 292.743 296.503,292.732 296.411,293.100 296.406 C 293.404 296.402,293.600 295.850,293.600 295.000 L 293.600 293.600 296.500 293.554 C 298.095 293.529,299.670 293.528,300.000 293.552 C 301.000 293.627,301.574 293.029,301.856 291.618 C 302.073 290.533,302.017 290.337,301.562 290.594 C 301.133 290.837,301.142 290.763,301.600 290.281 C 301.930 289.934,303.010 289.560,304.000 289.450 C 304.990 289.340,305.856 289.239,305.925 289.225 C 305.994 289.211,306.006 288.885,305.951 288.500 C 305.638 286.284,306.393 285.200,308.248 285.200 C 310.794 285.200,312.857 284.028,313.709 282.096 C 314.293 280.774,314.565 280.542,315.359 280.694 C 316.900 280.989,317.966 280.151,318.241 278.431 C 318.469 277.009,318.609 276.869,320.031 276.641 C 321.657 276.381,322.619 275.280,322.296 274.047 C 322.083 273.230,322.787 272.519,324.149 272.177 C 325.524 271.832,327.431 268.506,327.160 266.924 C 326.822 264.942,327.194 264.444,329.100 264.322 C 330.991 264.201,331.000 264.193,331.046 262.728 C 331.121 260.348,331.392 259.978,332.852 260.270 C 333.972 260.494,334.099 260.436,333.858 259.807 C 333.631 259.216,333.685 259.172,334.155 259.563 C 334.935 260.210,335.220 259.634,335.159 257.531 C 335.081 254.853,337.526 251.013,338.805 251.803 C 339.244 252.075,339.678 250.682,339.587 249.292 C 339.467 247.473,339.555 247.309,340.782 247.064 C 342.837 246.653,343.382 245.243,343.542 239.918 C 343.637 236.754,343.835 235.188,344.142 235.162 C 344.394 235.142,345.217 235.097,345.971 235.062 C 347.625 234.987,347.999 234.030,347.945 230.008 C 347.865 224.140,347.981 222.800,348.567 222.800 C 348.878 222.800,349.224 222.575,349.335 222.300 C 349.496 221.900,349.543 221.900,349.568 222.300 C 349.615 223.034,350.290 222.910,351.200 222.000 C 352.087 221.113,352.319 219.761,351.500 220.253 C 351.100 220.493,351.100 220.430,351.499 219.937 C 352.295 218.954,352.196 160.239,351.399 160.545 C 351.083 160.666,350.702 160.565,350.551 160.321 C 350.391 160.062,350.457 159.988,350.709 160.144 C 351.265 160.488,351.731 159.043,351.400 158.001 C 351.124 157.131,349.538 156.544,348.761 157.024 C 348.466 157.206,348.380 157.156,348.541 156.896 C 348.686 156.661,348.630 156.408,348.417 156.334 C 348.100 156.225,347.595 149.923,347.595 146.078 C 347.595 145.571,347.418 145.265,347.202 145.399 C 346.970 145.542,346.917 145.360,347.074 144.951 C 347.279 144.416,347.184 144.321,346.649 144.526 C 346.190 144.702,346.052 144.639,346.239 144.337 C 346.430 144.028,346.190 143.947,345.485 144.082 C 343.786 144.406,343.581 143.981,343.563 140.096 C 343.543 135.958,343.229 135.416,341.006 135.675 L 339.600 135.839 339.569 133.820 C 339.552 132.709,339.467 131.170,339.380 130.400 C 339.292 129.630,339.205 128.686,339.186 128.301 C 339.153 127.664,337.888 127.047,336.974 127.223 C 335.480 127.511,335.200 127.188,335.200 125.176 C 335.200 123.749,335.064 123.237,334.738 123.438 C 334.459 123.611,334.385 123.548,334.551 123.279 C 335.109 122.377,333.702 120.000,332.463 119.753 C 331.747 119.609,331.117 119.136,330.843 118.534 C 330.504 117.790,330.508 117.619,330.859 117.837 C 331.197 118.045,331.250 117.752,331.055 116.775 C 330.686 114.931,330.179 114.496,329.148 115.140 C 328.691 115.425,328.436 115.466,328.582 115.230 C 328.743 114.968,328.463 114.800,327.865 114.800 C 325.908 114.800,325.864 127.573,327.813 129.522 C 331.591 133.300,331.471 180.564,327.670 185.901 C 327.074 186.738,326.671 188.389,326.221 191.836 C 325.440 197.827,325.120 198.930,323.699 200.549 C 322.841 201.526,322.423 202.596,322.029 204.826 C 321.455 208.073,320.953 209.282,319.423 211.100 C 318.870 211.757,318.156 213.296,317.838 214.519 C 317.158 217.131,316.880 217.692,315.262 219.725 C 314.594 220.564,313.752 222.141,313.390 223.231 C 312.968 224.501,312.276 225.559,311.461 226.181 C 310.624 226.819,310.001 227.790,309.638 229.018 C 309.310 230.127,308.444 231.559,307.505 232.543 C 306.635 233.454,305.649 234.740,305.314 235.400 C 304.408 237.180,303.577 237.999,302.008 238.653 C 301.234 238.976,300.060 239.761,299.400 240.398 C 296.805 242.901,290.045 242.994,287.738 240.557 C 287.044 239.824,285.716 238.920,284.788 238.548 C 283.413 237.998,282.950 237.530,282.303 236.036 C 281.866 235.026,280.945 233.607,280.257 232.881 C 277.969 230.468,278.220 224.277,280.722 221.428 C 281.401 220.655,282.139 219.362,282.362 218.554 C 282.798 216.972,284.221 215.200,285.054 215.200 C 285.337 215.200,285.775 214.436,286.026 213.502 C 286.696 211.015,287.874 208.901,289.001 208.162 C 289.602 207.769,290.161 206.860,290.419 205.856 C 291.282 202.503,291.639 201.725,292.962 200.323 C 294.078 199.139,294.398 198.381,294.804 195.946 C 295.315 192.884,295.989 191.162,297.211 189.800 C 298.110 188.798,298.660 186.653,299.007 182.800 C 299.421 178.195,300.217 174.476,301.446 171.400 L 302.564 168.600 302.562 157.800 L 302.561 147.000 301.480 144.431 C 300.300 141.625,299.498 137.683,298.791 131.212 C 298.353 127.200,297.920 125.600,297.272 125.600 C 296.592 125.600,295.530 123.016,294.794 119.574 C 294.145 116.537,293.772 115.645,292.616 114.365 C 291.848 113.515,291.110 112.321,290.976 111.710 C 290.453 109.335,289.486 107.342,288.204 106.000 C 287.468 105.230,286.667 103.844,286.423 102.920 C 286.139 101.844,285.564 100.944,284.822 100.416 C 284.185 99.962,283.016 98.433,282.225 97.018 C 281.433 95.602,280.281 94.085,279.664 93.646 C 279.047 93.207,278.214 92.119,277.813 91.229 C 277.383 90.275,276.524 89.280,275.722 88.807 C 274.957 88.355,274.105 87.392,273.777 86.606 C 273.396 85.694,272.742 85.019,271.896 84.666 C 270.555 84.105,269.731 83.311,269.016 81.889 C 268.787 81.435,268.060 80.886,267.400 80.670 C 266.740 80.454,265.210 79.586,264.000 78.743 C 262.790 77.899,260.878 76.769,259.751 76.232 C 258.623 75.694,257.324 74.776,256.864 74.191 C 256.111 73.233,255.694 73.104,252.713 72.906 C 249.837 72.714,247.581 72.005,247.900 71.392 C 248.192 70.830,247.945 69.187,247.600 69.400 C 247.380 69.536,247.200 69.457,247.200 69.224 C 247.200 68.991,246.739 68.800,246.176 68.800 C 245.534 68.800,245.254 68.964,245.425 69.240 C 245.617 69.551,245.477 69.564,244.948 69.285 C 243.953 68.761,222.847 68.761,221.852 69.285 C 221.323 69.564,221.183 69.551,221.375 69.240 C 221.650 68.796,220.621 68.719,219.000 69.062 M196.769 75.969 C 196.073 76.666,195.413 77.146,195.303 77.036 C 195.193 76.926,195.673 76.266,196.369 75.569 C 197.066 74.873,197.726 74.393,197.836 74.503 C 197.946 74.613,197.466 75.273,196.769 75.969 M167.400 113.440 C 168.060 113.739,168.870 114.153,169.200 114.360 C 169.530 114.567,170.913 115.128,172.272 115.607 C 174.241 116.300,174.953 116.792,175.771 118.027 C 176.335 118.880,177.316 119.846,177.950 120.174 C 178.585 120.502,179.473 121.396,179.924 122.161 C 180.375 122.925,181.297 123.837,181.974 124.187 C 182.651 124.536,183.660 125.545,184.217 126.427 C 184.774 127.309,185.677 128.201,186.225 128.409 C 186.772 128.617,187.601 129.435,188.068 130.226 C 188.535 131.016,189.617 132.106,190.474 132.647 C 191.330 133.187,192.197 134.066,192.400 134.600 C 192.603 135.134,193.470 136.013,194.326 136.553 C 195.183 137.094,196.252 138.161,196.703 138.925 C 198.260 141.564,201.713 141.472,203.433 138.747 C 203.984 137.875,204.741 137.053,205.117 136.920 C 206.163 136.550,207.254 135.499,207.640 134.490 C 207.831 133.990,208.635 133.199,209.426 132.732 C 210.216 132.265,211.306 131.183,211.847 130.326 C 212.387 129.470,213.266 128.603,213.800 128.400 C 214.334 128.197,215.213 127.330,215.753 126.474 C 216.294 125.617,217.370 124.543,218.143 124.086 C 218.917 123.630,219.835 122.707,220.182 122.035 C 220.529 121.363,221.351 120.535,222.008 120.196 C 222.666 119.856,223.663 118.884,224.224 118.036 C 225.179 116.592,228.482 114.800,230.187 114.800 C 230.470 114.800,230.915 114.543,231.176 114.229 C 232.686 112.410,236.336 112.282,238.200 113.983 C 238.640 114.385,239.630 114.842,240.400 115.000 C 244.155 115.767,247.600 119.353,247.600 122.496 C 247.600 122.824,247.959 123.549,248.399 124.107 C 249.963 126.097,249.944 129.495,248.357 131.444 C 248.158 131.687,247.635 132.935,247.195 134.216 C 246.317 136.766,245.479 137.909,244.098 138.437 C 243.602 138.627,242.885 139.434,242.505 140.230 C 242.077 141.128,241.243 141.970,240.310 142.446 C 239.331 142.945,238.599 143.706,238.217 144.621 C 237.815 145.583,237.182 146.216,236.218 146.618 C 235.260 147.019,234.621 147.654,234.226 148.600 C 233.844 149.514,233.143 150.231,232.183 150.689 C 231.261 151.128,230.432 151.953,229.937 152.923 C 229.429 153.919,228.670 154.662,227.780 155.034 C 226.864 155.417,226.216 156.066,225.831 156.988 C 225.443 157.915,224.753 158.604,223.727 159.086 C 221.371 160.192,221.173 164.339,223.413 165.660 C 224.211 166.131,225.307 167.219,225.849 168.077 C 226.391 168.936,227.141 169.747,227.517 169.880 C 228.554 170.247,229.653 171.298,230.030 172.285 C 230.217 172.772,231.089 173.625,231.969 174.181 C 232.850 174.736,233.821 175.671,234.129 176.258 C 234.436 176.845,235.388 177.800,236.244 178.380 C 237.100 178.960,238.038 179.928,238.328 180.530 C 238.618 181.132,239.558 182.068,240.416 182.610 C 241.275 183.152,242.264 184.149,242.613 184.826 C 242.963 185.503,243.858 186.415,244.602 186.854 C 245.553 187.415,246.154 188.206,246.632 189.526 C 247.005 190.557,247.838 192.519,248.482 193.886 C 249.955 197.013,249.989 198.267,248.660 200.534 C 248.077 201.529,247.598 202.580,247.596 202.871 C 247.576 205.611,244.702 208.700,241.188 209.759 C 240.192 210.059,238.681 210.776,237.832 211.352 C 235.873 212.682,234.693 212.671,231.982 211.300 C 230.785 210.695,228.821 209.840,227.617 209.400 C 225.929 208.783,225.175 208.223,224.322 206.952 C 223.714 206.046,222.651 205.070,221.959 204.783 C 221.167 204.455,220.494 203.766,220.141 202.920 C 219.784 202.065,219.060 201.330,218.151 200.896 C 217.277 200.479,216.426 199.636,215.963 198.727 C 215.493 197.807,214.650 196.977,213.753 196.551 C 212.827 196.111,212.101 195.383,211.748 194.538 C 211.401 193.707,210.634 192.928,209.690 192.446 C 208.772 191.978,207.923 191.129,207.513 190.267 C 207.118 189.440,206.294 188.597,205.520 188.228 C 204.772 187.873,203.853 186.950,203.399 186.100 C 202.600 184.603,202.593 184.600,200.002 184.600 L 197.406 184.600 196.687 186.127 C 196.205 187.151,195.515 187.844,194.591 188.230 C 193.706 188.599,192.939 189.343,192.446 190.310 C 191.974 191.235,191.128 192.077,190.249 192.496 C 189.340 192.930,188.616 193.665,188.259 194.520 C 187.899 195.383,187.180 196.108,186.247 196.551 C 185.350 196.977,184.507 197.807,184.037 198.727 C 183.574 199.636,182.723 200.479,181.849 200.896 C 180.940 201.330,180.216 202.065,179.859 202.920 C 179.506 203.766,178.833 204.455,178.041 204.783 C 177.349 205.070,176.286 206.046,175.678 206.952 C 174.825 208.223,174.071 208.783,172.383 209.400 C 171.179 209.840,169.215 210.695,168.018 211.300 C 165.307 212.671,164.127 212.682,162.168 211.352 C 161.319 210.776,159.808 210.059,158.812 209.759 C 155.298 208.700,152.424 205.611,152.404 202.871 C 152.402 202.580,151.923 201.529,151.340 200.534 C 150.011 198.267,150.045 197.013,151.518 193.886 C 152.162 192.519,152.989 190.572,153.355 189.561 C 153.822 188.269,154.462 187.435,155.505 186.760 C 156.321 186.232,157.229 185.299,157.523 184.687 C 157.816 184.075,158.758 183.132,159.616 182.590 C 160.475 182.048,161.455 181.066,161.795 180.409 C 162.135 179.751,162.963 178.929,163.635 178.582 C 164.307 178.235,165.230 177.317,165.686 176.543 C 166.143 175.770,167.205 174.702,168.047 174.170 C 168.889 173.639,169.855 172.666,170.195 172.009 C 170.535 171.351,171.363 170.529,172.035 170.182 C 172.707 169.835,173.630 168.917,174.086 168.143 C 174.543 167.370,175.619 166.293,176.477 165.751 L 178.037 164.766 177.919 162.301 C 177.804 159.920,177.750 159.809,176.354 159.076 C 175.528 158.642,174.630 157.732,174.258 156.954 C 173.878 156.157,173.043 155.322,172.246 154.942 C 171.473 154.573,170.557 153.672,170.129 152.859 C 169.714 152.070,168.730 151.086,167.941 150.671 C 167.128 150.243,166.227 149.327,165.858 148.554 C 165.473 147.746,164.642 146.921,163.818 146.528 C 163.002 146.139,162.165 145.313,161.794 144.530 C 161.417 143.737,160.543 142.881,159.638 142.419 C 158.717 141.950,157.913 141.155,157.605 140.413 C 157.325 139.736,156.354 138.685,155.448 138.077 C 154.103 137.175,153.631 136.499,152.884 134.408 C 152.380 132.997,151.814 131.654,151.625 131.422 C 150.055 129.493,150.044 126.087,151.601 124.107 C 152.041 123.549,152.400 122.824,152.400 122.496 C 152.400 119.353,155.845 115.767,159.600 115.000 C 160.370 114.842,161.360 114.384,161.800 113.981 C 163.535 112.393,164.817 112.269,167.400 113.440 M333.018 120.982 C 333.558 121.522,334.000 122.192,334.000 122.471 C 334.000 122.750,333.724 122.584,333.387 122.102 C 333.049 121.621,332.379 120.951,331.898 120.613 C 331.416 120.276,331.250 120.000,331.529 120.000 C 331.808 120.000,332.478 120.442,333.018 120.982 M135.479 121.100 C 135.493 121.921,134.878 122.800,134.289 122.800 C 134.062 122.800,134.202 122.440,134.600 122.000 C 134.998 121.560,135.131 121.200,134.895 121.200 C 134.660 121.200,134.097 121.695,133.646 122.300 C 133.195 122.905,132.820 123.167,132.813 122.882 C 132.799 122.305,134.566 120.400,135.115 120.400 C 135.308 120.400,135.472 120.715,135.479 121.100 M325.349 270.281 C 324.910 270.869,324.327 271.424,324.053 271.516 C 323.779 271.607,324.015 271.222,324.577 270.659 C 325.140 270.097,325.600 269.418,325.600 269.152 C 325.600 268.885,325.723 268.790,325.873 268.940 C 326.023 269.090,325.788 269.694,325.349 270.281 M312.800 281.685 C 312.800 282.104,311.290 283.600,310.867 283.600 C 310.412 283.600,310.422 282.310,310.881 281.727 C 311.288 281.210,312.800 281.177,312.800 281.685 " stroke="none" fill="#9cabdc" fill-rule="evenodd"></path><path id="path4" d="M231.891 69.089 C 232.601 69.177,233.861 69.179,234.691 69.092 C 235.521 69.005,234.940 68.933,233.400 68.931 C 231.860 68.929,231.181 69.000,231.891 69.089 M248.718 72.228 C 249.211 72.573,249.927 72.774,250.307 72.674 C 250.833 72.537,250.789 72.482,250.124 72.446 C 249.642 72.421,249.136 72.220,249.000 72.000 C 248.864 71.780,248.543 71.600,248.287 71.600 C 248.031 71.600,248.225 71.883,248.718 72.228 M255.172 73.092 C 255.706 73.192,256.494 73.720,256.922 74.265 C 257.351 74.809,258.623 75.694,259.751 76.232 C 260.878 76.769,262.790 77.899,264.000 78.743 C 265.210 79.586,266.740 80.454,267.400 80.670 C 268.060 80.886,268.787 81.435,269.016 81.889 C 269.731 83.311,270.555 84.105,271.896 84.666 C 272.742 85.019,273.396 85.694,273.777 86.606 C 274.105 87.392,274.957 88.355,275.722 88.807 C 276.524 89.280,277.383 90.275,277.813 91.229 C 278.214 92.119,279.047 93.207,279.664 93.646 C 280.281 94.085,281.433 95.602,282.225 97.018 C 283.016 98.433,284.185 99.962,284.822 100.416 C 285.564 100.944,286.139 101.844,286.423 102.920 C 286.667 103.844,287.468 105.230,288.204 106.000 C 289.486 107.342,290.453 109.335,290.976 111.710 C 291.110 112.321,291.848 113.515,292.616 114.365 C 293.772 115.645,294.145 116.537,294.794 119.574 C 295.530 123.016,296.592 125.600,297.272 125.600 C 297.920 125.600,298.353 127.200,298.791 131.212 C 299.498 137.683,300.300 141.625,301.480 144.431 L 302.561 147.000 302.562 157.800 L 302.564 168.600 301.446 171.400 C 300.217 174.476,299.421 178.195,299.007 182.800 C 298.660 186.653,298.110 188.798,297.211 189.800 C 295.989 191.162,295.315 192.884,294.804 195.946 C 294.398 198.381,294.078 199.139,292.962 200.323 C 291.639 201.725,291.282 202.503,290.419 205.856 C 290.161 206.860,289.602 207.769,289.001 208.162 C 287.874 208.901,286.696 211.015,286.026 213.502 C 285.775 214.436,285.337 215.200,285.054 215.200 C 284.221 215.200,282.798 216.972,282.362 218.554 C 282.139 219.362,281.401 220.655,280.722 221.428 C 278.220 224.277,277.969 230.468,280.257 232.881 C 280.945 233.607,281.866 235.026,282.303 236.036 C 282.950 237.530,283.413 237.998,284.788 238.548 C 285.716 238.920,287.044 239.824,287.738 240.557 C 290.045 242.994,296.805 242.901,299.400 240.398 C 300.060 239.761,301.234 238.976,302.008 238.653 C 303.577 237.999,304.408 237.180,305.314 235.400 C 305.649 234.740,306.635 233.454,307.505 232.543 C 308.444 231.559,309.310 230.127,309.638 229.018 C 310.001 227.790,310.624 226.819,311.461 226.181 C 312.276 225.559,312.968 224.501,313.390 223.231 C 313.752 222.141,314.594 220.564,315.262 219.725 C 316.880 217.692,317.158 217.131,317.838 214.519 C 318.156 213.296,318.870 211.757,319.423 211.100 C 320.953 209.282,321.455 208.073,322.029 204.826 C 322.423 202.596,322.841 201.526,323.699 200.549 C 325.120 198.930,325.440 197.827,326.221 191.836 C 326.671 188.389,327.074 186.738,327.670 185.901 C 331.541 180.465,331.581 133.290,327.718 129.427 C 326.430 128.139,326.136 124.832,326.722 118.200 C 326.935 115.780,326.962 113.530,326.781 113.200 C 326.553 112.786,326.462 112.985,326.485 113.842 C 326.503 114.526,326.362 115.336,326.170 115.642 C 324.890 117.689,325.194 127.288,326.707 132.600 C 328.906 140.322,329.000 141.360,329.000 157.800 C 328.999 173.988,328.792 176.500,327.004 182.000 C 326.468 183.650,325.659 187.250,325.207 190.000 C 324.593 193.742,324.041 195.705,323.015 197.800 C 322.260 199.340,321.351 201.897,320.994 203.481 C 320.624 205.122,319.843 207.102,319.180 208.081 C 318.539 209.027,317.545 211.201,316.970 212.914 C 316.395 214.626,315.494 216.540,314.967 217.166 C 314.441 217.792,313.463 219.522,312.796 221.010 C 312.128 222.498,311.046 224.326,310.390 225.072 C 309.735 225.819,308.929 227.074,308.600 227.861 C 308.272 228.648,307.456 229.913,306.789 230.674 C 306.121 231.434,305.019 233.042,304.339 234.247 C 302.548 237.421,296.319 240.630,292.705 240.242 C 290.949 240.054,285.927 237.901,284.522 236.735 C 283.702 236.055,281.317 230.904,280.841 228.786 C 280.325 226.489,282.917 219.476,285.214 216.956 C 286.038 216.052,287.080 214.482,287.529 213.466 C 287.979 212.451,288.884 210.941,289.542 210.110 C 290.199 209.280,291.185 207.485,291.732 206.122 C 292.279 204.758,293.177 203.048,293.727 202.322 C 294.277 201.595,295.124 199.650,295.610 198.000 C 296.095 196.350,297.039 194.010,297.706 192.800 C 298.555 191.263,299.248 188.974,300.009 185.200 C 300.608 182.230,301.554 178.262,302.112 176.383 C 304.715 167.612,304.521 147.078,301.748 137.833 C 301.214 136.055,300.426 132.620,299.995 130.200 C 299.438 127.069,298.818 125.038,297.846 123.157 C 297.094 121.703,296.095 119.110,295.624 117.394 C 295.117 115.547,294.292 113.674,293.600 112.800 C 292.958 111.989,291.990 110.106,291.449 108.615 C 290.908 107.125,289.927 105.341,289.269 104.652 C 288.611 103.964,287.811 102.770,287.492 102.000 C 287.173 101.230,286.194 99.737,285.318 98.683 C 284.442 97.628,283.321 95.957,282.827 94.969 C 282.334 93.981,281.502 92.892,280.978 92.549 C 280.454 92.206,279.530 91.141,278.923 90.182 C 278.317 89.224,277.386 88.206,276.854 87.922 C 276.322 87.637,275.460 86.729,274.940 85.905 C 274.420 85.081,273.308 83.973,272.470 83.444 C 271.632 82.915,270.640 82.015,270.266 81.444 C 269.892 80.873,268.644 79.932,267.493 79.352 C 266.342 78.772,264.934 77.969,264.364 77.567 C 263.794 77.165,261.870 76.109,260.089 75.220 C 258.307 74.331,256.738 73.423,256.601 73.202 C 256.465 72.981,255.868 72.825,255.276 72.854 C 254.234 72.907,254.231 72.915,255.172 73.092 M196.369 75.569 C 195.673 76.266,195.193 76.926,195.303 77.036 C 195.413 77.146,196.073 76.666,196.769 75.969 C 197.466 75.273,197.946 74.613,197.836 74.503 C 197.726 74.393,197.066 74.873,196.369 75.569 M323.094 111.100 C 323.265 111.547,323.378 111.559,323.625 111.159 C 323.874 110.757,324.062 110.753,324.531 111.142 C 325.000 111.532,325.165 111.527,325.330 111.117 C 325.468 110.770,325.547 110.817,325.568 111.257 C 325.614 112.205,326.624 112.473,326.693 111.556 C 326.753 110.763,326.684 110.735,324.338 110.611 C 323.222 110.552,322.928 110.667,323.094 111.100 M163.600 112.853 C 163.050 113.070,162.240 113.578,161.800 113.981 C 161.360 114.384,160.370 114.842,159.600 115.000 C 155.845 115.767,152.400 119.353,152.400 122.496 C 152.400 122.824,152.041 123.549,151.601 124.107 C 150.044 126.087,150.055 129.493,151.625 131.422 C 151.814 131.654,152.380 132.997,152.884 134.408 C 153.631 136.499,154.103 137.175,155.448 138.077 C 156.354 138.685,157.325 139.736,157.605 140.413 C 157.913 141.155,158.717 141.950,159.638 142.419 C 160.543 142.881,161.417 143.737,161.794 144.530 C 162.165 145.313,163.002 146.139,163.818 146.528 C 164.642 146.921,165.473 147.746,165.858 148.554 C 166.227 149.327,167.128 150.243,167.941 150.671 C 168.730 151.086,169.714 152.070,170.129 152.859 C 170.557 153.672,171.473 154.573,172.246 154.942 C 173.043 155.322,173.878 156.157,174.258 156.954 C 174.630 157.732,175.528 158.642,176.354 159.076 C 177.750 159.809,177.804 159.920,177.919 162.301 L 178.037 164.766 176.477 165.751 C 175.619 166.293,174.543 167.370,174.086 168.143 C 173.630 168.917,172.707 169.835,172.035 170.182 C 171.363 170.529,170.535 171.351,170.195 172.009 C 169.855 172.666,168.889 173.639,168.047 174.170 C 167.205 174.702,166.143 175.770,165.686 176.543 C 165.230 177.317,164.307 178.235,163.635 178.582 C 162.963 178.929,162.135 179.751,161.795 180.409 C 161.455 181.066,160.475 182.048,159.616 182.590 C 158.758 183.132,157.816 184.075,157.523 184.687 C 157.229 185.299,156.321 186.232,155.505 186.760 C 154.462 187.435,153.822 188.269,153.355 189.561 C 152.989 190.572,152.162 192.519,151.518 193.886 C 150.045 197.013,150.011 198.267,151.340 200.534 C 151.923 201.529,152.402 202.580,152.404 202.871 C 152.424 205.611,155.298 208.700,158.812 209.759 C 159.808 210.059,161.319 210.776,162.168 211.352 C 164.127 212.682,165.307 212.671,168.018 211.300 C 169.215 210.695,171.179 209.840,172.383 209.400 C 174.071 208.783,174.825 208.223,175.678 206.952 C 176.286 206.046,177.349 205.070,178.041 204.783 C 178.833 204.455,179.506 203.766,179.859 202.920 C 180.216 202.065,180.940 201.330,181.849 200.896 C 182.723 200.479,183.574 199.636,184.037 198.727 C 184.507 197.807,185.350 196.977,186.247 196.551 C 187.180 196.108,187.899 195.383,188.259 194.520 C 188.616 193.665,189.340 192.930,190.249 192.496 C 191.128 192.077,191.974 191.235,192.446 190.310 C 192.939 189.343,193.706 188.599,194.591 188.230 C 195.515 187.844,196.205 187.151,196.687 186.127 L 197.406 184.600 200.002 184.600 C 202.593 184.600,202.600 184.603,203.399 186.100 C 203.853 186.950,204.772 187.873,205.520 188.228 C 206.294 188.597,207.118 189.440,207.513 190.267 C 207.923 191.129,208.772 191.978,209.690 192.446 C 210.634 192.928,211.401 193.707,211.748 194.538 C 212.101 195.383,212.827 196.111,213.753 196.551 C 214.650 196.977,215.493 197.807,215.963 198.727 C 216.426 199.636,217.277 200.479,218.151 200.896 C 219.060 201.330,219.784 202.065,220.141 202.920 C 220.494 203.766,221.167 204.455,221.959 204.783 C 222.651 205.070,223.714 206.046,224.322 206.952 C 225.175 208.223,225.929 208.783,227.617 209.400 C 228.821 209.840,230.785 210.695,231.982 211.300 C 234.693 212.671,235.873 212.682,237.832 211.352 C 238.681 210.776,240.192 210.059,241.188 209.759 C 244.702 208.700,247.576 205.611,247.596 202.871 C 247.598 202.580,248.077 201.529,248.660 200.534 C 249.989 198.267,249.955 197.013,248.482 193.886 C 247.838 192.519,247.005 190.557,246.632 189.526 C 246.154 188.206,245.553 187.415,244.602 186.854 C 243.858 186.415,242.963 185.503,242.613 184.826 C 242.264 184.149,241.275 183.152,240.416 182.610 C 239.558 182.068,238.618 181.132,238.328 180.530 C 238.038 179.928,237.100 178.960,236.244 178.380 C 235.388 177.800,234.436 176.845,234.129 176.258 C 233.821 175.671,232.850 174.736,231.969 174.181 C 231.089 173.625,230.217 172.772,230.030 172.285 C 229.653 171.298,228.554 170.247,227.517 169.880 C 227.141 169.747,226.391 168.936,225.849 168.077 C 225.307 167.219,224.211 166.131,223.413 165.660 C 221.173 164.339,221.371 160.192,223.727 159.086 C 224.753 158.604,225.443 157.915,225.831 156.988 C 226.216 156.066,226.864 155.417,227.780 155.034 C 228.670 154.662,229.429 153.919,229.937 152.923 C 230.432 151.953,231.261 151.128,232.183 150.689 C 233.143 150.231,233.844 149.514,234.226 148.600 C 234.621 147.654,235.260 147.019,236.218 146.618 C 237.182 146.216,237.815 145.583,238.217 144.621 C 238.599 143.706,239.331 142.945,240.310 142.446 C 241.243 141.970,242.077 141.128,242.505 140.230 C 242.885 139.434,243.602 138.627,244.098 138.437 C 245.479 137.909,246.317 136.766,247.195 134.216 C 247.635 132.935,248.158 131.687,248.357 131.444 C 249.944 129.495,249.963 126.097,248.399 124.107 C 247.959 123.549,247.600 122.824,247.600 122.496 C 247.600 119.353,244.155 115.767,240.400 115.000 C 239.630 114.842,238.640 114.385,238.200 113.983 C 236.336 112.282,232.686 112.410,231.176 114.229 C 230.915 114.543,230.470 114.800,230.187 114.800 C 228.482 114.800,225.179 116.592,224.224 118.036 C 223.663 118.884,222.666 119.856,222.008 120.196 C 221.351 120.535,220.529 121.363,220.182 122.035 C 219.835 122.707,218.917 123.630,218.143 124.086 C 217.370 124.543,216.294 125.617,215.753 126.474 C 215.213 127.330,214.334 128.197,213.800 128.400 C 213.266 128.603,212.387 129.470,211.847 130.326 C 211.306 131.183,210.216 132.265,209.426 132.732 C 208.635 133.199,207.831 133.990,207.640 134.490 C 207.254 135.499,206.163 136.550,205.117 136.920 C 204.741 137.053,203.984 137.875,203.433 138.747 C 201.713 141.472,198.260 141.564,196.703 138.925 C 196.252 138.161,195.183 137.094,194.326 136.553 C 193.470 136.013,192.603 135.134,192.400 134.600 C 192.197 134.066,191.330 133.187,190.474 132.647 C 189.617 132.106,188.535 131.016,188.068 130.226 C 187.601 129.435,186.772 128.617,186.225 128.409 C 185.677 128.201,184.774 127.309,184.217 126.427 C 183.660 125.545,182.651 124.536,181.974 124.187 C 181.297 123.837,180.375 122.925,179.924 122.161 C 179.473 121.396,178.585 120.502,177.950 120.174 C 177.316 119.846,176.335 118.880,175.771 118.027 C 174.953 116.792,174.241 116.300,172.272 115.607 C 170.913 115.128,169.530 114.567,169.200 114.360 C 166.911 112.925,164.834 112.366,163.600 112.853 M171.251 116.663 C 172.588 117.196,175.416 119.768,183.250 127.580 C 188.888 133.201,193.838 138.094,194.250 138.452 C 194.663 138.811,195.560 139.756,196.244 140.552 C 197.422 141.923,197.618 142.000,199.940 142.000 L 202.392 142.000 214.696 129.669 C 224.965 119.378,227.315 117.218,228.907 116.612 C 241.263 111.907,250.540 121.094,245.934 133.474 C 245.259 135.288,243.617 137.098,232.781 147.968 L 220.400 160.388 220.400 162.584 C 220.400 164.595,220.521 164.890,221.838 166.090 C 222.630 166.810,223.665 167.846,224.138 168.391 C 224.612 168.936,225.514 169.836,226.143 170.391 C 226.772 170.946,227.672 171.837,228.143 172.370 C 228.614 172.904,229.606 173.894,230.347 174.570 C 231.088 175.247,232.078 176.243,232.547 176.784 C 233.016 177.325,233.928 178.225,234.572 178.784 C 235.217 179.343,236.117 180.237,236.572 180.770 C 237.028 181.304,238.006 182.294,238.748 182.970 C 239.489 183.647,240.389 184.560,240.748 185.000 C 241.106 185.440,242.242 186.610,243.270 187.600 C 252.014 196.016,244.791 212.022,233.336 209.612 C 227.546 208.395,228.145 208.852,214.579 195.300 L 202.066 182.800 200.032 182.800 L 197.998 182.800 185.436 195.305 C 173.893 206.795,172.700 207.866,170.737 208.507 C 160.478 211.858,153.046 207.280,153.032 197.600 C 153.022 191.330,152.951 191.432,167.195 177.211 L 179.600 164.827 179.600 162.573 L 179.600 160.319 167.205 147.896 C 156.443 137.110,154.710 135.205,154.052 133.436 C 149.444 121.048,158.958 111.770,171.251 116.663 M331.898 120.613 C 332.379 120.951,333.049 121.621,333.387 122.102 C 333.724 122.584,334.000 122.750,334.000 122.471 C 334.000 121.813,332.187 120.000,331.529 120.000 C 331.250 120.000,331.416 120.276,331.898 120.613 M133.782 121.382 C 133.242 121.922,132.806 122.597,132.813 122.882 C 132.820 123.167,133.195 122.905,133.646 122.300 C 134.097 121.695,134.660 121.200,134.895 121.200 C 135.131 121.200,134.998 121.560,134.600 122.000 C 134.202 122.440,134.062 122.800,134.289 122.800 C 134.878 122.800,135.493 121.921,135.479 121.100 C 135.462 120.137,134.940 120.223,133.782 121.382 M115.262 212.475 C 115.705 213.644,116.299 214.870,116.584 215.200 C 116.869 215.530,117.547 216.700,118.091 217.800 C 118.636 218.900,119.575 220.790,120.178 222.000 C 120.782 223.210,121.945 225.010,122.762 226.000 C 123.580 226.990,124.824 228.643,125.526 229.673 C 126.228 230.704,127.386 231.951,128.101 232.444 C 128.815 232.938,130.322 234.165,131.448 235.171 C 136.443 239.631,138.317 241.142,139.807 241.905 C 140.683 242.355,141.838 243.192,142.374 243.766 C 142.910 244.340,144.281 245.236,145.422 245.759 C 146.563 246.281,148.194 247.320,149.048 248.068 C 149.902 248.815,151.286 249.934,152.125 250.553 C 154.872 252.581,155.607 255.773,156.004 267.400 C 156.316 276.556,156.324 276.617,157.659 280.027 C 159.707 285.262,160.528 286.224,159.514 282.200 C 158.864 279.624,158.652 277.012,158.422 268.800 C 158.142 258.768,157.909 257.070,156.615 255.601 C 156.324 255.270,155.753 253.932,155.347 252.626 C 154.773 250.783,154.341 250.112,153.418 249.626 C 152.764 249.282,151.412 248.181,150.414 247.179 C 149.212 245.972,147.790 245.058,146.200 244.467 C 144.491 243.833,143.608 243.242,143.132 242.412 C 142.676 241.617,141.952 241.110,140.843 240.812 C 139.791 240.528,138.865 239.907,138.205 239.042 C 137.645 238.308,136.381 237.198,135.396 236.576 C 134.410 235.953,133.499 235.112,133.370 234.707 C 133.242 234.301,132.423 233.519,131.550 232.969 C 129.616 231.748,126.163 228.276,125.383 226.768 C 125.069 226.160,124.253 225.265,123.569 224.778 C 122.885 224.291,122.005 223.152,121.613 222.246 C 121.221 221.341,120.338 220.017,119.650 219.304 C 118.963 218.591,118.400 217.652,118.400 217.217 C 118.400 216.323,115.854 211.509,115.011 210.809 C 114.624 210.488,114.700 210.990,115.262 212.475 M253.013 245.875 C 252.360 245.982,251.237 246.587,250.518 247.218 C 249.799 247.850,248.498 248.558,247.627 248.793 C 246.080 249.209,244.400 250.789,244.400 251.827 C 244.400 252.112,243.857 252.732,243.194 253.204 C 240.916 254.826,240.900 254.938,240.729 270.800 C 240.571 285.479,240.399 287.200,239.095 287.200 C 238.832 287.200,237.950 287.930,237.135 288.822 L 235.653 290.443 203.126 290.265 C 185.237 290.168,169.880 289.982,169.000 289.852 C 168.120 289.723,168.840 290.003,170.600 290.475 C 174.204 291.441,227.153 292.099,234.065 291.263 C 241.281 290.391,241.717 289.299,241.988 271.400 C 242.224 255.816,241.876 257.789,245.287 252.699 C 250.262 245.274,264.622 247.783,266.852 256.466 C 268.559 263.113,267.236 293.081,265.092 296.343 C 262.927 299.636,262.118 304.459,263.518 305.726 C 264.203 306.346,264.229 306.259,264.076 303.859 C 263.927 301.514,263.998 301.252,265.117 300.026 C 267.690 297.210,268.801 288.644,268.799 271.644 C 268.797 254.838,267.348 249.881,262.070 248.615 C 261.481 248.474,260.217 247.803,259.260 247.125 C 257.493 245.874,255.477 245.470,253.013 245.875 M325.600 269.152 C 325.600 269.418,325.140 270.097,324.577 270.659 C 324.015 271.222,323.779 271.607,324.053 271.516 C 324.773 271.276,326.196 269.263,325.873 268.940 C 325.723 268.790,325.600 268.885,325.600 269.152 M310.881 281.727 C 310.422 282.310,310.412 283.600,310.867 283.600 C 311.290 283.600,312.800 282.104,312.800 281.685 C 312.800 281.177,311.288 281.210,310.881 281.727 M162.600 287.600 C 163.683 288.700,164.626 289.600,164.695 289.600 C 165.109 289.600,163.439 287.131,162.554 286.435 C 160.587 284.888,160.614 285.584,162.600 287.600 " stroke="none" fill="#6c6c9c" fill-rule="evenodd"></path></g></svg>