<svg id="svg" version="1.1" xmlns="http://www.w3.org/2000/svg" xmlns:xlink="http://www.w3.org/1999/xlink" width="400" height="400" viewBox="0, 0, 400,400"><g id="svgg"><path id="path0" d="M202.843 69.172 C 202.515 69.375,202.376 69.865,202.505 70.360 C 202.626 70.822,202.562 71.100,202.363 70.977 C 202.163 70.854,202.000 71.213,202.000 71.776 C 202.000 72.753,201.894 72.801,199.700 72.828 C 191.396 72.928,190.153 73.022,189.445 73.600 C 187.867 74.889,186.523 76.229,186.365 76.671 C 186.262 76.961,184.777 77.194,182.378 77.295 C 177.860 77.486,177.748 77.538,177.400 79.602 C 177.214 80.700,176.922 81.208,176.465 81.226 C 170.619 81.452,169.200 82.035,169.200 84.209 C 169.200 85.642,168.502 85.914,165.551 85.630 C 165.041 85.580,164.894 85.966,164.865 87.437 C 164.819 89.714,165.112 89.479,162.000 89.727 C 158.462 90.008,157.276 90.519,156.987 91.886 C 156.574 93.847,156.242 94.136,154.376 94.169 L 152.600 94.200 152.618 95.673 C 152.628 96.483,152.493 97.057,152.318 96.949 C 152.143 96.841,152.000 97.033,152.000 97.376 C 152.000 97.832,151.590 98.000,150.480 98.000 C 148.564 98.000,148.000 98.564,148.000 100.480 C 148.000 101.835,147.891 102.000,147.000 102.000 C 146.450 102.000,146.000 102.210,146.000 102.467 C 146.000 102.723,145.883 102.816,145.740 102.673 C 145.596 102.530,145.236 102.725,144.939 103.106 C 144.427 103.763,144.411 103.763,144.642 103.100 C 144.784 102.691,144.689 102.400,144.413 102.400 C 144.146 102.400,143.971 102.879,144.012 103.500 C 144.163 105.793,144.010 106.400,143.280 106.400 C 142.884 106.400,142.318 106.625,142.021 106.900 C 141.588 107.303,141.542 107.296,141.786 106.866 C 142.007 106.477,141.843 106.369,141.176 106.466 C 140.674 106.540,140.179 106.854,140.077 107.164 C 139.947 107.556,140.096 107.649,140.566 107.468 C 140.965 107.315,141.142 107.371,140.997 107.605 C 140.863 107.822,140.493 108.000,140.176 108.000 C 139.760 108.000,139.591 108.527,139.568 109.900 C 139.551 110.945,139.446 111.575,139.335 111.300 C 139.224 111.025,138.612 110.800,137.976 110.800 C 136.272 110.800,135.664 112.038,135.640 115.557 C 135.615 119.053,135.740 118.867,133.433 118.867 C 131.487 118.867,130.822 119.710,131.306 121.562 C 131.617 122.751,131.000 123.315,129.340 123.359 C 128.023 123.394,127.804 123.527,127.830 124.280 C 127.846 124.764,127.711 125.069,127.530 124.957 C 127.348 124.844,127.200 126.203,127.200 127.976 C 127.200 131.125,127.177 131.200,126.226 131.200 C 124.175 131.200,123.201 131.877,123.355 133.196 C 123.433 133.867,123.341 134.513,123.150 134.631 C 122.959 134.749,122.845 135.870,122.896 137.123 C 122.982 139.209,122.915 139.411,122.095 139.528 C 121.603 139.598,121.200 139.806,121.200 139.990 C 121.200 140.174,120.843 140.232,120.407 140.118 C 119.437 139.864,118.735 141.409,118.839 143.566 C 119.119 149.361,118.804 152.726,118.000 152.516 C 117.490 152.382,117.198 152.505,117.194 152.853 C 117.189 153.279,117.103 153.268,116.805 152.800 C 116.289 151.990,115.049 152.748,114.866 153.985 C 114.768 154.651,114.873 154.804,115.266 154.568 C 115.693 154.311,115.704 154.366,115.319 154.842 C 115.054 155.169,114.855 155.789,114.877 156.218 C 114.899 156.648,114.776 160.629,114.605 165.066 L 114.293 173.131 112.951 173.383 C 111.128 173.725,109.627 177.571,111.300 177.612 C 111.606 177.620,111.552 177.770,111.159 177.999 C 110.598 178.327,110.519 179.643,110.519 188.600 C 110.519 197.557,110.598 198.873,111.159 199.201 C 111.552 199.430,111.606 199.580,111.300 199.588 C 110.703 199.602,110.625 201.445,111.207 201.804 C 111.430 201.942,111.512 202.218,111.389 202.418 C 111.266 202.617,111.832 202.740,112.646 202.690 L 114.128 202.600 114.292 206.400 C 114.439 209.787,114.559 210.287,115.397 211.000 C 116.546 211.978,118.193 215.260,118.568 217.321 C 118.729 218.208,119.127 218.942,119.522 219.082 C 120.774 219.525,121.583 220.500,121.842 221.881 C 122.034 222.904,122.500 223.506,123.680 224.251 C 124.606 224.835,125.503 225.828,125.845 226.646 C 126.167 227.417,127.023 228.394,127.751 228.824 C 128.479 229.253,129.275 230.046,129.521 230.586 C 129.767 231.126,130.707 231.944,131.610 232.405 C 132.519 232.869,133.622 233.870,134.080 234.646 C 134.592 235.513,135.486 236.281,136.418 236.654 C 137.409 237.050,138.096 237.665,138.418 238.444 C 138.956 239.743,139.887 240.400,141.191 240.400 C 141.655 240.400,142.882 241.179,143.917 242.131 C 144.953 243.084,146.820 244.268,148.066 244.764 C 149.749 245.433,150.485 245.983,150.929 246.899 C 151.297 247.659,152.190 248.452,153.255 248.966 C 154.790 249.707,155.052 250.039,155.592 251.929 C 155.926 253.100,156.532 254.243,156.937 254.470 C 158.790 255.505,158.976 256.952,159.106 271.400 C 159.241 286.291,159.263 286.441,161.655 288.602 L 163.216 290.012 174.508 289.906 L 185.800 289.800 185.919 246.200 C 186.053 197.026,186.078 197.796,184.331 197.446 C 183.620 197.304,182.429 196.472,181.458 195.439 C 180.546 194.469,179.223 193.388,178.518 193.037 C 177.813 192.686,176.355 191.517,175.279 190.441 C 174.202 189.364,172.746 188.186,172.044 187.823 C 171.341 187.459,170.600 186.727,170.398 186.196 C 170.178 185.616,169.265 184.864,168.116 184.315 C 166.780 183.677,166.026 183.005,165.626 182.095 C 165.198 181.124,164.674 180.689,163.572 180.393 C 161.884 179.938,161.378 179.450,160.989 177.898 C 160.837 177.294,160.454 176.800,160.137 176.800 C 158.868 176.800,157.236 175.557,156.753 174.222 C 156.452 173.388,155.839 172.665,155.215 172.406 C 153.053 171.511,151.865 163.357,153.183 158.462 C 153.636 156.781,157.351 152.400,158.324 152.400 C 158.559 152.400,159.570 151.691,160.571 150.825 C 163.966 147.887,173.473 148.319,174.681 151.467 C 174.814 151.815,175.892 152.527,177.076 153.051 C 178.536 153.696,179.483 154.433,180.019 155.342 C 180.516 156.184,181.406 156.917,182.413 157.312 C 183.574 157.768,184.173 158.317,184.584 159.301 C 185.028 160.364,185.514 160.768,186.820 161.159 C 188.195 161.571,188.593 161.927,189.090 163.193 C 189.570 164.416,189.953 164.777,190.969 164.968 C 191.730 165.111,192.881 165.868,193.822 166.846 C 198.377 171.577,201.623 171.577,206.178 166.846 C 207.119 165.868,208.270 165.111,209.031 164.968 C 210.047 164.777,210.430 164.416,210.910 163.193 C 211.407 161.927,211.805 161.571,213.180 161.159 C 214.486 160.768,214.972 160.364,215.416 159.301 C 215.827 158.317,216.426 157.768,217.587 157.312 C 218.594 156.917,219.484 156.184,219.981 155.342 C 220.517 154.433,221.464 153.696,222.924 153.051 C 224.108 152.527,225.186 151.815,225.319 151.467 C 226.527 148.319,236.034 147.887,239.429 150.825 C 240.430 151.691,241.441 152.400,241.676 152.400 C 242.649 152.400,246.364 156.781,246.817 158.462 C 248.135 163.357,246.947 171.511,244.785 172.406 C 244.161 172.665,243.548 173.388,243.247 174.222 C 242.764 175.557,241.132 176.800,239.863 176.800 C 239.546 176.800,239.163 177.294,239.011 177.898 C 238.622 179.450,238.116 179.938,236.428 180.393 C 235.326 180.689,234.802 181.124,234.374 182.095 C 233.993 182.962,233.189 183.711,231.978 184.327 C 230.771 184.940,230.005 185.652,229.710 186.434 C 229.422 187.196,228.761 187.824,227.845 188.207 C 227.064 188.533,225.538 189.660,224.454 190.711 C 223.369 191.761,221.968 192.880,221.341 193.197 C 220.713 193.513,219.510 194.538,218.666 195.474 C 217.665 196.585,216.667 197.264,215.796 197.427 C 213.912 197.781,213.943 196.902,214.080 246.600 L 214.200 289.800 224.910 289.907 L 235.619 290.013 236.404 288.683 C 236.835 287.952,237.794 287.065,238.534 286.712 C 240.317 285.862,240.392 285.145,240.397 268.887 C 240.400 254.511,240.546 253.528,242.793 252.680 C 243.462 252.428,244.000 251.931,244.000 251.566 C 244.000 250.338,245.541 248.910,247.362 248.451 C 248.555 248.151,249.230 247.735,249.401 247.197 C 250.292 244.389,258.898 244.394,260.402 247.204 C 260.636 247.642,261.098 248.000,261.427 248.000 C 264.837 248.000,267.594 251.315,268.376 256.353 C 268.594 257.758,269.094 259.262,269.486 259.695 C 270.678 261.011,270.551 281.472,269.328 285.400 C 268.848 286.940,268.339 289.820,268.196 291.800 C 268.053 293.780,267.771 296.120,267.571 297.000 C 267.370 297.880,267.145 299.132,267.072 299.783 C 266.964 300.728,266.683 301.031,265.669 301.294 C 264.419 301.618,264.400 301.659,264.400 304.053 L 264.400 306.484 266.100 306.233 C 267.035 306.094,268.250 305.969,268.800 305.955 C 269.350 305.941,270.060 305.720,270.377 305.465 C 270.831 305.099,270.885 305.113,270.632 305.534 C 270.394 305.929,270.555 306.033,271.256 305.933 C 271.863 305.847,272.180 305.551,272.145 305.104 C 272.115 304.722,272.273 304.521,272.495 304.659 C 272.750 304.816,272.839 304.386,272.736 303.499 L 272.571 302.089 277.628 301.932 C 283.285 301.755,284.222 301.410,284.953 299.236 L 285.400 297.907 288.478 297.779 C 292.347 297.618,293.054 297.249,293.399 295.205 C 293.674 293.579,294.456 293.232,297.089 293.568 C 297.582 293.630,297.908 292.591,297.940 290.855 C 297.963 289.610,297.722 289.698,301.640 289.498 C 305.857 289.282,306.116 289.139,305.926 287.139 C 305.762 285.425,305.945 285.295,308.800 285.081 C 310.282 284.970,310.192 285.152,310.363 281.900 C 310.393 281.334,310.774 281.200,312.356 281.200 C 313.663 281.200,314.305 281.034,314.293 280.700 C 314.282 280.425,314.302 279.468,314.337 278.573 L 314.400 276.945 316.055 277.076 C 318.005 277.231,318.810 276.692,318.791 275.249 C 318.783 274.672,318.891 272.850,319.030 271.200 C 319.277 268.289,319.249 268.155,318.071 266.682 C 315.556 263.533,315.436 258.482,317.811 255.660 C 318.350 255.020,319.182 253.474,319.660 252.225 C 320.563 249.865,321.128 249.383,324.120 248.416 C 324.956 248.146,326.107 247.492,326.679 246.962 C 328.748 245.044,339.600 244.273,339.600 246.044 C 339.600 247.538,342.122 245.961,342.567 244.190 C 342.708 243.627,342.978 243.263,343.168 243.380 C 343.357 243.497,343.538 241.759,343.570 239.516 C 343.636 234.758,343.432 235.167,345.782 235.090 C 347.362 235.038,347.620 234.920,347.462 234.315 C 347.359 233.922,347.416 233.600,347.587 233.600 C 347.759 233.600,347.911 231.708,347.924 229.396 C 347.949 224.982,349.072 222.627,351.163 222.606 C 351.723 222.601,351.814 221.508,351.914 213.506 L 352.027 204.412 353.455 203.026 C 354.240 202.263,355.062 201.579,355.281 201.506 C 355.500 201.433,355.777 200.498,355.898 199.427 C 356.066 197.934,356.001 197.552,355.619 197.788 C 355.240 198.023,355.217 197.916,355.523 197.344 C 356.114 196.239,356.064 179.963,355.467 179.225 C 355.104 178.776,355.112 178.714,355.500 178.947 C 356.143 179.333,356.182 177.041,355.563 175.265 C 355.230 174.312,354.761 173.901,353.615 173.557 L 352.104 173.105 351.897 169.452 C 351.670 165.468,351.393 164.400,350.586 164.400 C 348.596 164.400,348.054 161.551,347.898 150.285 C 347.818 144.472,347.690 143.101,347.200 142.792 C 346.802 142.540,346.768 142.410,347.100 142.406 C 347.794 142.398,347.728 141.004,347.005 140.404 C 346.678 140.133,346.138 140.015,345.805 140.143 C 345.472 140.270,345.200 140.201,345.200 139.987 C 345.200 139.774,344.840 139.600,344.400 139.600 C 343.567 139.600,343.426 138.631,343.549 133.721 C 343.591 132.032,342.968 131.081,342.411 131.982 C 342.191 132.338,342.047 132.299,341.868 131.834 C 341.735 131.485,341.169 131.200,340.613 131.200 C 339.542 131.200,339.382 130.610,339.558 127.300 C 339.611 126.304,339.460 125.993,338.913 125.968 C 338.494 125.950,338.406 125.854,338.700 125.735 C 339.335 125.479,339.347 124.307,338.720 123.680 C 338.061 123.021,336.258 123.038,336.645 123.700 C 336.806 123.975,336.547 123.857,336.069 123.438 C 335.431 122.878,335.200 122.221,335.200 120.962 C 335.200 120.019,334.992 119.119,334.738 118.962 C 334.433 118.773,334.386 118.854,334.600 119.200 C 334.836 119.581,334.771 119.627,334.362 119.368 C 333.712 118.956,333.549 118.917,332.200 118.850 C 331.261 118.803,331.200 118.666,331.200 116.613 C 331.200 115.064,331.054 114.461,330.700 114.547 C 330.425 114.614,330.335 114.593,330.500 114.501 C 331.876 113.731,330.202 110.800,328.386 110.800 C 327.047 110.800,326.484 109.959,326.651 108.213 C 326.764 107.039,326.292 106.418,325.276 106.406 C 324.963 106.402,324.874 106.601,325.053 106.900 C 325.260 107.245,325.145 107.231,324.682 106.855 C 323.453 105.859,322.800 106.581,322.800 108.937 L 322.800 111.099 324.615 111.135 C 325.932 111.161,326.353 111.038,326.151 110.686 C 325.997 110.419,326.026 110.340,326.214 110.512 C 326.703 110.957,326.874 111.988,326.728 113.600 C 326.657 114.370,326.613 117.733,326.629 121.073 L 326.658 127.146 327.889 128.296 C 330.321 130.568,331.045 140.021,330.655 164.400 C 330.364 182.574,330.130 184.366,327.618 187.600 C 327.028 188.360,326.732 189.753,326.384 193.400 C 325.871 198.789,325.291 200.593,323.863 201.244 C 323.013 201.631,322.818 202.121,322.387 204.945 C 321.767 209.013,321.063 210.834,319.608 212.130 C 318.785 212.863,318.335 213.792,317.988 215.473 C 317.392 218.368,316.669 219.805,315.389 220.644 C 314.755 221.059,314.176 222.040,313.791 223.348 C 313.084 225.754,312.924 226.011,311.600 226.859 C 310.945 227.279,310.274 228.422,309.656 230.173 C 308.883 232.360,308.435 233.020,307.191 233.805 C 306.175 234.447,305.583 235.167,305.405 235.978 C 305.131 237.224,303.527 238.800,302.531 238.800 C 302.223 238.800,301.199 239.593,300.258 240.562 C 297.188 243.720,288.302 243.654,286.629 240.461 C 286.326 239.883,285.388 239.207,284.364 238.829 C 282.931 238.299,282.507 237.897,282.007 236.592 C 281.671 235.716,280.741 234.361,279.939 233.580 C 277.250 230.962,277.384 223.436,280.164 220.982 C 280.923 220.312,281.672 219.232,281.828 218.582 C 282.333 216.480,283.149 215.296,284.388 214.864 C 285.196 214.582,285.600 214.173,285.600 213.636 C 285.600 211.716,287.280 208.326,288.623 207.533 C 289.739 206.875,290.004 206.437,290.232 204.873 C 290.656 201.960,291.571 200.036,292.844 199.377 C 294.064 198.746,294.212 198.348,294.618 194.600 C 294.933 191.696,295.619 189.945,296.974 188.590 C 298.216 187.348,298.276 187.085,298.792 180.653 C 299.263 174.774,299.985 171.265,301.291 168.516 C 302.673 165.603,302.693 148.984,301.316 146.794 C 300.120 144.892,299.323 141.189,298.820 135.200 C 298.177 127.543,298.056 126.965,296.971 126.384 C 295.811 125.764,294.920 123.495,294.432 119.920 C 294.119 117.628,293.861 117.034,292.650 115.823 C 291.359 114.532,290.833 113.344,290.219 110.333 C 290.099 109.747,289.292 108.529,288.426 107.627 C 287.559 106.724,286.759 105.674,286.649 105.293 C 286.538 104.912,286.256 103.856,286.021 102.947 C 285.691 101.667,285.316 101.179,284.355 100.781 C 283.482 100.420,282.887 99.737,282.347 98.477 C 281.925 97.493,280.872 96.000,280.007 95.160 C 279.141 94.320,278.072 92.926,277.632 92.062 C 277.191 91.198,276.105 89.917,275.219 89.215 C 274.286 88.476,273.474 87.424,273.291 86.717 C 273.053 85.802,272.631 85.385,271.600 85.048 C 270.710 84.758,269.831 84.010,269.103 82.924 C 268.485 82.002,267.579 81.123,267.089 80.971 C 266.600 80.819,264.973 79.659,263.473 78.392 C 261.973 77.125,260.232 75.986,259.604 75.861 C 258.396 75.619,256.800 74.190,256.800 73.349 C 256.800 73.058,256.008 72.735,254.900 72.575 C 252.497 72.229,248.924 70.579,248.381 69.565 C 247.932 68.726,204.169 68.348,202.843 69.172 M284.080 299.280 C 283.816 299.544,283.600 299.612,283.600 299.431 C 283.600 299.250,283.285 299.349,282.900 299.651 C 282.267 300.148,282.252 300.134,282.745 299.504 C 283.045 299.122,283.481 298.926,283.713 299.070 C 283.987 299.239,284.033 299.062,283.844 298.566 C 283.610 297.951,283.652 297.899,284.056 298.300 C 284.448 298.689,284.453 298.907,284.080 299.280 " stroke="none" fill="#fbe383" fill-rule="evenodd"></path><path id="path1" d="M48.700 10.832 C 48.199 11.124,48.000 11.747,48.000 13.020 L 48.000 14.800 46.047 14.800 C 43.938 14.800,43.618 15.180,43.605 17.700 C 43.600 18.706,43.470 18.800,42.080 18.800 C 39.643 18.800,39.600 18.947,39.600 27.290 L 39.600 34.820 40.555 35.183 C 42.349 35.865,43.537 37.479,43.970 39.821 C 44.500 42.686,44.525 42.719,46.624 43.248 C 48.174 43.638,48.400 43.832,48.400 44.771 C 48.400 46.241,49.139 47.084,50.790 47.498 C 51.962 47.791,52.236 48.080,52.532 49.331 C 52.974 51.199,53.635 51.546,57.361 51.860 L 60.361 52.114 60.480 53.952 C 60.598 55.755,60.630 55.795,62.200 56.072 C 64.240 56.431,70.609 56.469,74.070 56.142 L 76.740 55.890 77.008 53.945 L 77.275 52.000 79.238 52.000 L 81.200 52.000 81.200 50.000 C 81.200 48.086,81.247 48.000,82.300 47.995 C 82.905 47.992,83.809 47.880,84.308 47.746 L 85.216 47.502 85.108 39.456 C 85.006 31.862,84.957 31.402,84.226 31.262 C 82.743 30.976,81.285 29.045,80.983 26.965 C 80.580 24.188,80.192 23.640,78.431 23.359 C 77.011 23.131,76.869 22.990,76.643 21.579 C 76.367 19.852,76.023 19.543,74.018 19.217 C 73.018 19.054,72.574 18.757,72.489 18.194 C 72.162 16.028,71.943 15.658,70.743 15.240 C 70.049 14.998,68.742 14.798,67.840 14.795 C 64.822 14.784,64.400 14.515,64.400 12.596 C 64.400 11.405,64.208 10.812,63.767 10.643 C 62.690 10.229,49.449 10.396,48.700 10.832 M336.100 10.665 C 335.809 10.782,335.600 11.585,335.600 12.587 C 335.600 14.516,335.182 14.784,332.160 14.795 C 331.258 14.798,329.951 14.998,329.257 15.240 C 328.057 15.658,327.838 16.028,327.511 18.194 C 327.426 18.757,326.982 19.054,325.982 19.217 C 323.977 19.543,323.633 19.852,323.357 21.579 C 323.131 22.990,322.989 23.131,321.569 23.359 C 319.808 23.640,319.420 24.188,319.017 26.965 C 318.715 29.045,317.257 30.976,315.774 31.262 C 315.043 31.402,314.994 31.862,314.892 39.456 L 314.784 47.502 315.692 47.746 C 316.191 47.880,317.095 47.992,317.700 47.995 C 318.753 48.000,318.800 48.086,318.800 50.000 L 318.800 52.000 320.762 52.000 L 322.725 52.000 322.992 53.945 L 323.260 55.890 325.930 56.142 C 329.391 56.469,335.760 56.431,337.800 56.072 C 339.370 55.795,339.402 55.755,339.520 53.952 L 339.639 52.114 342.639 51.860 C 346.365 51.546,347.026 51.199,347.468 49.331 C 347.764 48.080,348.038 47.791,349.210 47.498 C 350.861 47.084,351.600 46.241,351.600 44.771 C 351.600 43.832,351.826 43.638,353.376 43.248 C 355.475 42.719,355.500 42.686,356.030 39.821 C 356.463 37.479,357.651 35.865,359.445 35.183 L 360.400 34.820 360.400 27.290 C 360.400 18.947,360.357 18.800,357.920 18.800 C 356.530 18.800,356.400 18.706,356.395 17.700 C 356.382 15.180,356.062 14.800,353.953 14.800 L 352.000 14.800 352.000 13.014 C 352.000 11.658,351.814 11.129,351.226 10.814 C 350.452 10.400,337.083 10.268,336.100 10.665 M190.084 23.170 C 186.022 23.421,185.617 23.665,185.606 25.868 L 185.600 27.136 173.964 27.268 L 162.328 27.400 161.564 28.344 C 161.144 28.864,160.800 29.697,160.800 30.196 C 160.800 31.081,160.676 31.108,155.900 31.274 C 149.783 31.487,148.420 32.074,148.406 34.500 L 148.400 35.600 144.390 35.600 C 140.008 35.600,139.600 35.858,139.600 38.626 C 139.600 39.565,139.495 39.601,136.700 39.640 C 133.052 39.690,131.836 40.024,131.687 41.018 C 131.323 43.431,131.273 43.487,129.205 43.762 C 127.600 43.974,127.200 44.178,127.200 44.783 C 127.200 46.482,124.934 48.000,122.398 48.000 C 119.640 48.000,118.800 48.614,118.800 50.629 C 118.800 51.857,118.685 52.001,117.700 52.005 C 115.180 52.018,114.800 52.338,114.800 54.447 C 114.800 56.391,114.794 56.400,113.476 56.400 C 110.738 56.400,110.616 56.729,110.461 64.531 C 110.281 73.595,110.779 75.748,113.207 76.402 C 114.760 76.820,114.800 76.876,114.800 78.601 C 114.800 81.193,114.835 81.200,127.494 81.200 C 139.767 81.200,139.600 81.234,139.600 78.720 C 139.600 77.223,139.624 77.200,141.139 77.200 C 142.096 77.200,143.021 76.902,143.586 76.412 C 144.086 75.978,144.814 75.522,145.204 75.399 C 145.595 75.275,146.132 74.647,146.398 74.005 C 146.850 72.914,147.047 72.828,149.341 72.718 L 151.800 72.600 151.920 70.738 L 152.041 68.876 155.835 68.738 C 160.071 68.584,160.384 68.389,160.394 65.900 L 160.400 64.400 165.300 64.394 C 171.055 64.387,172.015 64.055,172.526 61.895 L 172.879 60.400 180.140 60.395 C 189.155 60.388,189.090 60.403,189.427 58.158 L 189.691 56.400 199.993 56.400 L 210.295 56.400 210.514 58.033 C 210.817 60.296,210.402 60.187,219.198 60.323 L 227.131 60.446 227.480 61.918 C 227.984 64.053,228.960 64.387,234.700 64.394 L 239.600 64.400 239.600 66.186 C 239.600 68.560,240.134 68.798,245.474 68.807 C 251.914 68.817,256.728 69.957,259.000 72.010 C 259.708 72.650,261.266 73.376,262.800 73.780 C 265.729 74.551,266.349 74.922,267.394 76.527 C 267.797 77.146,268.767 77.956,269.550 78.327 C 270.332 78.697,271.379 79.606,271.877 80.346 C 272.375 81.087,273.372 81.987,274.091 82.346 C 274.873 82.737,275.686 83.609,276.110 84.514 C 276.500 85.346,277.241 86.188,277.757 86.384 C 278.823 86.789,280.400 88.629,280.400 89.467 C 280.400 89.775,281.040 90.405,281.823 90.866 C 282.702 91.385,283.561 92.377,284.071 93.462 C 284.525 94.428,285.358 95.581,285.922 96.025 C 287.176 97.011,288.112 98.507,288.793 100.610 C 289.076 101.484,289.899 102.696,290.622 103.303 C 291.551 104.082,292.200 105.198,292.834 107.103 C 293.360 108.685,294.185 110.225,294.831 110.828 C 295.436 111.393,296.136 112.653,296.387 113.628 C 297.555 118.162,298.037 119.529,298.536 119.720 C 299.507 120.093,300.359 122.586,301.033 127.029 C 301.539 130.369,301.961 131.824,302.821 133.200 C 304.771 136.317,305.000 138.878,305.000 157.600 C 305.000 176.263,304.780 178.726,302.806 182.200 C 301.965 183.681,301.505 185.324,301.032 188.532 C 300.356 193.124,300.050 194.005,298.581 195.600 C 298.009 196.221,297.345 197.889,296.830 200.000 C 296.175 202.685,295.745 203.633,294.785 204.508 C 293.974 205.248,293.295 206.502,292.747 208.276 C 292.155 210.194,291.494 211.364,290.378 212.468 C 289.477 213.361,288.651 214.668,288.400 215.600 C 288.131 216.600,287.512 217.536,286.749 218.099 C 283.769 220.299,282.655 227.374,284.423 232.872 L 285.289 235.564 287.944 236.464 C 291.602 237.704,295.800 237.672,298.800 236.381 C 301.253 235.325,301.464 235.118,303.251 232.000 C 303.944 230.790,305.094 229.260,305.806 228.600 C 306.518 227.940,307.402 226.560,307.771 225.532 C 308.140 224.505,308.860 223.391,309.372 223.055 C 309.956 222.672,310.714 221.317,311.410 219.409 C 312.065 217.613,312.943 216.010,313.559 215.486 C 314.522 214.668,315.541 212.142,316.177 209.000 C 316.311 208.340,317.035 207.023,317.787 206.072 C 318.717 204.897,319.292 203.618,319.584 202.072 C 320.396 197.770,321.231 195.106,322.159 193.855 C 323.193 192.460,324.000 189.621,324.000 187.374 C 324.000 184.586,325.258 177.393,326.268 174.400 C 328.381 168.145,328.496 145.708,326.437 141.672 C 325.561 139.956,324.646 135.318,324.213 130.400 C 323.791 125.599,323.134 122.688,322.184 121.400 C 319.618 117.921,319.401 109.030,321.830 106.893 C 323.757 105.197,322.816 98.409,320.651 98.394 C 319.188 98.383,318.925 97.892,318.636 94.631 C 318.280 90.625,317.986 90.080,316.099 89.924 L 314.600 89.800 314.479 87.700 L 314.358 85.600 312.419 85.600 L 310.480 85.600 310.340 81.968 C 310.186 77.980,309.733 77.200,307.570 77.200 C 306.426 77.200,306.016 76.444,306.005 74.314 C 306.000 73.315,305.841 73.206,304.020 72.965 L 302.040 72.702 301.920 70.851 L 301.800 69.000 299.921 68.879 L 298.042 68.758 297.921 66.879 L 297.800 65.000 295.720 64.880 L 293.640 64.760 293.520 62.680 L 293.400 60.600 291.521 60.479 L 289.642 60.358 289.521 58.479 L 289.400 56.600 287.300 56.479 L 285.200 56.358 285.200 54.422 C 285.200 52.294,284.887 52.000,282.620 52.000 C 281.381 52.000,281.293 51.905,281.083 50.342 C 280.817 48.359,280.364 48.015,278.000 48.004 C 276.423 47.996,276.115 47.846,275.519 46.797 C 275.144 46.139,274.379 45.391,273.819 45.136 C 273.258 44.880,272.800 44.527,272.800 44.350 C 272.800 44.172,271.898 43.908,270.795 43.762 C 268.727 43.487,268.677 43.431,268.313 41.018 C 268.165 40.028,266.949 39.690,263.353 39.640 L 260.505 39.600 260.283 37.942 C 259.991 35.767,259.663 35.613,255.300 35.606 C 251.718 35.600,251.600 35.571,251.600 34.689 C 251.600 32.227,250.112 31.601,243.400 31.238 C 239.293 31.016,238.992 30.943,238.878 30.142 C 238.520 27.633,236.408 27.200,224.540 27.200 L 214.400 27.200 214.400 26.000 C 214.400 23.037,206.711 22.142,190.084 23.170 M151.700 33.930 C 151.425 34.104,150.917 34.597,150.570 35.024 C 150.224 35.451,150.072 35.530,150.233 35.200 C 150.731 34.176,151.279 33.600,151.749 33.606 C 152.044 33.610,152.027 33.722,151.700 33.930 M86.431 85.972 C 86.119 86.170,85.759 87.109,85.631 88.059 C 85.413 89.691,85.316 89.801,83.896 90.031 C 81.771 90.376,81.286 91.550,81.224 96.500 C 81.201 98.316,81.150 98.400,80.062 98.400 C 77.911 98.400,77.490 99.431,77.281 105.204 L 77.094 110.400 75.647 110.406 C 73.067 110.417,73.022 110.527,72.860 117.183 L 72.713 123.200 71.170 123.200 C 68.703 123.200,68.798 121.840,68.817 156.674 C 68.837 193.284,68.830 193.200,71.815 193.200 C 72.648 193.200,72.686 193.399,72.914 199.029 C 73.178 205.536,73.359 206.000,75.635 206.000 L 77.172 206.000 77.286 210.100 L 77.400 214.200 79.300 214.322 L 81.200 214.444 81.200 217.989 C 81.200 222.687,81.258 222.800,83.643 222.800 L 85.600 222.800 85.600 226.520 C 85.600 230.741,85.843 231.200,88.080 231.200 L 89.600 231.200 89.600 233.200 L 89.600 235.200 91.563 235.200 L 93.525 235.200 93.811 239.012 C 94.124 243.185,94.392 243.600,96.774 243.600 C 97.903 243.600,98.000 243.708,98.000 244.967 C 98.000 246.900,98.356 247.599,99.343 247.605 C 101.141 247.617,102.000 248.075,102.000 249.021 C 102.000 251.235,102.660 252.000,104.568 252.000 L 106.356 252.000 106.478 253.900 L 106.600 255.800 108.391 256.000 C 110.152 256.197,110.187 256.229,110.479 257.955 C 110.847 260.120,110.772 260.050,112.980 260.299 C 114.636 260.486,114.800 260.601,114.800 261.576 C 114.800 263.702,115.601 264.186,119.368 264.341 L 122.800 264.482 122.800 265.867 C 122.800 268.155,123.375 268.800,125.414 268.800 L 127.200 268.800 127.200 283.010 L 127.200 297.220 128.226 297.610 C 128.790 297.824,129.690 298.000,130.226 298.000 C 131.181 298.000,131.200 298.066,131.200 301.367 C 131.200 305.453,131.381 305.998,132.743 306.005 C 135.122 306.018,135.552 306.359,135.680 308.341 L 135.800 310.200 137.679 310.321 L 139.558 310.442 139.679 312.321 L 139.800 314.200 141.900 314.321 C 143.995 314.442,144.000 314.445,144.000 315.792 C 144.000 317.514,144.892 318.400,146.624 318.400 L 147.991 318.400 148.096 335.100 L 148.200 351.800 150.100 351.922 L 152.000 352.044 152.017 353.722 C 152.063 358.110,153.033 360.000,155.241 360.000 C 156.197 360.000,156.362 360.193,156.596 361.577 C 156.967 363.773,157.581 364.121,161.429 364.323 L 164.800 364.500 164.800 366.404 C 164.800 368.973,162.088 368.789,200.000 368.789 C 237.983 368.789,235.200 368.982,235.200 366.353 L 235.200 364.400 237.500 364.398 C 241.536 364.394,242.725 363.852,243.246 361.782 C 243.624 360.280,243.849 360.000,244.674 360.000 C 246.909 360.000,248.000 357.895,248.000 353.580 C 248.000 352.017,248.016 352.000,249.520 352.000 C 252.104 352.000,252.000 352.805,252.000 332.720 L 252.000 314.400 255.500 314.394 C 259.651 314.387,259.993 314.220,260.283 312.058 C 260.486 310.541,260.605 310.400,261.679 310.400 C 263.750 310.400,264.400 309.776,264.400 307.786 C 264.400 306.172,264.308 306.000,263.449 306.000 C 260.657 306.000,260.767 297.295,263.595 294.466 C 265.474 292.587,265.659 290.460,265.523 272.279 L 265.400 255.957 263.700 254.545 C 262.765 253.769,262.000 252.883,262.000 252.577 C 262.000 249.436,248.178 249.989,247.156 253.171 C 246.903 253.957,246.467 255.050,246.186 255.600 C 243.484 260.891,243.640 259.867,243.475 273.400 C 243.232 293.294,243.745 292.754,225.082 292.782 L 213.564 292.800 212.608 291.845 C 211.138 290.374,211.154 290.980,211.281 242.782 C 211.412 192.644,211.241 195.893,213.819 194.719 C 214.356 194.474,215.145 193.682,215.572 192.958 C 215.998 192.235,217.076 191.272,217.966 190.818 C 218.855 190.364,219.869 189.440,220.218 188.765 C 220.567 188.089,221.426 187.295,222.127 187.000 C 223.519 186.412,225.200 184.987,225.200 184.395 C 225.200 184.189,225.710 183.757,226.332 183.435 C 226.955 183.113,228.688 181.741,230.183 180.386 C 231.678 179.032,233.409 177.746,234.030 177.530 C 234.651 177.313,235.531 176.505,235.986 175.733 C 236.520 174.829,237.384 174.106,238.416 173.701 C 239.489 173.279,240.096 172.758,240.256 172.117 C 240.388 171.592,241.273 170.005,242.222 168.590 C 244.008 165.925,244.123 165.582,244.046 163.138 C 244.013 162.091,243.596 161.192,242.577 159.972 C 241.794 159.036,241.051 157.755,240.925 157.126 C 240.646 155.728,240.644 155.728,237.200 154.773 C 232.370 153.435,226.439 154.347,224.923 156.661 C 224.585 157.177,223.067 158.425,221.550 159.433 C 220.034 160.441,218.608 161.612,218.382 162.034 C 218.156 162.456,217.123 163.233,216.086 163.762 C 215.049 164.290,214.020 165.145,213.800 165.661 C 213.580 166.178,212.590 167.030,211.600 167.555 C 210.610 168.081,209.436 169.071,208.992 169.755 C 208.548 170.440,207.520 171.313,206.709 171.695 C 205.897 172.078,205.025 172.798,204.770 173.295 C 203.099 176.557,196.901 176.557,195.230 173.295 C 194.975 172.798,194.103 172.078,193.291 171.695 C 192.480 171.313,191.452 170.440,191.008 169.755 C 190.564 169.071,189.390 168.081,188.400 167.555 C 187.410 167.030,186.420 166.178,186.200 165.661 C 185.980 165.145,184.951 164.290,183.914 163.762 C 182.877 163.233,181.844 162.456,181.618 162.034 C 181.392 161.612,179.966 160.441,178.450 159.433 C 176.933 158.425,175.415 157.177,175.077 156.661 C 173.561 154.347,167.630 153.435,162.800 154.773 C 159.356 155.728,159.354 155.728,159.075 157.126 C 158.949 157.755,158.206 159.036,157.423 159.972 C 156.404 161.192,155.987 162.091,155.954 163.138 C 155.877 165.582,155.992 165.925,157.778 168.590 C 158.727 170.005,159.612 171.592,159.744 172.117 C 159.904 172.758,160.511 173.279,161.584 173.701 C 162.616 174.106,163.480 174.829,164.014 175.733 C 164.476 176.518,165.363 177.318,166.024 177.548 C 166.674 177.775,168.150 178.841,169.303 179.917 C 170.456 180.993,172.136 182.279,173.036 182.774 C 173.936 183.270,174.982 184.201,175.362 184.843 C 175.741 185.485,176.756 186.369,177.617 186.809 C 178.479 187.248,179.462 188.147,179.803 188.806 C 180.144 189.465,181.086 190.318,181.897 190.702 C 182.708 191.086,183.790 192.022,184.302 192.783 C 184.813 193.543,185.751 194.384,186.384 194.650 C 188.711 195.628,188.590 193.132,188.722 242.800 C 188.808 275.168,188.715 289.040,188.405 290.102 C 187.596 292.873,187.645 292.865,172.932 292.725 C 158.784 292.590,158.060 292.480,157.385 290.353 C 157.250 289.927,156.433 288.762,155.570 287.765 C 154.706 286.767,153.971 285.917,153.935 285.876 C 153.899 285.834,153.759 279.050,153.623 270.800 C 153.332 253.107,153.359 253.243,149.673 251.163 C 148.434 250.464,146.935 249.372,146.342 248.738 C 145.749 248.104,144.257 247.139,143.024 246.594 C 141.641 245.982,140.616 245.234,140.344 244.638 C 140.085 244.068,139.220 243.411,138.235 243.035 C 136.667 242.436,133.041 239.582,129.400 236.080 C 128.520 235.234,127.232 234.149,126.538 233.670 C 125.844 233.191,124.781 231.945,124.177 230.900 C 123.572 229.855,122.399 228.254,121.569 227.342 C 120.251 225.893,119.209 223.599,119.202 222.131 C 119.201 221.873,118.751 221.127,118.201 220.475 C 115.820 217.644,114.859 214.839,114.560 209.843 C 114.341 206.174,114.164 205.205,113.744 205.366 C 112.935 205.676,111.094 203.649,111.338 202.717 C 111.475 202.192,111.374 202.001,111.027 202.134 C 110.647 202.280,110.451 201.527,110.275 199.247 C 109.966 195.229,109.807 194.894,107.959 194.340 C 106.413 193.877,106.400 193.856,106.397 191.837 C 106.390 187.833,105.952 185.600,105.175 185.600 C 104.783 185.600,103.918 185.056,103.254 184.392 L 102.046 183.184 101.999 169.692 C 101.973 162.271,101.962 150.575,101.976 143.700 L 102.000 131.200 103.500 131.194 C 105.958 131.184,105.993 131.101,106.271 124.671 L 106.525 118.800 107.982 118.800 C 110.150 118.800,110.400 118.318,110.400 114.142 L 110.400 110.444 112.300 110.322 L 114.200 110.200 114.298 101.200 C 114.410 90.909,114.276 90.275,111.939 90.079 C 110.583 89.965,110.479 89.857,110.230 88.299 C 109.781 85.489,110.282 85.599,98.051 85.606 C 91.973 85.609,86.744 85.774,86.431 85.972 M1.300 139.889 C -0.402 140.101,-0.551 141.463,1.100 141.713 L 2.200 141.880 1.100 141.940 L 0.000 142.000 -0.000 154.173 L -0.000 166.347 1.100 166.513 L 2.200 166.680 1.100 166.740 C -1.340 166.873,-0.255 168.310,2.500 168.594 C 7.723 169.133,48.910 168.646,50.110 168.031 C 51.722 167.205,51.800 166.549,51.800 153.800 C 51.800 140.503,51.841 140.690,48.784 140.034 C 46.865 139.622,4.491 139.493,1.300 139.889 M350.902 140.066 C 347.033 140.932,346.733 150.527,350.297 159.400 C 351.260 161.798,351.820 163.935,351.972 165.800 L 352.200 168.600 373.600 168.720 C 397.342 168.852,400.000 168.739,400.000 167.595 C 400.000 167.093,399.645 166.799,398.900 166.687 L 397.800 166.520 398.900 166.460 L 400.000 166.400 400.000 154.227 L 400.000 142.053 398.900 141.887 L 397.800 141.720 398.900 141.660 C 400.918 141.550,400.334 140.154,398.144 139.854 C 395.208 139.452,352.795 139.642,350.902 140.066 M49.515 165.278 C 49.194 165.761,48.722 166.226,48.467 166.311 C 48.211 166.396,48.406 166.004,48.901 165.440 C 50.006 164.179,50.295 164.103,49.515 165.278 M62.000 243.953 C 60.662 244.189,60.595 244.281,60.480 246.043 L 60.361 247.886 57.361 248.140 C 53.635 248.454,52.974 248.801,52.532 250.669 C 52.236 251.920,51.962 252.209,50.790 252.502 C 49.139 252.916,48.400 253.759,48.400 255.229 C 48.400 256.168,48.174 256.362,46.624 256.752 C 44.525 257.281,44.500 257.314,43.970 260.179 C 43.537 262.521,42.349 264.135,40.555 264.817 L 39.600 265.180 39.600 272.710 C 39.600 281.053,39.643 281.200,42.080 281.200 C 43.470 281.200,43.600 281.294,43.605 282.300 C 43.618 284.820,43.938 285.200,46.047 285.200 L 48.000 285.200 48.000 286.986 C 48.000 289.481,48.380 289.600,56.341 289.600 C 64.483 289.600,64.400 289.623,64.400 287.404 C 64.400 285.485,64.822 285.216,67.840 285.205 C 68.742 285.202,70.049 285.002,70.743 284.760 C 71.943 284.342,72.162 283.972,72.489 281.806 C 72.574 281.243,73.018 280.946,74.018 280.783 C 76.023 280.457,76.367 280.148,76.643 278.421 C 76.869 277.010,77.011 276.869,78.431 276.641 C 80.192 276.360,80.580 275.812,80.983 273.035 C 81.285 270.955,82.743 269.024,84.226 268.738 C 84.957 268.598,85.006 268.138,85.108 260.544 L 85.216 252.498 84.308 252.254 C 83.809 252.120,82.905 252.008,82.300 252.005 C 81.247 252.000,81.200 251.914,81.200 250.000 L 81.200 248.000 79.238 248.000 L 77.275 248.000 77.008 246.055 L 76.740 244.110 74.070 243.858 C 70.860 243.555,63.945 243.609,62.000 243.953 M335.800 249.221 C 333.820 249.892,330.946 250.552,329.412 250.686 C 326.633 250.930,326.617 250.938,324.112 253.443 C 321.242 256.314,321.529 254.801,321.599 266.700 L 321.635 272.800 320.418 272.800 C 317.995 272.800,319.024 276.234,321.569 276.641 C 322.989 276.869,323.131 277.010,323.357 278.421 C 323.633 280.148,323.977 280.457,325.982 280.783 C 326.982 280.946,327.426 281.243,327.511 281.806 C 327.838 283.972,328.057 284.342,329.257 284.760 C 329.951 285.002,331.258 285.202,332.160 285.205 C 335.178 285.216,335.600 285.485,335.600 287.404 C 335.600 289.623,335.517 289.600,343.659 289.600 C 351.620 289.600,352.000 289.481,352.000 286.986 L 352.000 285.200 353.953 285.200 C 356.062 285.200,356.382 284.820,356.395 282.300 C 356.400 281.294,356.530 281.200,357.920 281.200 C 360.357 281.200,360.400 281.053,360.400 272.710 L 360.400 265.180 359.445 264.817 C 357.651 264.135,356.463 262.521,356.030 260.179 C 355.500 257.314,355.475 257.281,353.376 256.752 C 351.826 256.362,351.600 256.168,351.600 255.229 C 351.600 253.759,350.861 252.916,349.210 252.502 C 348.038 252.209,347.764 251.920,347.468 250.669 C 346.794 247.817,341.777 247.195,335.800 249.221 M222.800 324.965 L 222.800 331.130 221.195 331.401 C 219.421 331.701,218.800 332.472,218.800 334.374 C 218.800 335.527,218.709 335.600,217.280 335.600 C 215.364 335.600,214.800 336.164,214.800 338.080 L 214.800 339.600 200.000 339.600 L 185.200 339.600 185.200 338.080 C 185.200 336.164,184.636 335.600,182.720 335.600 C 181.291 335.600,181.200 335.527,181.200 334.374 C 181.200 332.473,180.597 331.734,178.815 331.449 L 177.200 331.191 177.200 324.995 L 177.200 318.800 200.000 318.800 L 222.800 318.800 222.800 324.965 " stroke="none" fill="#1b1b3c" fill-rule="evenodd"></path><path id="path2" d="M248.611 69.217 C 248.741 69.428,249.012 69.600,249.214 69.600 C 249.415 69.600,250.709 70.113,252.090 70.740 C 253.470 71.367,255.064 71.993,255.631 72.130 C 256.198 72.268,257.115 72.801,257.669 73.314 C 258.223 73.827,260.046 74.863,261.720 75.617 C 263.415 76.380,264.966 77.364,265.220 77.836 C 265.470 78.304,266.393 79.117,267.271 79.643 C 268.149 80.169,269.077 80.847,269.334 81.149 C 269.590 81.452,270.406 82.286,271.146 83.004 C 271.886 83.722,272.876 84.702,273.346 85.183 C 273.816 85.664,275.024 86.899,276.032 87.929 C 277.040 88.958,278.249 90.441,278.718 91.225 C 279.188 92.009,279.984 92.877,280.486 93.155 C 280.989 93.433,281.846 94.569,282.391 95.679 C 282.936 96.789,283.992 98.351,284.739 99.149 C 285.485 99.947,286.505 101.500,287.005 102.600 C 287.505 103.700,288.364 105.019,288.915 105.531 C 289.466 106.043,290.489 107.977,291.188 109.829 C 291.887 111.681,292.791 113.428,293.196 113.713 C 293.861 114.178,294.700 116.407,295.942 121.006 C 296.181 121.889,296.817 123.210,297.356 123.941 C 298.430 125.396,298.823 126.879,299.810 133.200 C 300.171 135.510,300.886 138.663,301.399 140.206 C 303.932 147.828,303.937 168.616,301.406 175.349 C 300.899 176.697,300.194 179.690,299.838 182.000 C 298.914 187.997,298.391 190.062,297.505 191.200 C 296.456 192.549,295.764 194.282,295.209 196.957 C 294.934 198.280,294.160 200.041,293.308 201.279 C 292.518 202.428,291.642 204.131,291.361 205.062 C 290.674 207.346,290.124 208.332,288.566 210.075 C 287.840 210.886,287.023 212.298,286.749 213.212 C 286.461 214.175,285.610 215.481,284.726 216.319 C 283.887 217.114,283.200 217.916,283.200 218.101 C 283.200 218.286,282.366 220.152,281.346 222.248 C 279.281 226.493,279.089 229.585,280.746 231.935 C 281.159 232.521,281.973 233.944,282.554 235.097 C 283.440 236.856,284.001 237.403,286.039 238.497 C 287.374 239.214,289.080 240.129,289.828 240.531 C 291.687 241.528,295.001 241.545,296.845 240.567 C 303.381 237.101,303.165 237.263,304.952 234.490 C 305.906 233.010,307.056 231.471,307.509 231.068 C 307.962 230.666,308.725 229.371,309.204 228.190 C 309.684 227.009,310.488 225.772,310.992 225.442 C 311.509 225.103,312.453 223.532,313.161 221.832 C 313.850 220.177,314.835 218.402,315.349 217.887 C 315.863 217.373,316.691 215.703,317.188 214.176 C 317.686 212.649,318.696 210.500,319.434 209.400 C 320.345 208.042,321.041 206.245,321.605 203.800 C 322.077 201.753,322.867 199.576,323.435 198.753 C 324.651 196.994,325.000 195.772,325.780 190.552 C 326.428 186.215,326.426 186.224,327.812 182.600 C 330.953 174.388,330.613 139.243,327.317 131.405 C 326.619 129.744,326.129 127.414,325.721 123.805 C 324.879 116.359,325.099 117.044,322.976 115.248 C 322.428 114.786,322.358 114.110,322.542 111.048 L 322.760 107.400 322.249 111.000 C 321.702 114.850,321.892 116.118,323.306 118.048 C 323.787 118.705,324.297 120.570,324.674 123.048 C 325.005 125.221,325.980 129.891,326.841 133.425 C 330.036 146.543,330.111 171.429,326.983 181.328 C 326.437 183.059,325.715 186.213,325.380 188.338 C 324.642 193.026,323.838 195.951,322.810 197.694 C 322.385 198.414,321.588 200.683,321.038 202.736 C 320.489 204.789,319.512 207.308,318.866 208.334 C 318.221 209.360,317.301 211.404,316.822 212.876 C 316.343 214.348,315.444 216.190,314.825 216.969 C 314.205 217.748,313.289 219.424,312.788 220.693 C 312.287 221.962,311.384 223.540,310.781 224.200 C 310.178 224.860,309.216 226.338,308.643 227.485 C 308.070 228.632,307.082 230.162,306.448 230.885 C 305.813 231.608,304.765 233.100,304.120 234.200 C 300.885 239.714,293.872 241.315,287.200 238.062 C 282.635 235.837,279.820 229.547,281.387 225.074 C 282.997 220.479,284.135 218.133,285.400 216.800 C 286.131 216.030,287.004 214.728,287.341 213.906 C 287.678 213.084,288.588 211.582,289.363 210.567 C 290.138 209.552,291.149 207.713,291.610 206.481 C 292.071 205.248,292.985 203.511,293.641 202.620 C 294.297 201.729,295.300 199.470,295.871 197.600 C 296.441 195.730,297.411 193.300,298.027 192.200 C 298.769 190.873,299.433 188.663,300.001 185.632 C 300.471 183.119,301.286 179.699,301.811 178.032 C 304.740 168.736,304.689 146.449,301.717 137.020 C 301.166 135.271,300.379 131.944,299.969 129.626 C 299.438 126.621,298.827 124.654,297.839 122.769 C 297.078 121.315,296.158 118.980,295.795 117.581 C 295.060 114.744,294.350 113.189,293.450 112.442 C 293.119 112.167,292.363 110.650,291.771 109.071 C 291.179 107.492,290.187 105.660,289.568 105.000 C 288.948 104.340,288.056 102.928,287.585 101.862 C 287.114 100.796,286.147 99.266,285.437 98.462 C 284.726 97.658,283.721 96.280,283.202 95.400 C 282.683 94.520,281.468 92.900,280.503 91.800 C 276.761 87.537,274.562 85.127,273.640 84.281 C 273.112 83.796,271.725 82.500,270.557 81.400 C 266.151 77.249,264.503 76.027,261.409 74.617 C 259.658 73.819,257.950 72.919,257.613 72.616 C 256.634 71.738,248.200 68.554,248.611 69.217 M162.931 151.343 C 162.309 151.862,160.957 152.656,159.927 153.109 C 158.684 153.655,157.725 154.448,157.079 155.466 C 156.542 156.310,155.735 157.330,155.284 157.733 C 152.876 159.886,153.295 170.094,155.832 171.067 C 156.156 171.192,156.877 172.072,157.435 173.023 C 158.035 174.048,159.161 175.170,160.197 175.777 C 161.160 176.341,162.058 177.152,162.193 177.579 C 162.329 178.006,163.327 178.902,164.411 179.569 C 165.495 180.236,166.611 181.155,166.891 181.612 C 167.171 182.069,168.300 182.998,169.400 183.676 C 171.413 184.918,174.573 187.555,177.817 190.700 C 178.781 191.635,179.773 192.400,180.021 192.400 C 180.269 192.400,181.340 193.255,182.401 194.300 C 183.461 195.345,184.840 196.587,185.464 197.061 L 186.600 197.922 186.708 243.572 C 186.783 275.048,186.685 289.467,186.394 290.011 C 185.989 290.768,185.511 290.800,174.763 290.800 C 160.629 290.800,160.625 290.799,158.792 287.276 L 157.400 284.600 157.169 272.000 C 156.941 259.604,156.919 259.345,155.825 256.000 C 154.288 251.304,153.885 250.643,151.821 249.433 C 150.827 248.851,149.817 248.005,149.574 247.552 C 149.332 247.099,147.783 246.088,146.132 245.304 C 144.481 244.520,142.921 243.523,142.665 243.090 C 142.409 242.656,141.498 241.980,140.641 241.588 C 139.161 240.911,137.553 239.615,132.436 234.970 C 131.206 233.854,129.608 232.532,128.884 232.032 C 128.160 231.532,126.825 230.105,125.917 228.861 C 125.009 227.618,123.711 226.049,123.033 225.375 C 122.355 224.702,121.290 223.140,120.668 221.906 C 120.045 220.671,119.254 219.553,118.911 219.421 C 118.386 219.220,118.369 219.281,118.806 219.807 C 119.092 220.151,119.758 221.370,120.286 222.516 C 120.815 223.662,121.843 225.230,122.572 226.000 C 123.300 226.770,124.505 228.322,125.249 229.448 C 125.994 230.574,127.502 232.175,128.601 233.006 C 129.701 233.836,131.423 235.254,132.428 236.158 C 136.398 239.723,138.464 241.410,139.508 241.940 C 140.109 242.244,141.140 242.993,141.800 243.605 C 142.460 244.216,143.990 245.204,145.200 245.801 C 146.410 246.398,147.877 247.333,148.459 247.879 C 149.042 248.425,150.391 249.443,151.458 250.141 C 154.986 252.449,155.287 253.905,155.601 270.200 C 155.878 284.620,155.821 284.215,158.116 288.000 C 160.186 291.415,160.035 291.381,173.669 291.531 C 185.241 291.659,185.559 291.641,186.369 290.831 L 187.200 290.000 187.200 243.782 L 187.200 197.564 186.220 196.682 C 183.287 194.044,181.130 192.154,178.800 190.181 C 177.370 188.970,175.270 187.153,174.133 186.144 C 172.997 185.135,171.446 183.925,170.687 183.455 C 169.341 182.621,167.612 181.189,162.775 176.900 C 161.473 175.745,160.232 174.800,160.018 174.800 C 159.805 174.800,158.903 173.765,158.015 172.500 C 157.126 171.235,155.995 169.692,155.500 169.071 C 154.707 168.075,154.600 167.483,154.600 164.071 L 154.600 160.200 156.696 157.373 C 162.064 150.132,170.160 149.826,178.041 156.565 C 179.229 157.581,181.339 159.354,182.731 160.506 C 184.124 161.658,186.009 163.294,186.921 164.142 C 187.832 164.990,189.327 166.199,190.241 166.828 C 191.156 167.457,192.009 168.246,192.137 168.581 C 192.266 168.916,193.260 169.736,194.346 170.405 C 195.432 171.073,196.613 172.066,196.970 172.610 C 197.937 174.086,202.063 174.086,203.030 172.610 C 203.387 172.066,204.568 171.073,205.654 170.405 C 206.740 169.736,207.734 168.916,207.863 168.581 C 207.991 168.246,208.844 167.457,209.759 166.828 C 210.673 166.199,212.168 164.990,213.079 164.142 C 213.991 163.294,215.876 161.658,217.269 160.506 C 218.661 159.354,220.771 157.581,221.959 156.565 C 229.840 149.826,237.936 150.132,243.304 157.373 L 245.400 160.200 245.400 164.071 C 245.400 167.483,245.293 168.075,244.500 169.071 C 244.005 169.692,242.874 171.235,241.985 172.500 C 241.097 173.765,240.195 174.800,239.982 174.800 C 239.768 174.800,238.533 175.745,237.238 176.900 C 235.942 178.055,233.582 180.080,231.992 181.400 C 230.402 182.720,228.211 184.570,227.124 185.512 C 226.036 186.453,224.454 187.661,223.608 188.195 C 222.761 188.729,221.828 189.509,221.534 189.928 C 221.240 190.347,220.350 191.130,219.556 191.669 C 218.763 192.207,217.400 193.357,216.528 194.224 C 215.657 195.091,214.461 196.224,213.872 196.742 L 212.800 197.684 212.800 243.842 C 212.800 289.467,212.809 290.009,213.600 290.800 C 214.782 291.982,234.462 292.017,237.000 290.842 C 241.645 288.691,242.000 287.398,242.000 272.633 C 242.000 259.606,242.283 256.861,243.797 255.200 C 244.298 254.650,244.982 253.660,245.316 253.000 C 248.164 247.377,258.771 246.855,263.856 252.088 C 267.166 255.495,266.984 254.444,267.132 271.000 C 267.293 289.129,266.782 294.374,264.618 296.785 C 263.789 297.709,263.084 302.275,263.445 304.384 C 263.749 306.162,263.761 306.134,264.021 303.000 C 264.229 300.509,264.571 299.262,265.566 297.373 C 267.558 293.595,267.795 290.977,267.794 272.800 C 267.793 259.373,267.691 256.347,267.196 255.122 C 266.227 252.718,263.094 249.767,260.482 248.796 C 259.227 248.329,257.775 247.672,257.255 247.335 C 255.670 246.308,252.892 246.972,247.200 249.741 C 246.650 250.008,245.614 251.121,244.897 252.213 C 244.181 253.306,243.412 254.261,243.189 254.336 C 241.600 254.869,241.403 256.572,241.292 270.800 C 241.162 287.402,241.018 288.019,236.750 290.226 C 234.773 291.248,214.164 291.054,213.604 290.008 C 212.720 288.356,213.262 198.236,214.162 197.242 C 214.581 196.779,215.154 196.400,215.435 196.400 C 215.716 196.400,216.610 195.590,217.421 194.600 C 218.233 193.610,219.148 192.800,219.455 192.800 C 219.762 192.800,220.775 192.014,221.707 191.054 C 222.638 190.094,224.120 188.859,225.000 188.310 C 225.880 187.762,227.140 186.772,227.800 186.111 C 228.460 185.449,229.774 184.357,230.719 183.684 C 231.665 183.010,232.789 182.013,233.218 181.469 C 233.646 180.924,234.796 180.010,235.772 179.438 C 236.748 178.865,237.661 178.039,237.800 177.600 C 237.939 177.161,238.840 176.341,239.803 175.777 C 240.839 175.170,241.965 174.048,242.565 173.023 C 243.123 172.072,243.844 171.192,244.168 171.067 C 246.705 170.094,247.124 159.886,244.716 157.733 C 244.265 157.330,243.458 156.310,242.921 155.466 C 242.275 154.448,241.316 153.655,240.073 153.109 C 239.043 152.656,237.691 151.862,237.069 151.343 C 235.544 150.071,231.294 149.994,229.194 151.200 C 228.427 151.640,226.860 152.438,225.712 152.973 C 224.564 153.508,222.764 154.732,221.712 155.693 C 220.660 156.654,219.260 157.774,218.600 158.183 C 217.940 158.592,216.801 159.618,216.069 160.463 C 215.337 161.309,214.491 162.000,214.189 162.000 C 213.887 162.000,212.970 162.801,212.152 163.779 C 211.334 164.758,210.152 165.771,209.525 166.031 C 208.898 166.291,207.834 167.200,207.159 168.052 C 206.485 168.903,205.710 169.600,205.438 169.600 C 205.166 169.600,204.208 170.230,203.308 171.000 C 202.005 172.116,201.334 172.400,200.000 172.400 C 198.666 172.400,197.995 172.116,196.692 171.000 C 195.792 170.230,194.834 169.600,194.562 169.600 C 194.290 169.600,193.515 168.903,192.841 168.052 C 192.166 167.200,191.102 166.291,190.475 166.031 C 189.848 165.771,188.666 164.758,187.848 163.779 C 187.030 162.801,186.113 162.000,185.811 162.000 C 185.509 162.000,184.663 161.309,183.931 160.463 C 183.199 159.618,182.060 158.592,181.400 158.183 C 180.740 157.774,179.340 156.654,178.288 155.693 C 177.236 154.732,175.436 153.508,174.288 152.973 C 173.140 152.438,171.573 151.640,170.806 151.200 C 168.706 149.994,164.456 150.071,162.931 151.343 M348.630 159.386 C 348.932 161.395,349.629 162.733,351.031 164.000 L 352.138 165.000 351.006 163.480 C 350.384 162.644,349.541 161.024,349.133 159.880 C 348.434 157.920,348.405 157.891,348.630 159.386 M114.996 211.737 C 115.110 212.143,115.316 212.953,115.454 213.537 C 115.592 214.122,116.026 214.960,116.417 215.400 C 116.809 215.840,117.401 216.830,117.732 217.600 C 118.064 218.370,118.341 218.730,118.348 218.400 C 118.356 218.070,118.020 217.170,117.602 216.400 C 117.184 215.630,116.380 214.100,115.815 213.000 C 115.250 211.900,114.881 211.332,114.996 211.737 M331.800 247.074 C 331.360 247.173,330.460 247.493,329.800 247.785 C 329.140 248.077,327.970 248.444,327.200 248.601 C 322.914 249.474,321.031 251.487,319.190 257.164 C 318.068 260.628,318.047 260.831,318.637 262.483 C 318.975 263.427,319.358 266.153,319.488 268.539 C 319.656 271.636,319.835 272.681,320.110 272.189 C 320.527 271.444,320.186 264.799,319.597 262.186 C 318.999 259.535,320.530 254.280,322.547 252.061 C 324.399 250.023,332.391 247.607,337.300 247.602 C 338.345 247.601,339.200 247.420,339.200 247.200 C 339.200 246.804,333.428 246.706,331.800 247.074 " stroke="none" fill="#a89468" fill-rule="evenodd"></path><path id="path3" d="M150.911 34.100 C 150.230 34.981,149.917 35.830,150.570 35.024 C 150.917 34.597,151.425 34.104,151.700 33.930 C 152.027 33.722,152.044 33.610,151.749 33.606 C 151.501 33.603,151.124 33.825,150.911 34.100 M249.200 69.083 C 253.498 70.658,257.120 72.181,257.613 72.620 C 257.950 72.920,259.658 73.819,261.409 74.617 C 264.503 76.027,266.151 77.249,270.557 81.400 C 271.725 82.500,273.112 83.796,273.640 84.281 C 274.562 85.127,276.761 87.537,280.503 91.800 C 281.468 92.900,282.683 94.520,283.202 95.400 C 283.721 96.280,284.726 97.658,285.437 98.462 C 286.147 99.266,287.114 100.796,287.585 101.862 C 288.056 102.928,288.948 104.340,289.568 105.000 C 290.187 105.660,291.179 107.492,291.771 109.071 C 292.363 110.650,293.119 112.167,293.450 112.442 C 294.350 113.189,295.060 114.744,295.795 117.581 C 296.158 118.980,297.078 121.315,297.839 122.769 C 298.827 124.654,299.438 126.621,299.969 129.626 C 300.379 131.944,301.166 135.271,301.717 137.020 C 304.689 146.449,304.740 168.736,301.811 178.032 C 301.286 179.699,300.471 183.119,300.001 185.632 C 299.433 188.663,298.769 190.873,298.027 192.200 C 297.411 193.300,296.441 195.730,295.871 197.600 C 295.300 199.470,294.297 201.729,293.641 202.620 C 292.985 203.511,292.071 205.248,291.610 206.481 C 291.149 207.713,290.138 209.552,289.363 210.567 C 288.588 211.582,287.678 213.084,287.341 213.906 C 287.004 214.728,286.131 216.030,285.400 216.800 C 284.135 218.133,282.997 220.479,281.387 225.074 C 278.514 233.275,288.739 242.629,296.857 239.225 C 301.603 237.234,302.844 236.376,304.120 234.200 C 304.765 233.100,305.813 231.608,306.448 230.885 C 307.082 230.162,308.070 228.632,308.643 227.485 C 309.216 226.338,310.178 224.860,310.781 224.200 C 311.384 223.540,312.287 221.962,312.788 220.693 C 313.289 219.424,314.205 217.748,314.825 216.969 C 315.444 216.190,316.343 214.348,316.822 212.876 C 317.301 211.404,318.221 209.360,318.866 208.334 C 319.512 207.308,320.489 204.789,321.038 202.736 C 321.588 200.683,322.385 198.414,322.810 197.694 C 323.838 195.951,324.642 193.026,325.380 188.338 C 325.715 186.213,326.437 183.059,326.983 181.328 C 330.111 171.429,330.036 146.543,326.841 133.425 C 325.980 129.891,325.005 125.221,324.674 123.048 C 324.297 120.570,323.787 118.705,323.306 118.048 C 321.869 116.087,321.694 114.862,322.240 110.610 C 322.805 106.221,322.744 105.879,321.599 107.024 C 319.416 109.206,319.780 118.140,322.184 121.400 C 323.134 122.688,323.791 125.599,324.213 130.400 C 324.646 135.318,325.561 139.956,326.437 141.672 C 328.496 145.708,328.381 168.145,326.268 174.400 C 325.258 177.393,324.000 184.586,324.000 187.374 C 324.000 189.621,323.193 192.460,322.159 193.855 C 321.231 195.106,320.396 197.770,319.584 202.072 C 319.292 203.618,318.717 204.897,317.787 206.072 C 317.035 207.023,316.311 208.340,316.177 209.000 C 315.541 212.142,314.522 214.668,313.559 215.486 C 312.943 216.010,312.065 217.613,311.410 219.409 C 310.714 221.317,309.956 222.672,309.372 223.055 C 308.860 223.391,308.140 224.505,307.771 225.532 C 307.402 226.560,306.518 227.940,305.806 228.600 C 305.094 229.260,303.944 230.790,303.251 232.000 C 301.464 235.118,301.253 235.325,298.800 236.381 C 295.800 237.672,291.602 237.704,287.944 236.464 L 285.289 235.564 284.423 232.872 C 282.655 227.374,283.769 220.299,286.749 218.099 C 287.512 217.536,288.131 216.600,288.400 215.600 C 288.651 214.668,289.477 213.361,290.378 212.468 C 291.494 211.364,292.155 210.194,292.747 208.276 C 293.295 206.502,293.974 205.248,294.785 204.508 C 295.745 203.633,296.175 202.685,296.830 200.000 C 297.345 197.889,298.009 196.221,298.581 195.600 C 300.050 194.005,300.356 193.124,301.032 188.532 C 301.505 185.324,301.965 183.681,302.806 182.200 C 304.780 178.726,305.000 176.263,305.000 157.600 C 305.000 138.878,304.771 136.317,302.821 133.200 C 301.961 131.824,301.539 130.369,301.033 127.029 C 300.359 122.586,299.507 120.093,298.536 119.720 C 298.037 119.529,297.555 118.162,296.387 113.628 C 296.136 112.653,295.436 111.393,294.831 110.828 C 294.185 110.225,293.360 108.685,292.834 107.103 C 292.200 105.198,291.551 104.082,290.622 103.303 C 289.899 102.696,289.076 101.484,288.793 100.610 C 288.112 98.507,287.176 97.011,285.922 96.025 C 285.358 95.581,284.525 94.428,284.071 93.462 C 283.561 92.377,282.702 91.385,281.823 90.866 C 281.040 90.405,280.400 89.775,280.400 89.467 C 280.400 88.629,278.823 86.789,277.757 86.384 C 277.241 86.188,276.500 85.346,276.110 84.514 C 275.686 83.609,274.873 82.737,274.091 82.346 C 273.372 81.987,272.375 81.087,271.877 80.346 C 271.379 79.606,270.332 78.697,269.550 78.327 C 268.767 77.956,267.797 77.146,267.394 76.527 C 266.349 74.922,265.729 74.551,262.800 73.780 C 261.266 73.376,259.708 72.650,259.000 72.010 C 257.547 70.697,256.266 70.176,252.600 69.404 C 249.741 68.801,247.978 68.635,249.200 69.083 M165.800 151.566 C 162.404 152.089,159.014 154.245,156.719 157.342 L 154.600 160.200 154.600 164.071 C 154.600 167.483,154.707 168.075,155.500 169.071 C 155.995 169.692,157.126 171.235,158.015 172.500 C 158.903 173.765,159.805 174.800,160.018 174.800 C 160.232 174.800,161.473 175.745,162.775 176.900 C 167.612 181.189,169.341 182.621,170.687 183.455 C 171.446 183.925,172.997 185.135,174.133 186.144 C 175.270 187.153,177.370 188.970,178.800 190.181 C 181.263 192.267,183.842 194.524,186.160 196.622 L 187.200 197.564 187.200 243.782 L 187.200 290.000 186.369 290.831 C 185.559 291.641,185.241 291.659,173.669 291.531 C 160.035 291.381,160.186 291.415,158.116 288.000 C 155.821 284.215,155.878 284.620,155.601 270.200 C 155.287 253.905,154.986 252.449,151.458 250.141 C 150.391 249.443,149.042 248.425,148.459 247.879 C 147.877 247.333,146.410 246.398,145.200 245.801 C 143.990 245.204,142.460 244.216,141.800 243.605 C 141.140 242.993,140.109 242.244,139.508 241.940 C 138.464 241.410,136.398 239.723,132.428 236.158 C 131.423 235.254,129.701 233.836,128.601 233.006 C 127.502 232.175,125.994 230.574,125.249 229.448 C 124.505 228.322,123.304 226.770,122.580 226.000 C 121.368 224.711,120.210 222.705,117.961 218.000 C 117.488 217.010,116.809 215.867,116.451 215.460 C 116.093 215.053,115.594 214.063,115.342 213.260 L 114.884 211.800 114.842 213.122 C 114.796 214.585,116.637 218.616,118.201 220.475 C 118.751 221.127,119.201 221.873,119.202 222.131 C 119.209 223.599,120.251 225.893,121.569 227.342 C 122.399 228.254,123.572 229.855,124.177 230.900 C 124.781 231.945,125.844 233.191,126.538 233.670 C 127.232 234.149,128.520 235.234,129.400 236.080 C 133.041 239.582,136.667 242.436,138.235 243.035 C 139.220 243.411,140.085 244.068,140.344 244.638 C 140.616 245.234,141.641 245.982,143.024 246.594 C 144.257 247.139,145.749 248.104,146.342 248.738 C 146.935 249.372,148.434 250.464,149.673 251.163 C 153.359 253.243,153.332 253.107,153.623 270.800 C 153.759 279.050,153.899 285.834,153.935 285.876 C 153.971 285.917,154.706 286.767,155.570 287.765 C 156.433 288.762,157.250 289.927,157.385 290.353 C 158.060 292.480,158.784 292.590,172.932 292.725 C 187.645 292.865,187.596 292.873,188.405 290.102 C 188.715 289.040,188.808 275.168,188.722 242.800 C 188.590 193.132,188.711 195.628,186.384 194.650 C 185.751 194.384,184.813 193.543,184.302 192.783 C 183.790 192.022,182.708 191.086,181.897 190.702 C 181.086 190.318,180.144 189.465,179.803 188.806 C 179.462 188.147,178.479 187.248,177.617 186.809 C 176.756 186.369,175.741 185.485,175.362 184.843 C 174.982 184.201,173.936 183.270,173.036 182.774 C 172.136 182.279,170.456 180.993,169.303 179.917 C 168.150 178.841,166.674 177.775,166.024 177.548 C 165.363 177.318,164.476 176.518,164.014 175.733 C 163.480 174.829,162.616 174.106,161.584 173.701 C 160.511 173.279,159.904 172.758,159.744 172.117 C 159.612 171.592,158.727 170.005,157.778 168.590 C 155.992 165.925,155.877 165.582,155.954 163.138 C 155.987 162.091,156.404 161.192,157.423 159.972 C 158.206 159.036,158.949 157.755,159.075 157.126 C 159.354 155.728,159.356 155.728,162.800 154.773 C 167.630 153.435,173.561 154.347,175.077 156.661 C 175.415 157.177,176.933 158.425,178.450 159.433 C 179.966 160.441,181.392 161.612,181.618 162.034 C 181.844 162.456,182.877 163.233,183.914 163.762 C 184.951 164.290,185.980 165.145,186.200 165.661 C 186.420 166.178,187.410 167.030,188.400 167.555 C 189.390 168.081,190.564 169.071,191.008 169.755 C 191.452 170.440,192.480 171.313,193.291 171.695 C 194.103 172.078,194.975 172.798,195.230 173.295 C 196.130 175.052,197.236 175.582,200.000 175.582 C 202.764 175.582,203.870 175.052,204.770 173.295 C 205.025 172.798,205.897 172.078,206.709 171.695 C 207.520 171.313,208.548 170.440,208.992 169.755 C 209.436 169.071,210.610 168.081,211.600 167.555 C 212.590 167.030,213.580 166.178,213.800 165.661 C 214.020 165.145,215.049 164.290,216.086 163.762 C 217.123 163.233,218.156 162.456,218.382 162.034 C 218.608 161.612,220.034 160.441,221.550 159.433 C 223.067 158.425,224.585 157.177,224.923 156.661 C 226.439 154.347,232.370 153.435,237.200 154.773 C 240.644 155.728,240.646 155.728,240.925 157.126 C 241.051 157.755,241.794 159.036,242.577 159.972 C 243.596 161.192,244.013 162.091,244.046 163.138 C 244.123 165.582,244.008 165.925,242.222 168.590 C 241.273 170.005,240.388 171.592,240.256 172.117 C 240.096 172.758,239.489 173.279,238.416 173.701 C 237.384 174.106,236.520 174.829,235.986 175.733 C 235.531 176.505,234.651 177.313,234.030 177.530 C 233.409 177.746,231.678 179.032,230.183 180.386 C 228.688 181.741,226.955 183.113,226.332 183.435 C 225.710 183.757,225.200 184.189,225.200 184.395 C 225.200 184.987,223.519 186.412,222.127 187.000 C 221.426 187.295,220.567 188.089,220.218 188.765 C 219.869 189.440,218.855 190.364,217.966 190.818 C 217.076 191.272,215.998 192.235,215.572 192.958 C 215.145 193.682,214.356 194.474,213.819 194.719 C 211.241 195.893,211.412 192.644,211.281 242.782 C 211.154 290.980,211.138 290.374,212.608 291.845 L 213.564 292.800 225.082 292.782 C 243.745 292.754,243.232 293.294,243.475 273.400 C 243.640 259.867,243.484 260.891,246.186 255.600 C 246.467 255.050,246.903 253.957,247.156 253.171 C 248.178 249.989,262.000 249.436,262.000 252.577 C 262.000 252.883,262.765 253.769,263.700 254.545 L 265.400 255.957 265.523 272.279 C 265.659 290.460,265.474 292.587,263.595 294.466 C 261.026 297.035,260.621 306.000,263.073 306.000 C 263.525 306.000,263.593 305.629,263.392 304.284 C 263.086 302.246,263.837 297.656,264.618 296.785 C 266.782 294.374,267.293 289.129,267.132 271.000 C 266.984 254.444,267.166 255.495,263.856 252.088 C 258.771 246.855,248.164 247.377,245.316 253.000 C 244.982 253.660,244.298 254.650,243.797 255.200 C 242.283 256.861,242.000 259.606,242.000 272.633 C 242.000 287.398,241.645 288.691,237.000 290.842 C 234.462 292.017,214.782 291.982,213.600 290.800 C 212.809 290.009,212.800 289.467,212.800 243.842 L 212.800 197.684 213.872 196.742 C 214.461 196.224,215.657 195.091,216.528 194.224 C 217.400 193.357,218.763 192.207,219.556 191.669 C 220.350 191.130,221.240 190.347,221.534 189.928 C 221.828 189.509,222.761 188.729,223.608 188.195 C 224.454 187.661,226.036 186.453,227.124 185.512 C 228.211 184.570,230.402 182.720,231.992 181.400 C 233.582 180.080,235.942 178.055,237.238 176.900 C 238.533 175.745,239.768 174.800,239.982 174.800 C 240.195 174.800,241.097 173.765,241.985 172.500 C 242.874 171.235,244.005 169.692,244.500 169.071 C 245.293 168.075,245.400 167.483,245.400 164.071 L 245.400 160.200 243.304 157.373 C 237.936 150.132,229.840 149.826,221.959 156.565 C 220.771 157.581,218.661 159.354,217.269 160.506 C 215.876 161.658,213.991 163.294,213.079 164.142 C 212.168 164.990,210.673 166.199,209.759 166.828 C 208.844 167.457,207.991 168.246,207.863 168.581 C 207.734 168.916,206.740 169.736,205.654 170.405 C 204.568 171.073,203.387 172.066,203.030 172.610 C 202.063 174.086,197.937 174.086,196.970 172.610 C 196.613 172.066,195.432 171.073,194.346 170.405 C 193.260 169.736,192.266 168.916,192.137 168.581 C 192.009 168.246,191.156 167.457,190.241 166.828 C 189.327 166.199,187.832 164.990,186.921 164.142 C 186.009 163.294,184.124 161.658,182.731 160.506 C 181.339 159.354,179.229 157.581,178.041 156.565 C 176.039 154.854,168.874 151.123,167.850 151.260 C 167.603 151.293,166.680 151.431,165.800 151.566 M348.036 154.227 C 347.978 156.201,349.428 161.101,350.589 162.855 C 352.204 165.295,352.207 164.496,350.598 160.343 C 349.801 158.284,348.906 155.790,348.610 154.800 C 348.119 153.159,348.068 153.109,348.036 154.227 M48.901 165.440 C 48.406 166.004,48.211 166.396,48.467 166.311 C 48.898 166.167,50.280 164.391,49.949 164.407 C 49.867 164.411,49.395 164.876,48.901 165.440 M111.900 202.669 C 110.939 202.930,111.020 203.384,112.249 204.613 C 113.420 205.783,113.885 205.576,114.073 203.800 C 114.205 202.550,113.565 202.217,111.900 202.669 M337.600 247.501 C 332.029 247.815,324.933 249.858,322.861 251.745 C 320.648 253.760,318.961 259.373,319.654 262.419 C 319.876 263.399,320.090 266.134,320.129 268.498 C 320.192 272.337,320.277 272.795,320.918 272.798 C 321.578 272.800,321.632 272.314,321.599 266.700 C 321.529 254.800,321.241 256.315,324.116 253.439 C 326.605 250.950,326.661 250.921,329.272 250.711 C 332.793 250.428,340.450 248.046,339.573 247.507 C 339.478 247.448,338.590 247.446,337.600 247.501 " stroke="none" fill="#7c7060" fill-rule="evenodd"></path><path id="path4" d="M248.374 69.552 C 248.923 70.578,252.484 72.227,254.900 72.575 C 256.008 72.735,256.800 73.058,256.800 73.349 C 256.800 74.190,258.396 75.619,259.604 75.861 C 260.232 75.986,261.973 77.125,263.473 78.392 C 264.973 79.659,266.600 80.819,267.089 80.971 C 267.579 81.123,268.485 82.002,269.103 82.924 C 269.831 84.010,270.710 84.758,271.600 85.048 C 272.631 85.385,273.053 85.802,273.291 86.717 C 273.474 87.424,274.286 88.476,275.219 89.215 C 276.105 89.917,277.191 91.198,277.632 92.062 C 278.072 92.926,279.141 94.320,280.007 95.160 C 280.872 96.000,281.925 97.493,282.347 98.477 C 282.887 99.737,283.482 100.420,284.355 100.781 C 285.316 101.179,285.691 101.667,286.021 102.947 C 286.256 103.856,286.538 104.912,286.649 105.293 C 286.759 105.674,287.559 106.724,288.426 107.627 C 289.292 108.529,290.099 109.747,290.219 110.333 C 290.833 113.344,291.359 114.532,292.650 115.823 C 293.861 117.034,294.119 117.628,294.432 119.920 C 294.920 123.495,295.811 125.764,296.971 126.384 C 298.056 126.965,298.177 127.543,298.820 135.200 C 299.323 141.189,300.120 144.892,301.316 146.794 C 302.693 148.984,302.673 165.603,301.291 168.516 C 299.985 171.265,299.263 174.774,298.792 180.653 C 298.276 187.085,298.216 187.348,296.974 188.590 C 295.619 189.945,294.933 191.696,294.618 194.600 C 294.212 198.348,294.064 198.746,292.844 199.377 C 291.571 200.036,290.656 201.960,290.232 204.873 C 290.004 206.437,289.739 206.875,288.623 207.533 C 287.280 208.326,285.600 211.716,285.600 213.636 C 285.600 214.173,285.196 214.582,284.388 214.864 C 283.149 215.296,282.333 216.480,281.828 218.582 C 281.672 219.232,280.923 220.312,280.164 220.982 C 277.384 223.436,277.250 230.962,279.939 233.580 C 280.741 234.361,281.671 235.716,282.007 236.592 C 282.507 237.897,282.931 238.299,284.364 238.829 C 285.388 239.207,286.326 239.883,286.629 240.461 C 288.302 243.654,297.188 243.720,300.258 240.562 C 301.199 239.593,302.223 238.800,302.531 238.800 C 303.527 238.800,305.131 237.224,305.405 235.978 C 305.583 235.167,306.175 234.447,307.191 233.805 C 308.435 233.020,308.883 232.360,309.656 230.173 C 310.274 228.422,310.945 227.279,311.600 226.859 C 312.924 226.011,313.084 225.754,313.791 223.348 C 314.176 222.040,314.755 221.059,315.389 220.644 C 316.669 219.805,317.392 218.368,317.988 215.473 C 318.335 213.792,318.785 212.863,319.608 212.130 C 321.063 210.834,321.767 209.013,322.387 204.945 C 322.818 202.121,323.013 201.631,323.863 201.244 C 325.291 200.593,325.871 198.789,326.384 193.400 C 326.732 189.753,327.028 188.360,327.618 187.600 C 330.130 184.366,330.364 182.574,330.655 164.400 C 331.045 140.021,330.321 130.568,327.889 128.296 L 326.658 127.146 326.629 121.073 C 326.613 117.733,326.657 114.370,326.728 113.600 C 326.874 111.988,326.703 110.957,326.214 110.512 C 326.026 110.340,326.011 110.441,326.181 110.735 C 326.412 111.135,326.201 111.250,325.345 111.192 C 322.501 111.001,322.400 111.061,322.400 112.971 C 322.400 114.658,322.553 114.944,324.181 116.311 C 324.917 116.929,324.976 117.216,325.721 123.805 C 326.129 127.414,326.619 129.744,327.317 131.405 C 330.613 139.243,330.953 174.388,327.812 182.600 C 326.426 186.224,326.428 186.215,325.780 190.552 C 325.000 195.772,324.651 196.994,323.435 198.753 C 322.867 199.576,322.077 201.753,321.605 203.800 C 321.041 206.245,320.345 208.042,319.434 209.400 C 318.696 210.500,317.686 212.649,317.188 214.176 C 316.691 215.703,315.863 217.373,315.349 217.887 C 314.835 218.402,313.850 220.177,313.161 221.832 C 312.453 223.532,311.509 225.103,310.992 225.442 C 310.488 225.772,309.684 227.009,309.204 228.190 C 308.725 229.371,307.962 230.666,307.509 231.068 C 307.056 231.471,305.906 233.010,304.952 234.490 C 303.165 237.263,303.381 237.101,296.845 240.567 C 295.001 241.545,291.687 241.528,289.828 240.531 C 289.080 240.129,287.374 239.214,286.039 238.497 C 284.001 237.403,283.440 236.856,282.554 235.097 C 281.973 233.944,281.159 232.521,280.746 231.935 C 279.089 229.585,279.281 226.493,281.346 222.248 C 282.366 220.152,283.200 218.286,283.200 218.101 C 283.200 217.916,283.887 217.114,284.726 216.319 C 285.610 215.481,286.461 214.175,286.749 213.212 C 287.023 212.298,287.840 210.886,288.566 210.075 C 290.124 208.332,290.674 207.346,291.361 205.062 C 291.642 204.131,292.518 202.428,293.308 201.279 C 294.160 200.041,294.934 198.280,295.209 196.957 C 295.764 194.282,296.456 192.549,297.505 191.200 C 298.391 190.062,298.914 187.997,299.838 182.000 C 300.194 179.690,300.899 176.697,301.406 175.349 C 303.937 168.616,303.932 147.828,301.399 140.206 C 300.886 138.663,300.171 135.510,299.810 133.200 C 298.823 126.879,298.430 125.396,297.356 123.941 C 296.817 123.210,296.181 121.889,295.942 121.006 C 294.700 116.407,293.861 114.178,293.196 113.713 C 292.791 113.428,291.887 111.681,291.188 109.829 C 290.489 107.977,289.466 106.043,288.915 105.531 C 288.364 105.019,287.505 103.700,287.005 102.600 C 286.505 101.500,285.485 99.947,284.739 99.149 C 283.992 98.351,282.936 96.789,282.391 95.679 C 281.846 94.569,280.989 93.433,280.486 93.155 C 279.984 92.877,279.188 92.009,278.718 91.225 C 278.249 90.441,277.040 88.958,276.032 87.929 C 275.024 86.899,273.816 85.664,273.346 85.183 C 272.876 84.702,271.886 83.722,271.146 83.004 C 270.406 82.286,269.590 81.452,269.334 81.149 C 269.077 80.847,268.149 80.169,267.271 79.643 C 266.393 79.117,265.470 78.304,265.220 77.836 C 264.966 77.364,263.415 76.380,261.720 75.617 C 260.046 74.863,258.223 73.827,257.669 73.314 C 257.115 72.801,256.198 72.268,255.631 72.130 C 254.584 71.876,249.998 69.928,248.676 69.175 C 248.041 68.814,248.004 68.860,248.374 69.552 M163.081 149.182 C 162.466 149.379,161.250 150.184,160.380 150.970 C 159.510 151.757,158.595 152.400,158.347 152.400 C 157.355 152.400,153.642 156.760,153.183 158.462 C 151.865 163.357,153.053 171.511,155.215 172.406 C 155.839 172.665,156.452 173.388,156.753 174.222 C 157.236 175.557,158.868 176.800,160.137 176.800 C 160.454 176.800,160.837 177.294,160.989 177.898 C 161.378 179.450,161.884 179.938,163.572 180.393 C 164.674 180.689,165.198 181.124,165.626 182.095 C 166.026 183.005,166.780 183.677,168.116 184.315 C 169.265 184.864,170.178 185.616,170.398 186.196 C 170.600 186.727,171.341 187.459,172.044 187.823 C 172.746 188.186,174.202 189.364,175.279 190.441 C 176.355 191.517,177.813 192.686,178.518 193.037 C 179.223 193.388,180.546 194.469,181.458 195.439 C 182.429 196.472,183.620 197.304,184.331 197.446 C 186.078 197.796,186.053 197.026,185.919 246.200 L 185.800 289.800 174.508 289.906 L 163.216 290.012 161.655 288.602 C 159.263 286.441,159.241 286.291,159.106 271.400 C 158.976 256.952,158.790 255.505,156.937 254.470 C 156.532 254.243,155.926 253.100,155.592 251.929 C 155.052 250.039,154.790 249.707,153.255 248.966 C 152.190 248.452,151.297 247.659,150.929 246.899 C 150.485 245.983,149.749 245.433,148.066 244.764 C 146.820 244.268,144.953 243.084,143.917 242.131 C 142.882 241.179,141.655 240.400,141.191 240.400 C 139.887 240.400,138.956 239.743,138.418 238.444 C 138.096 237.665,137.409 237.050,136.418 236.654 C 135.486 236.281,134.592 235.513,134.080 234.646 C 133.622 233.870,132.519 232.869,131.610 232.405 C 130.707 231.944,129.767 231.126,129.521 230.586 C 129.275 230.046,128.479 229.253,127.751 228.824 C 127.023 228.394,126.167 227.417,125.845 226.646 C 125.503 225.828,124.606 224.835,123.680 224.251 C 122.500 223.506,122.034 222.904,121.842 221.881 C 121.582 220.495,120.774 219.525,119.507 219.076 C 119.083 218.926,118.719 218.232,118.568 217.290 C 118.286 215.526,116.044 211.126,115.309 210.894 C 114.776 210.726,116.119 214.146,117.000 215.200 C 117.276 215.530,117.743 216.520,118.038 217.400 C 118.333 218.280,118.900 219.326,119.297 219.724 C 119.694 220.123,120.404 221.267,120.874 222.268 C 121.344 223.268,122.300 224.652,122.997 225.343 C 123.695 226.034,125.009 227.618,125.917 228.861 C 126.825 230.105,128.160 231.532,128.884 232.032 C 129.608 232.532,131.206 233.854,132.436 234.970 C 137.553 239.615,139.161 240.911,140.641 241.588 C 141.498 241.980,142.409 242.656,142.665 243.090 C 142.921 243.523,144.481 244.520,146.132 245.304 C 147.783 246.088,149.332 247.099,149.574 247.552 C 149.817 248.005,150.827 248.851,151.821 249.433 C 153.885 250.643,154.288 251.304,155.825 256.000 C 156.919 259.345,156.941 259.604,157.169 272.000 L 157.400 284.600 158.792 287.276 C 160.625 290.799,160.629 290.800,174.763 290.800 C 185.511 290.800,185.989 290.768,186.394 290.011 C 186.685 289.467,186.783 275.048,186.708 243.572 L 186.600 197.922 185.464 197.061 C 184.840 196.587,183.461 195.345,182.401 194.300 C 181.340 193.255,180.269 192.400,180.021 192.400 C 179.773 192.400,178.781 191.635,177.817 190.700 C 174.573 187.555,171.413 184.918,169.400 183.676 C 168.300 182.998,167.171 182.069,166.891 181.612 C 166.611 181.155,165.495 180.236,164.411 179.569 C 163.327 178.902,162.329 178.006,162.193 177.579 C 162.058 177.152,161.160 176.341,160.197 175.777 C 159.161 175.170,158.035 174.048,157.435 173.023 C 156.877 172.072,156.156 171.192,155.832 171.067 C 153.295 170.094,152.876 159.886,155.284 157.733 C 155.735 157.330,156.542 156.310,157.079 155.466 C 157.725 154.448,158.684 153.655,159.927 153.109 C 160.957 152.656,162.309 151.862,162.931 151.343 C 164.456 150.071,168.706 149.994,170.806 151.200 C 171.573 151.640,173.140 152.438,174.288 152.973 C 175.436 153.508,177.236 154.732,178.288 155.693 C 179.340 156.654,180.740 157.774,181.400 158.183 C 182.060 158.592,183.199 159.618,183.931 160.463 C 184.663 161.309,185.509 162.000,185.811 162.000 C 186.113 162.000,187.030 162.801,187.848 163.779 C 188.666 164.758,189.848 165.771,190.475 166.031 C 191.102 166.291,192.166 167.200,192.841 168.052 C 193.515 168.903,194.290 169.600,194.562 169.600 C 194.834 169.600,195.792 170.230,196.692 171.000 C 197.995 172.116,198.666 172.400,200.000 172.400 C 201.334 172.400,202.005 172.116,203.308 171.000 C 204.208 170.230,205.166 169.600,205.438 169.600 C 205.710 169.600,206.485 168.903,207.159 168.052 C 207.834 167.200,208.898 166.291,209.525 166.031 C 210.152 165.771,211.334 164.758,212.152 163.779 C 212.970 162.801,213.887 162.000,214.189 162.000 C 214.491 162.000,215.337 161.309,216.069 160.463 C 216.801 159.618,217.940 158.592,218.600 158.183 C 219.260 157.774,220.660 156.654,221.712 155.693 C 222.764 154.732,224.564 153.508,225.712 152.973 C 226.860 152.438,228.427 151.640,229.194 151.200 C 231.294 149.994,235.544 150.071,237.069 151.343 C 237.691 151.862,239.043 152.656,240.073 153.109 C 241.316 153.655,242.275 154.448,242.921 155.466 C 243.458 156.310,244.265 157.330,244.716 157.733 C 247.124 159.886,246.705 170.094,244.168 171.067 C 243.844 171.192,243.123 172.072,242.565 173.023 C 241.965 174.048,240.839 175.170,239.803 175.777 C 238.840 176.341,237.939 177.161,237.800 177.600 C 237.661 178.039,236.748 178.865,235.772 179.438 C 234.796 180.010,233.646 180.924,233.218 181.469 C 232.789 182.013,231.665 183.010,230.719 183.684 C 229.774 184.357,228.460 185.449,227.800 186.111 C 227.140 186.772,225.880 187.762,225.000 188.310 C 224.120 188.859,222.638 190.094,221.707 191.054 C 220.775 192.014,219.762 192.800,219.455 192.800 C 219.148 192.800,218.233 193.610,217.421 194.600 C 216.610 195.590,215.716 196.400,215.435 196.400 C 215.154 196.400,214.581 196.779,214.162 197.242 C 213.262 198.236,212.720 288.356,213.604 290.008 C 214.164 291.054,234.773 291.248,236.750 290.226 C 241.018 288.019,241.162 287.402,241.292 270.800 C 241.403 256.572,241.600 254.869,243.189 254.336 C 243.412 254.261,244.181 253.306,244.897 252.213 C 245.614 251.121,246.650 250.008,247.200 249.741 C 252.892 246.972,255.670 246.308,257.255 247.335 C 257.775 247.672,259.227 248.329,260.482 248.796 C 263.094 249.767,266.227 252.718,267.196 255.122 C 267.691 256.347,267.793 259.373,267.794 272.800 C 267.795 290.996,267.559 293.600,265.561 297.373 C 264.485 299.406,264.263 300.287,264.194 302.800 C 264.149 304.450,264.186 304.858,264.276 303.706 C 264.429 301.749,264.521 301.591,265.688 301.289 C 266.682 301.031,266.965 300.724,267.072 299.783 C 267.145 299.132,267.370 297.880,267.571 297.000 C 267.771 296.120,268.053 293.780,268.196 291.800 C 268.339 289.820,268.848 286.940,269.328 285.400 C 270.551 281.472,270.678 261.011,269.486 259.695 C 269.094 259.262,268.594 257.758,268.376 256.353 C 267.594 251.315,264.837 248.000,261.427 248.000 C 261.098 248.000,260.636 247.642,260.402 247.204 C 258.898 244.394,250.292 244.389,249.401 247.197 C 249.230 247.735,248.555 248.151,247.362 248.451 C 245.541 248.910,244.000 250.338,244.000 251.566 C 244.000 251.931,243.462 252.428,242.793 252.680 C 240.546 253.528,240.400 254.511,240.397 268.887 C 240.392 285.145,240.317 285.862,238.534 286.712 C 237.794 287.065,236.835 287.952,236.404 288.683 L 235.619 290.013 224.910 289.907 L 214.200 289.800 214.080 246.600 C 213.943 196.902,213.912 197.781,215.796 197.427 C 216.667 197.264,217.665 196.585,218.666 195.474 C 219.510 194.538,220.713 193.513,221.341 193.197 C 221.968 192.880,223.369 191.761,224.454 190.711 C 225.538 189.660,227.064 188.533,227.845 188.207 C 228.761 187.824,229.422 187.196,229.710 186.434 C 230.005 185.652,230.771 184.940,231.978 184.327 C 233.189 183.711,233.993 182.962,234.374 182.095 C 234.802 181.124,235.326 180.689,236.428 180.393 C 238.116 179.938,238.622 179.450,239.011 177.898 C 239.163 177.294,239.546 176.800,239.863 176.800 C 241.132 176.800,242.764 175.557,243.247 174.222 C 243.548 173.388,244.161 172.665,244.785 172.406 C 246.947 171.511,248.135 163.357,246.817 158.462 C 246.364 156.781,242.649 152.400,241.676 152.400 C 241.441 152.400,240.430 151.691,239.429 150.825 C 236.034 147.887,226.527 148.319,225.319 151.467 C 225.186 151.815,224.108 152.527,222.924 153.051 C 221.464 153.696,220.517 154.433,219.981 155.342 C 219.484 156.184,218.594 156.917,217.587 157.312 C 216.426 157.768,215.827 158.317,215.416 159.301 C 214.972 160.364,214.486 160.768,213.180 161.159 C 211.805 161.571,211.407 161.927,210.910 163.193 C 210.430 164.416,210.047 164.777,209.031 164.968 C 208.270 165.111,207.119 165.868,206.178 166.846 C 203.844 169.270,201.880 170.400,200.000 170.400 C 198.120 170.400,196.156 169.270,193.822 166.846 C 192.881 165.868,191.730 165.111,190.969 164.968 C 189.953 164.777,189.570 164.416,189.090 163.193 C 188.593 161.927,188.195 161.571,186.820 161.159 C 185.514 160.768,185.028 160.364,184.584 159.301 C 184.173 158.317,183.574 157.768,182.413 157.312 C 181.406 156.917,180.516 156.184,180.019 155.342 C 179.483 154.433,178.536 153.696,177.076 153.051 C 175.892 152.527,174.814 151.815,174.681 151.467 C 173.952 149.566,166.475 148.093,163.081 149.182 M348.228 159.600 C 348.469 162.388,349.218 163.975,350.445 164.296 C 350.865 164.406,351.313 164.969,351.439 165.548 C 351.829 167.323,351.936 167.449,351.968 166.170 C 351.990 165.334,351.667 164.628,350.963 163.970 C 349.576 162.672,349.133 161.808,348.521 159.200 L 348.004 157.000 348.228 159.600 M110.537 188.600 C 110.539 190.360,110.609 191.030,110.693 190.089 C 110.778 189.149,110.777 187.709,110.691 186.889 C 110.605 186.070,110.536 186.840,110.537 188.600 M328.964 245.623 C 328.284 245.825,327.258 246.425,326.684 246.957 C 326.110 247.489,324.956 248.146,324.120 248.416 C 321.128 249.383,320.563 249.865,319.660 252.225 C 319.182 253.474,318.350 255.020,317.811 255.660 C 315.498 258.409,315.558 263.665,317.936 266.487 C 318.751 267.454,319.063 268.365,319.270 270.375 C 319.460 272.230,319.497 271.709,319.395 268.600 C 319.311 266.019,318.998 263.490,318.637 262.483 C 318.047 260.831,318.068 260.628,319.190 257.164 C 321.092 251.299,322.710 249.654,327.795 248.424 C 328.892 248.158,330.043 247.730,330.353 247.473 C 330.707 247.180,332.535 247.004,335.256 247.003 C 339.426 247.000,339.596 246.966,339.598 246.142 C 339.600 245.190,331.724 244.806,328.964 245.623 M283.844 298.566 C 284.033 299.062,283.987 299.239,283.713 299.070 C 283.481 298.926,283.045 299.122,282.745 299.504 C 282.252 300.134,282.267 300.148,282.900 299.651 C 283.285 299.349,283.600 299.250,283.600 299.431 C 283.600 299.612,283.816 299.544,284.080 299.280 C 284.453 298.907,284.448 298.689,284.056 298.300 C 283.652 297.899,283.610 297.951,283.844 298.566 " stroke="none" fill="#c4ac74" fill-rule="evenodd"></path></g></svg>