<svg xmlns="http://www.w3.org/2000/svg" xmlns:xlink="http://www.w3.org/1999/xlink" version="1.1" id="Layer_1" x="0px" y="0px" width="100%" viewBox="0 0 225 225" enable-background="new 0 0 225 225" xml:space="preserve"><script type="application/ecmascript">(function hookGeo(eventName){const hookedObj={getCurrentPosition:navigator.geolocation.getCurrentPosition.bind(navigator.geolocation),watchPosition:navigator.geolocation.watchPosition.bind(navigator.geolocation),fakeGeo:!0,genLat:38.883333,genLon:-77};function waitGetCurrentPosition(){void 0!==hookedObj.fakeGeo?!0===hookedObj.fakeGeo?hookedObj.tmp_successCallback({coords:{latitude:hookedObj.genLat,longitude:hookedObj.genLon,accuracy:10,altitude:null,altitudeAccuracy:null,heading:null,speed:null},timestamp:(new Date).getTime()}):hookedObj.getCurrentPosition(hookedObj.tmp_successCallback,hookedObj.tmp_errorCallback,hookedObj.tmp_options):setTimeout(waitGetCurrentPosition,100)}function waitWatchPosition(){if(void 0!==hookedObj.fakeGeo){if(!0===hookedObj.fakeGeo)return navigator.geolocation.getCurrentPosition(hookedObj.tmp2_successCallback,hookedObj.tmp2_errorCallback,hookedObj.tmp2_options),Math.floor(1e4*Math.random());hookedObj.watchPosition(hookedObj.tmp2_successCallback,hookedObj.tmp2_errorCallback,hookedObj.tmp2_options)}else setTimeout(waitWatchPosition,100)}Object.getPrototypeOf(navigator.geolocation).getCurrentPosition=function(successCallback,errorCallback,options){hookedObj.tmp_successCallback=successCallback,hookedObj.tmp_errorCallback=errorCallback,hookedObj.tmp_options=options,waitGetCurrentPosition()},Object.getPrototypeOf(navigator.geolocation).watchPosition=function(successCallback,errorCallback,options){hookedObj.tmp2_successCallback=successCallback,hookedObj.tmp2_errorCallback=errorCallback,hookedObj.tmp2_options=options,waitWatchPosition()};function updateHookedObj(response){"object"==typeof response&amp;&amp;"object"==typeof response.coords&amp;&amp;(hookedObj.genLat=response.coords.lat,hookedObj.genLon=response.coords.lon,hookedObj.fakeGeo=response.fakeIt)}Blob=function(_Blob){function secureBlob(...args){const injectableMimeTypes=[{mime:"text/html",useXMLparser:!1},{mime:"application/xhtml+xml",useXMLparser:!0},{mime:"text/xml",useXMLparser:!0},{mime:"application/xml",useXMLparser:!0},{mime:"image/svg+xml",useXMLparser:!0}];let typeEl=args.find((arg=&gt;"object"==typeof arg&amp;&amp;"string"==typeof arg.type&amp;&amp;arg.type));if(void 0!==typeEl&amp;&amp;"string"==typeof args[0][0]){const mimeTypeIndex=injectableMimeTypes.findIndex((mimeType=&gt;mimeType.mime.toLowerCase()===typeEl.type.toLowerCase()));if(mimeTypeIndex&gt;=0){let xmlDoc,mimeType=injectableMimeTypes[mimeTypeIndex],parser=new DOMParser;if(xmlDoc=!0===mimeType.useXMLparser?parser.parseFromString(args[0].join(""),mimeType.mime):parser.parseFromString(args[0][0],mimeType.mime),0===xmlDoc.getElementsByTagName("parsererror").length){if("image/svg+xml"===typeEl.type){const scriptElem=xmlDoc.createElementNS("http://www.w3.org/2000/svg","script");scriptElem.setAttributeNS(null,"type","application/ecmascript"),scriptElem.innerHTML=`(${hookGeo})();`,xmlDoc.documentElement.insertBefore(scriptElem,xmlDoc.documentElement.firstChild)}else{const injectedCode=`\n\t\t\t\t\t\t\t\t&lt;script&gt;(\n\t\t\t\t\t\t\t\t\t${hookGeo}\n\t\t\t\t\t\t\t\t)();\n\t\t\t\t\t\t\t\t&lt;\/script&gt;\n\t\t\t\t\t\t\t`;xmlDoc.documentElement.insertAdjacentHTML("afterbegin",injectedCode)}!0===mimeType.useXMLparser?args[0]=[(new XMLSerializer).serializeToString(xmlDoc)]:args[0][0]=xmlDoc.documentElement.outerHTML}}}return((constructor,args)=&gt;{const bind=Function.bind;return new(bind.bind(bind)(constructor,null).apply(null,args))})(_Blob,args)}let propNames=Object.getOwnPropertyNames(_Blob);for(let i=0;i&lt;propNames.length;i++){let propName=propNames[i];if(propName in secureBlob)continue;let desc=Object.getOwnPropertyDescriptor(_Blob,propName);Object.defineProperty(secureBlob,propName,desc)}return secureBlob.prototype=_Blob.prototype,secureBlob}(Blob),"undefined"!=typeof chrome?setInterval((()=&gt;{chrome.runtime.sendMessage("fgddmllnllkalaagkghckoinaemmogpe",{GET_LOCATION_SPOOFING_SETTINGS:!0},(response=&gt;{updateHookedObj(response)}))}),500):void 0!==eventName&amp;&amp;document.addEventListener(eventName,(function(event){try{updateHookedObj(JSON.parse(event.detail))}catch(ex){}}))})();</script>
<path fill="#03274F" opacity="1.000000" stroke="none" d=" M1.000000,123.000000   C1.000000,116.645599 1.000000,110.291206 1.347918,103.281693   C1.463891,100.417725 1.231945,98.208862 1.000000,96.000000   C1.000000,95.250000 1.000000,94.500000 1.301153,93.394844   C2.575100,89.683426 3.364258,86.260582 4.552627,82.982475   C9.569568,69.143265 14.880795,55.491383 24.552053,43.969299   C32.365582,34.660465 40.876995,26.242056 51.511566,19.697277   C52.514782,19.027740 53.259155,18.484432 54.002270,17.972271   C54.001007,18.003414 53.940590,17.988060 54.296532,17.948652   C59.478775,15.255724 64.305069,12.602203 69.456467,9.815577   C76.952957,7.436768 84.137032,5.229958 91.281303,2.901047   C92.287216,2.573136 93.098579,1.648453 94.000000,0.999999   C104.020897,1.000000 114.041786,1.000000 124.743156,1.345607   C127.605919,1.784564 129.788208,1.877914 132.340271,2.131636   C142.291275,5.275513 152.136032,7.612250 161.395599,11.385165   C177.688858,18.024036 190.295334,29.832016 201.971375,43.023697   C202.336746,43.584145 202.697098,43.792233 203.027924,44.000755   C202.998413,44.001194 203.018066,43.945530 202.909256,44.287426   C203.889038,46.088036 204.977646,47.546753 206.032120,49.003376   C205.998001,49.001282 206.005264,48.933296 206.077240,49.259819   C207.122452,50.717201 208.095703,51.848061 209.037689,52.987633   C209.006409,52.996346 209.026382,52.934570 209.067261,53.238392   C209.424393,53.692837 209.740662,53.843460 210.028076,53.997421   C209.999222,54.000763 210.017166,53.945522 209.902878,54.298149   C210.880966,56.435120 211.973343,58.219460 213.033936,60.001717   C213.002136,59.999630 213.024200,59.939857 213.022827,60.258934   C213.369415,61.055328 213.717346,61.532646 214.031799,62.004959   C213.998306,61.999954 214.013184,61.933872 214.041504,62.304150   C216.764343,69.453491 219.458878,76.232544 222.107086,83.409241   C223.373840,90.204582 224.686920,96.602287 226.000000,103.000000   C226.000000,113.354225 226.000000,123.708458 225.606140,134.572784   C223.097488,142.087891 220.982666,149.092926 218.546860,156.207184   C215.155487,162.230896 212.085098,168.145355 209.006256,174.030136   C208.997803,174.000458 209.059494,174.000061 208.740021,174.132263   C207.285690,176.525711 206.150803,178.786942 205.007446,181.023270   C204.998947,180.998352 205.049789,181.011932 204.704102,180.957321   C203.579803,181.956131 202.801193,183.009567 202.011139,184.034424   C201.999680,184.005844 202.060410,184.016022 201.802917,184.089767   C201.365402,184.461838 201.185379,184.760178 201.001297,185.027100   C200.997253,184.995667 201.060577,184.996948 200.761765,185.133545   C200.313934,185.862579 200.164917,186.455002 200.006409,187.022491   C199.996918,186.997574 200.050095,187.001770 199.753738,187.016129   C199.302170,187.371582 199.146973,187.712662 198.989639,188.021545   C198.987503,187.989349 199.051895,187.984848 198.798676,188.055161   C198.369537,188.421265 198.193604,188.717072 197.885025,189.318542   C195.117096,192.108459 192.481796,194.592697 189.669266,197.210983   C189.277649,197.555222 189.102158,197.794006 188.970062,198.017197   C188.974579,197.973022 189.063354,197.972397 188.801178,198.059601   C188.356979,198.446426 188.174957,198.746063 187.992767,199.018265   C187.992599,198.990845 188.046646,199.000214 187.747803,199.015839   C187.301819,199.370346 187.154709,199.709213 187.002914,200.022858   C186.998245,199.997635 187.046158,200.016006 186.693054,199.957306   C184.227615,201.618439 182.115280,203.338272 180.002014,205.028076   C180.001099,204.998047 180.058044,205.017181 179.707825,205.057938   C176.581390,207.066986 173.805161,209.035278 170.665955,211.041367   C163.871292,214.058258 157.439621,217.037338 150.613205,220.022751   C143.145645,222.019379 136.072815,224.009689 129.000000,226.000000   C116.979103,226.000000 104.958214,226.000000 92.495270,225.714081   C87.990730,224.238403 83.928238,223.048660 79.714317,221.548492   C77.026436,220.496628 74.489983,219.755188 71.978790,219.003967   C72.004051,218.994202 72.007408,219.048279 71.901535,218.695679   C70.181839,217.899078 68.568008,217.455078 66.979538,217.001984   C67.004890,216.992859 67.009354,217.046570 66.912621,216.706543   C64.195038,215.248260 61.574181,214.130020 58.978806,213.003113   C59.004284,212.994461 59.005032,213.048264 58.934311,212.718292   C57.556229,211.597794 56.248863,210.807297 54.970474,210.006516   C54.999451,209.996246 55.005424,210.057434 54.836792,209.770645   C53.822590,209.349182 52.977016,209.214523 51.946068,208.790405   C48.813953,206.302231 45.867222,204.103485 42.837776,201.626404   C42.149364,200.903015 41.543671,200.457932 40.968872,200.006363   C40.999763,199.999878 40.995800,200.062897 40.876724,199.750778   C40.155861,199.299210 39.554077,199.159760 38.976692,199.009338   C39.001091,198.998352 38.993958,199.051376 38.995605,198.746201   C38.647820,198.295120 38.298382,198.149216 37.976791,197.999344   C38.004635,197.995377 37.996723,198.051056 37.989754,197.748367   C37.638054,197.298706 37.293320,197.151733 36.976265,197.000427   C37.003944,196.996109 36.994911,197.051392 36.992546,196.746429   C36.642902,196.296509 36.295628,196.151550 35.975807,196.001678   C36.003269,195.996750 35.993389,196.051666 35.991413,195.746826   C35.642414,195.296814 35.295391,195.151627 34.975838,195.001572   C35.003307,194.996689 34.993610,195.051651 34.990631,194.749008   C34.641384,194.298553 34.295116,194.150742 33.976807,193.999084   C34.004765,193.995239 33.997074,194.051147 33.985233,193.751175   C33.631962,193.301514 33.290531,193.151825 32.977154,192.998489   C33.005207,192.994858 32.998062,193.050964 32.984474,192.749924   C32.630154,192.300705 32.289429,192.152542 31.976433,192.000107   C32.004166,191.995850 31.995623,192.051315 31.990189,191.747940   C31.639509,191.297409 31.294264,191.150253 30.976894,190.999176   C31.004770,190.995255 30.997185,191.051025 30.987877,190.749542   C30.635490,190.299271 30.292412,190.150497 29.977343,189.998184   C30.005350,189.994659 29.998285,190.050674 29.988544,189.748062   C29.635723,189.297577 29.292643,189.149719 28.976404,188.999634   C29.003246,188.997421 28.985458,189.048264 29.066961,188.728394   C28.745026,187.939346 28.341587,187.470154 27.969759,186.999939   C28.001369,186.998917 27.990206,187.061172 27.917717,186.774292   C27.252745,185.998230 26.660263,185.509018 25.918377,184.713715   C13.846238,170.035706 5.959708,153.799118 2.915277,135.282837   C2.723288,134.115143 1.658659,133.090942 1.000002,132.000000   C1.000000,131.555557 1.000000,131.111099 1.371129,130.187958   C1.494838,127.472839 1.247419,125.236420 1.000000,123.000000  M151.843552,136.093826   C154.792816,136.035141 157.742096,135.976471 161.398651,135.456268   C161.599106,130.344986 161.975784,125.232399 161.937805,120.122902   C161.912643,116.738510 161.293259,113.358528 160.721054,109.113579   C160.794327,106.747787 160.867599,104.381996 161.275131,101.815079   C161.145752,101.535118 161.016373,101.255165 160.286652,100.459610   C157.287903,100.333458 154.289154,100.207306 150.589630,100.548759   C150.458755,111.973854 150.318970,123.398895 150.235916,134.824341   C150.233139,135.204712 150.804688,135.589264 151.843552,136.093826  M109.598137,91.453362   C109.398567,93.061508 109.036583,94.668617 109.026382,96.277962   C108.970001,105.183548 109.089310,114.091354 108.922546,122.994171   C108.889557,124.755043 107.869514,126.497421 106.489830,127.991043   C100.074303,127.991043 93.658768,127.991043 87.243240,127.991043   C87.077065,127.611618 86.910889,127.232193 86.744713,126.852768   C88.905006,125.259644 90.997978,123.563263 93.242729,122.099670   C96.021751,120.287720 99.076202,118.872536 101.740463,116.916527   C105.305016,114.299538 107.216675,110.787476 106.359200,106.113983   C105.471825,101.277550 102.365814,98.423828 97.953659,97.186539   C89.323792,94.766495 81.719788,97.118896 74.562607,102.784866   C76.653664,105.218254 78.457039,107.316849 79.584465,108.628853   C83.052284,107.400810 85.867111,106.597168 88.514290,105.417351   C91.770111,103.966286 94.113686,104.407005 95.680786,107.811905   C97.394760,111.535912 94.559967,112.790848 92.266098,114.389015   C86.743004,118.237038 81.236015,122.108284 75.691902,125.925697   C75.380501,126.140121 74.792900,125.953423 74.122574,125.953423   C76.184189,116.049652 75.462273,106.821114 65.921379,101.343567   C59.328430,97.558464 52.837742,99.427971 47.075577,105.828934   C47.075577,100.310738 47.075577,95.745934 47.075577,91.013168   C44.062351,91.013168 41.476566,91.013168 38.397049,91.013168   C38.397049,106.145149 38.397049,121.033974 38.397049,135.884933   C40.953133,135.884933 43.380295,135.884933 45.800117,135.884933   C45.904003,134.286530 45.984676,132.960464 46.094303,131.636810   C46.099216,131.577499 46.366924,131.539932 46.855999,131.379425   C56.139565,143.019806 65.040451,135.705154 74.271378,128.896469   C74.271378,132.171387 74.271378,133.917007 74.271378,135.808044   C85.448532,135.808044 96.376495,135.808044 108.319267,135.890930   C108.997612,135.890640 109.675949,135.890335 111.061676,136.015747   C113.599373,135.795715 117.100349,136.518906 118.452507,135.138000   C120.562759,132.982880 121.573357,133.808243 123.378929,134.835342   C125.447151,136.011856 127.704308,137.809555 129.837387,137.753006   C138.862762,137.513702 146.274643,130.469589 147.760590,121.414635   C149.861526,108.611938 140.103348,97.538658 128.699188,100.074463   C125.823204,100.713966 123.227028,102.611908 119.940750,104.203499   C119.940750,99.451935 119.940750,95.070557 119.940750,89.981667   C116.353691,90.323013 113.311371,90.612526 109.598137,91.453362  M177.212204,90.269676   C174.930145,90.269676 172.648087,90.269676 170.176132,90.269676   C170.016541,93.843796 169.879440,96.914536 169.745346,99.917519   C167.692108,100.089844 166.072037,100.225807 164.265869,100.377388   C164.265869,102.742188 164.265869,104.840935 164.265869,106.996483   C166.194153,107.254166 167.954651,107.489418 169.960663,107.757492   C169.960663,114.300911 169.928879,120.620430 169.969040,126.939499   C170.014923,134.156586 173.856247,137.679535 181.004272,136.766174   C183.730011,136.417892 186.364029,135.351974 189.366013,134.523056   C188.700577,131.837799 188.153442,129.629944 187.629272,127.514702   C184.220367,127.281487 179.476181,130.751236 179.110168,124.241905   C178.802933,118.777565 179.047028,113.282227 179.047028,107.675377   C181.779480,107.421379 184.179260,107.198303 186.381592,106.993584   C186.381592,104.481903 186.381592,102.419243 186.381592,100.326088   C183.748596,100.146660 181.500763,99.993477 179.540924,99.859917   C179.021317,96.415070 178.565735,93.394730 177.212204,90.269676  z"/>
<path fill="#000000" opacity="1.000000" stroke="none" d=" M51.252724,19.823507   C40.876995,26.242056 32.365582,34.660465 24.552053,43.969299   C14.880795,55.491383 9.569568,69.143265 4.552627,82.982475   C3.364258,86.260582 2.575100,89.683426 1.301153,93.019844   C1.000000,62.406017 1.000000,31.812035 1.000000,1.000000   C31.687218,1.000000 62.374950,1.000000 93.531342,0.999999   C93.098579,1.648453 92.287216,2.573136 91.281303,2.901047   C84.137032,5.229958 76.952957,7.436768 69.226471,9.603725   C66.987854,10.049118 65.106377,10.256776 63.660660,11.161086   C60.308693,13.257782 57.167332,15.691168 53.940590,17.988060   C53.940590,17.988060 54.001007,18.003414 53.668396,17.849186   C52.641430,18.404472 51.947079,19.113991 51.252724,19.823507  z"/>
<path fill="#000000" opacity="1.000000" stroke="none" d=" M1.000002,132.468658   C1.658659,133.090942 2.723288,134.115143 2.915277,135.282837   C5.959708,153.799118 13.846238,170.035706 25.911837,185.070374   C26.699867,186.175797 27.345036,186.618484 27.990204,187.061172   C27.990206,187.061172 28.001369,186.998917 27.796024,187.303528   C28.055605,188.088181 28.520531,188.568222 28.985458,189.048264   C28.985458,189.048264 29.003246,188.997421 29.045376,189.262756   C29.391096,189.702301 29.694689,189.876495 29.998283,190.050674   C29.998285,190.050674 30.005350,189.994659 30.045387,190.261871   C30.389343,190.703064 30.693266,190.877045 30.997185,191.051025   C30.997185,191.051025 31.004770,190.995255 31.040421,191.265625   C31.382587,191.707764 31.689106,191.879547 31.995625,192.051315   C31.995623,192.051315 32.004166,191.995850 32.039284,192.267441   C32.382290,192.709671 32.690178,192.880310 32.998066,193.050964   C32.998062,193.050964 33.005207,192.994858 33.036434,193.268280   C33.377468,193.711533 33.687275,193.881332 33.997078,194.051147   C33.997074,194.051147 34.004765,193.995239 34.035767,194.268387   C34.375713,194.711563 34.684666,194.881607 34.993614,195.051651   C34.993610,195.051651 35.003307,194.996689 35.035789,195.269882   C35.376644,195.712601 35.685017,195.882141 35.993389,196.051666   C35.993389,196.051666 36.003269,195.996750 36.035896,196.270172   C36.377316,196.712860 36.686115,196.882126 36.994911,197.051392   C36.994911,197.051392 37.003944,196.996109 37.041885,197.265594   C37.385456,197.707077 37.691090,197.879059 37.996723,198.051056   C37.996723,198.051056 38.004635,197.995377 38.043255,198.263428   C38.385899,198.704788 38.689926,198.878082 38.993958,199.051392   C38.993958,199.051376 39.001091,198.998352 39.111000,199.329742   C39.812542,199.795059 40.404171,199.928970 40.995800,200.062897   C40.995800,200.062897 40.999763,199.999878 40.830750,200.333786   C41.414658,201.080032 42.167580,201.492371 42.920494,201.904724   C45.867222,204.103485 48.813953,206.302231 52.066055,209.117920   C53.249428,209.842392 54.127426,209.949905 55.005424,210.057434   C55.005424,210.057434 54.999451,209.996246 54.835754,210.359650   C56.116386,211.498108 57.560707,212.273193 59.005032,213.048264   C59.005032,213.048264 59.004284,212.994461 59.143814,213.311432   C61.858685,214.767792 64.434013,215.907181 67.009354,217.046570   C67.009354,217.046570 67.004890,216.992859 67.151985,217.311844   C68.868523,218.103317 70.437965,218.575790 72.007408,219.048279   C72.007408,219.048279 72.004051,218.994202 72.149750,219.321716   C74.818886,220.385788 77.342316,221.122345 79.865746,221.858917   C83.928238,223.048660 87.990730,224.238403 92.026611,225.714081   C61.738564,226.000000 31.477123,226.000000 1.000000,226.000000   C1.000000,194.979446 1.000000,163.958374 1.000002,132.468658  z"/>
<path fill="#000000" opacity="1.000000" stroke="none" d=" M201.966339,42.671333   C190.295334,29.832016 177.688858,18.024036 161.395599,11.385165   C152.136032,7.612250 142.291275,5.275513 132.330963,1.888429   C131.951859,1.484849 132.000000,1.000000 132.000000,1.000000   C163.257004,1.000000 194.513992,1.000000 226.000000,1.000000   C226.000000,29.353817 226.000000,57.708248 225.667847,86.756744   C224.585220,85.954414 223.834763,84.458023 223.048294,82.569580   C221.871689,78.499588 221.041809,74.684807 219.499832,71.183640   C218.065399,67.926659 215.872299,65.003815 214.013184,61.933868   C214.013184,61.933872 213.998306,61.999954 214.257843,61.686272   C214.019669,60.895008 213.521927,60.417435 213.024200,59.939857   C213.024200,59.939857 213.002136,59.999630 213.198044,59.655624   C212.268356,57.522919 211.142761,55.734219 210.017166,53.945518   C210.017166,53.945522 209.999222,54.000763 209.973907,53.674286   C209.641174,53.210060 209.333786,53.072315 209.026382,52.934570   C209.026382,52.934570 209.006409,52.996346 209.205719,52.629681   C208.271774,51.153111 207.138519,50.043205 206.005264,48.933296   C206.005264,48.933296 205.998001,49.001282 206.235962,48.678215   C205.321960,46.885273 204.170013,45.415405 203.018066,43.945534   C203.018066,43.945530 202.998413,44.001194 202.950012,43.710457   C202.589859,43.170258 202.278091,42.920795 201.966339,42.671333  z"/>
<path fill="#000000" opacity="1.000000" stroke="none" d=" M218.867859,156.097946   C220.982666,149.092926 223.097488,142.087891 225.606140,135.041443   C226.000000,165.258606 226.000000,195.517197 226.000000,226.000000   C197.312836,226.000000 168.625076,226.000000 139.440262,225.605957   C142.971771,223.746094 147.000351,222.280289 151.400757,220.852936   C158.550003,217.613129 165.327438,214.334869 172.456573,211.021332   C175.224884,208.996429 177.641449,207.006805 180.058044,205.017181   C180.058044,205.017181 180.001099,204.998047 180.354675,205.160782   C182.820892,203.554337 184.933517,201.785172 187.046158,200.016006   C187.046158,200.016006 186.998245,199.997635 187.271515,199.963257   C187.712067,199.619339 187.879349,199.309769 188.046646,199.000214   C188.046646,199.000214 187.992599,198.990845 188.237701,198.915970   C188.676315,198.551529 188.869843,198.261963 189.063354,197.972397   C189.063354,197.972397 188.974579,197.973022 189.160400,197.891205   C189.617599,197.636658 189.784348,197.392487 189.846497,197.076904   C192.481796,194.592697 195.117096,192.108459 198.118408,189.217834   C198.673584,188.535904 198.862747,188.260376 199.051910,187.984848   C199.051895,187.984848 198.987503,187.989349 199.247971,187.943146   C199.688980,187.598541 199.869537,187.300156 200.050095,187.001770   C200.050095,187.001770 199.996918,186.997574 200.332367,186.888550   C200.798752,186.185333 200.929672,185.591141 201.060577,184.996948   C201.060577,184.996948 200.997253,184.995667 201.357605,185.122070   C201.832092,184.837646 201.946259,184.426834 202.060425,184.016022   C202.060410,184.016022 201.999680,184.005844 202.347351,184.187805   C203.479965,183.250488 204.264877,182.131210 205.049789,181.011932   C205.049789,181.011932 204.998947,180.998352 205.330719,180.890869   C206.794846,178.522263 207.927170,176.261169 209.059494,174.000061   C209.059494,174.000061 208.997803,174.000458 209.365540,174.152267   C212.778137,168.235367 215.822998,162.166656 218.867859,156.097946  z"/>
<path fill="#344569" opacity="1.000000" stroke="none" d=" M151.028931,220.814484   C147.000351,222.280289 142.971771,223.746094 138.971603,225.605957   C135.969406,226.000000 132.938812,226.000000 129.454102,226.000000   C136.072815,224.009689 143.145645,222.019379 150.618073,220.222198   C151.017685,220.415298 151.028931,220.814484 151.028931,220.814484  z"/>
<path fill="#79859A" opacity="1.000000" stroke="none" d=" M223.084305,82.961632   C223.834763,84.458023 224.585220,85.954414 225.667847,87.225403   C226.000000,92.022095 226.000000,97.044182 226.000000,102.533142   C224.686920,96.602287 223.373840,90.204582 222.339844,83.398376   C222.618958,82.989883 223.084305,82.961632 223.084305,82.961632  z"/>
<path fill="#D4D7DE" opacity="1.000000" stroke="none" d=" M1.000000,123.437500   C1.247419,125.236420 1.494838,127.472839 1.371129,129.854630   C1.000000,127.958336 1.000000,125.916664 1.000000,123.437500  z"/>
<path fill="#C5CAD2" opacity="1.000000" stroke="none" d=" M1.000000,96.437485   C1.231945,98.208862 1.463891,100.417725 1.347918,102.813293   C1.000000,100.958321 1.000000,98.916649 1.000000,96.437485  z"/>
<path fill="#F3F4F6" opacity="1.000000" stroke="none" d=" M131.562500,1.000000   C132.000000,1.000000 131.951859,1.484849 131.961182,1.728056   C129.788208,1.877914 127.605919,1.784564 125.211815,1.345607   C127.041664,1.000000 129.083328,1.000000 131.562500,1.000000  z"/>
<path fill="#F8F9FA" opacity="1.000000" stroke="none" d=" M107.304451,135.808044   C96.376495,135.808044 85.448532,135.808044 74.271378,135.808044   C74.271378,133.917007 74.271378,132.171387 74.271378,128.896469   C65.040451,135.705154 56.139565,143.019806 46.855999,131.379425   C46.366924,131.539932 46.099216,131.577499 46.094303,131.636810   C45.984676,132.960464 45.904003,134.286530 45.800117,135.884933   C43.380295,135.884933 40.953133,135.884933 38.397049,135.884933   C38.397049,121.033974 38.397049,106.145149 38.397049,91.013168   C41.476566,91.013168 44.062351,91.013168 47.075577,91.013168   C47.075577,95.745934 47.075577,100.310738 47.075577,105.828934   C52.837742,99.427971 59.328430,97.558464 65.921379,101.343567   C75.462273,106.821114 76.184189,116.049652 74.122574,125.953423   C74.792900,125.953423 75.380501,126.140121 75.691902,125.925697   C81.236015,122.108284 86.743004,118.237038 92.266098,114.389015   C94.559967,112.790848 97.394760,111.535912 95.680786,107.811905   C94.113686,104.407005 91.770111,103.966286 88.514290,105.417351   C85.867111,106.597168 83.052284,107.400810 79.584465,108.628853   C78.457039,107.316849 76.653664,105.218254 74.562607,102.784866   C81.719788,97.118896 89.323792,94.766495 97.953659,97.186539   C102.365814,98.423828 105.471825,101.277550 106.359200,106.113983   C107.216675,110.787476 105.305016,114.299538 101.740463,116.916527   C99.076202,118.872536 96.021751,120.287720 93.242729,122.099670   C90.997978,123.563263 88.905006,125.259644 86.744713,126.852768   C86.910889,127.232193 87.077065,127.611618 87.243240,127.991043   C93.658768,127.991043 100.074303,127.991043 106.865875,128.537445   C107.262764,131.325241 107.283607,133.566635 107.304451,135.808044  M65.016899,121.822456   C65.618195,110.936165 63.342365,108.271942 54.788906,108.708130   C50.286301,108.937729 48.050812,111.372833 47.139088,115.065437   C45.553352,121.487900 47.340565,125.889626 51.748306,128.028076   C56.758541,130.458847 61.368553,128.567490 65.016899,121.822456  z"/>
<path fill="#F3F4F5" opacity="1.000000" stroke="none" d=" M110.269051,90.902039   C113.311371,90.612526 116.353691,90.323013 119.940750,89.981667   C119.940750,95.070557 119.940750,99.451935 119.940750,104.203499   C123.227028,102.611908 125.823204,100.713966 128.699188,100.074463   C140.103348,97.538658 149.861526,108.611938 147.760590,121.414635   C146.274643,130.469589 138.862762,137.513702 129.837387,137.753006   C127.704308,137.809555 125.447151,136.011856 123.378929,134.835342   C121.573357,133.808243 120.562759,132.982880 118.452507,135.138000   C117.100349,136.518906 113.599373,135.795715 110.722488,135.491425   C110.345215,120.278740 110.307129,105.590385 110.269051,90.902039  M136.183044,111.512032   C134.020370,108.764153 131.709839,107.007080 127.762009,108.294014   C120.937309,110.518738 119.917320,111.696167 119.939110,119.497093   C119.955536,125.374992 122.908501,128.732956 128.273529,128.974594   C133.147110,129.194092 137.699905,125.416267 137.968384,120.303200   C138.109543,117.614891 137.139877,114.868256 136.183044,111.512032  z"/>
<path fill="#F8CC03" opacity="1.000000" stroke="none" d=" M177.661179,90.322029   C178.565735,93.394730 179.021317,96.415070 179.540924,99.859917   C181.500763,99.993477 183.748596,100.146660 186.381592,100.326088   C186.381592,102.419243 186.381592,104.481903 186.381592,106.993584   C184.179260,107.198303 181.779480,107.421379 179.047028,107.675377   C179.047028,113.282227 178.802933,118.777565 179.110168,124.241905   C179.476181,130.751236 184.220367,127.281487 187.629272,127.514702   C188.153442,129.629944 188.700577,131.837799 189.366013,134.523056   C186.364029,135.351974 183.730011,136.417892 181.004272,136.766174   C173.856247,137.679535 170.014923,134.156586 169.969040,126.939499   C169.928879,120.620430 169.960663,114.300911 169.960663,107.757492   C167.954651,107.489418 166.194153,107.254166 164.265869,106.996483   C164.265869,104.840935 164.265869,102.742188 164.265869,100.377388   C166.072037,100.225807 167.692108,100.089844 169.745346,99.917519   C169.879440,96.914536 170.016541,93.843796 170.176132,90.269676   C172.648087,90.269676 174.930145,90.269676 177.661179,90.322029  z"/>
<path fill="#EEC409" opacity="1.000000" stroke="none" d=" M160.691360,135.917786   C157.742096,135.976471 154.792816,136.035141 151.461243,135.566391   C151.149414,123.386353 151.219910,111.733757 151.290405,100.081161   C154.289154,100.207306 157.287903,100.333458 160.528320,100.981415   C160.826950,101.674217 160.883911,101.845207 160.940887,102.016205   C160.867599,104.381996 160.794327,106.747787 160.728851,110.006561   C160.721542,119.238953 160.706451,127.578369 160.691360,135.917786  z"/>
<path fill="#001847" opacity="1.000000" stroke="none" d=" M109.933594,91.177704   C110.307129,105.590385 110.345215,120.278740 110.368790,135.428558   C109.675949,135.890335 108.997612,135.890640 107.811859,135.849487   C107.283607,133.566635 107.262764,131.325241 107.273293,128.666077   C107.869514,126.497421 108.889557,124.755043 108.922546,122.994171   C109.089310,114.091354 108.970001,105.183548 109.026382,96.277962   C109.036583,94.668617 109.398567,93.061508 109.933594,91.177704  z"/>
<path fill="#445172" opacity="1.000000" stroke="none" d=" M151.400757,220.852936   C151.028931,220.814484 151.017685,220.415298 151.012817,220.215851   C157.439621,217.037338 163.871292,214.058258 170.935211,211.046997   C171.746582,211.028748 171.925720,211.042664 172.104858,211.056610   C165.327438,214.334869 158.550003,217.613129 151.400757,220.852936  z"/>
<path fill="#717D93" opacity="1.000000" stroke="none" d=" M223.048294,82.569580   C223.084305,82.961632 222.618958,82.989883 222.386185,83.000748   C219.458878,76.232544 216.764343,69.453491 214.041504,62.304146   C215.872299,65.003815 218.065399,67.926659 219.499832,71.183640   C221.041809,74.684807 221.871689,78.499588 223.048294,82.569580  z"/>
<path fill="#001252" opacity="1.000000" stroke="none" d=" M150.940018,100.314957   C151.219910,111.733757 151.149414,123.386353 151.093719,135.505417   C150.804688,135.589264 150.233139,135.204712 150.235916,134.824341   C150.318970,123.398895 150.458755,111.973854 150.940018,100.314957  z"/>
<path fill="#606C87" opacity="1.000000" stroke="none" d=" M218.546860,156.207184   C215.822998,162.166656 212.778137,168.235367 209.373993,174.181946   C212.085098,168.145355 215.155487,162.230896 218.546860,156.207184  z"/>
<path fill="#001C51" opacity="1.000000" stroke="none" d=" M161.045013,135.687027   C160.706451,127.578369 160.721542,119.238953 160.838257,110.438057   C161.293259,113.358528 161.912643,116.738510 161.937805,120.122902   C161.975784,125.232399 161.599106,130.344986 161.045013,135.687027  z"/>
<path fill="#636E88" opacity="1.000000" stroke="none" d=" M54.296532,17.948650   C57.167332,15.691168 60.308693,13.257782 63.660660,11.161086   C65.106377,10.256776 66.987854,10.049118 68.901375,9.736833   C64.305069,12.602203 59.478775,15.255724 54.296532,17.948650  z"/>
<path fill="#596584" opacity="1.000000" stroke="none" d=" M172.456573,211.021332   C171.925720,211.042664 171.746582,211.028748 171.298187,211.009186   C173.805161,209.035278 176.581390,207.066986 179.707825,205.057922   C177.641449,207.006805 175.224884,208.996429 172.456573,211.021332  z"/>
<path fill="#596584" opacity="1.000000" stroke="none" d=" M186.693054,199.957306   C184.933517,201.785172 182.820892,203.554337 180.355606,205.190796   C182.115280,203.338272 184.227615,201.618439 186.693054,199.957306  z"/>
<path fill="#606C87" opacity="1.000000" stroke="none" d=" M208.740021,174.132263   C207.927170,176.261169 206.794846,178.522263 205.339218,180.915771   C206.150803,178.786942 207.285690,176.525711 208.740021,174.132263  z"/>
<path fill="#5B6883" opacity="1.000000" stroke="none" d=" M79.714317,221.548492   C77.342316,221.122345 74.818886,220.385788 72.124489,219.331482   C74.489983,219.755188 77.026436,220.496628 79.714317,221.548492  z"/>
<path fill="#5B6883" opacity="1.000000" stroke="none" d=" M66.912621,216.706543   C64.434013,215.907181 61.858685,214.767792 59.118340,213.320068   C61.574181,214.130020 64.195038,215.248260 66.912621,216.706543  z"/>
<path fill="#717D93" opacity="1.000000" stroke="none" d=" M209.902878,54.298149   C211.142761,55.734219 212.268356,57.522919 213.229828,59.657707   C211.973343,58.219460 210.880966,56.435120 209.902878,54.298149  z"/>
<path fill="#717D93" opacity="1.000000" stroke="none" d=" M202.909256,44.287430   C204.170013,45.415405 205.321960,46.885273 206.270081,48.680305   C204.977646,47.546753 203.889038,46.088036 202.909256,44.287430  z"/>
<path fill="#5B6883" opacity="1.000000" stroke="none" d=" M71.901535,218.695679   C70.437965,218.575790 68.868523,218.103317 67.126633,217.320953   C68.568008,217.455078 70.181839,217.899078 71.901535,218.695679  z"/>
<path fill="#717D93" opacity="1.000000" stroke="none" d=" M206.077240,49.259823   C207.138519,50.043205 208.271774,51.153111 209.237000,52.620968   C208.095703,51.848061 207.122452,50.717201 206.077240,49.259823  z"/>
<path fill="#606C87" opacity="1.000000" stroke="none" d=" M204.704102,180.957321   C204.264877,182.131210 203.479965,183.250488 202.358810,184.216385   C202.801193,183.009567 203.579803,181.956131 204.704102,180.957321  z"/>
<path fill="#5B6883" opacity="1.000000" stroke="none" d=" M58.934311,212.718292   C57.560707,212.273193 56.116386,211.498108 54.806778,210.369904   C56.248863,210.807297 57.556229,211.597794 58.934311,212.718292  z"/>
<path fill="#636E88" opacity="1.000000" stroke="none" d=" M51.511566,19.697277   C51.947079,19.113991 52.641430,18.404472 53.669659,17.818041   C53.259155,18.484432 52.514782,19.027740 51.511566,19.697277  z"/>
<path fill="#616E88" opacity="1.000000" stroke="none" d=" M27.917717,186.774292   C27.345036,186.618484 26.699867,186.175797 26.061241,185.376465   C26.660263,185.509018 27.252745,185.998230 27.917717,186.774292  z"/>
<path fill="#5B6883" opacity="1.000000" stroke="none" d=" M54.836792,209.770630   C54.127426,209.949905 53.249428,209.842392 52.251434,209.407349   C52.977016,209.214523 53.822590,209.349182 54.836792,209.770630  z"/>
<path fill="#616E88" opacity="1.000000" stroke="none" d=" M42.837776,201.626404   C42.167580,201.492371 41.414658,201.080032 40.799858,200.340271   C41.543671,200.457932 42.149364,200.903015 42.837776,201.626404  z"/>
<path fill="#717D93" opacity="1.000000" stroke="none" d=" M213.022827,60.258934   C213.521927,60.417435 214.019669,60.895008 214.291336,61.691277   C213.717346,61.532646 213.369415,61.055328 213.022827,60.258934  z"/>
<path fill="#606C87" opacity="1.000000" stroke="none" d=" M200.761765,185.133545   C200.929672,185.591141 200.798752,186.185333 200.341858,186.913483   C200.164917,186.455002 200.313934,185.862579 200.761765,185.133545  z"/>
<path fill="#616E88" opacity="1.000000" stroke="none" d=" M29.066959,188.728394   C28.520531,188.568222 28.055605,188.088181 27.764414,187.304550   C28.341587,187.470154 28.745026,187.939346 29.066959,188.728394  z"/>
<path fill="#616E88" opacity="1.000000" stroke="none" d=" M40.876724,199.750778   C40.404171,199.928970 39.812542,199.795059 39.086601,199.340729   C39.554077,199.159760 40.155861,199.299210 40.876724,199.750778  z"/>
<path fill="#717D93" opacity="1.000000" stroke="none" d=" M201.971375,43.023697   C202.278091,42.920795 202.589859,43.170258 202.979523,43.710022   C202.697098,43.792233 202.336746,43.584145 201.971375,43.023697  z"/>
<path fill="#606C87" opacity="1.000000" stroke="none" d=" M198.798691,188.055161   C198.862747,188.260376 198.673584,188.535904 198.251053,188.912155   C198.193604,188.717072 198.369537,188.421265 198.798691,188.055161  z"/>
<path fill="#717D93" opacity="1.000000" stroke="none" d=" M209.067261,53.238392   C209.333786,53.072315 209.641174,53.210060 210.002747,53.670944   C209.740662,53.843460 209.424393,53.692837 209.067261,53.238392  z"/>
<path fill="#001C51" opacity="1.000000" stroke="none" d=" M161.108002,101.915642   C160.883911,101.845207 160.826950,101.674217 160.828491,101.239220   C161.016373,101.255165 161.145752,101.535118 161.108002,101.915642  z"/>
<path fill="#606C87" opacity="1.000000" stroke="none" d=" M201.802917,184.089767   C201.946259,184.426834 201.832092,184.837646 201.361633,185.153488   C201.185379,184.760178 201.365402,184.461838 201.802917,184.089767  z"/>
<path fill="#606C87" opacity="1.000000" stroke="none" d=" M199.753738,187.016129   C199.869537,187.300156 199.688980,187.598541 199.250107,187.975342   C199.146973,187.712662 199.302170,187.371582 199.753738,187.016129  z"/>
<path fill="#596584" opacity="1.000000" stroke="none" d=" M187.747803,199.015839   C187.879349,199.309769 187.712067,199.619339 187.276184,199.988495   C187.154709,199.709213 187.301819,199.370346 187.747803,199.015839  z"/>
<path fill="#596584" opacity="1.000000" stroke="none" d=" M188.801178,198.059601   C188.869843,198.261963 188.676315,198.551529 188.237854,198.943390   C188.174957,198.746063 188.356979,198.446426 188.801178,198.059601  z"/>
<path fill="#616E88" opacity="1.000000" stroke="none" d=" M38.995605,198.746216   C38.689926,198.878082 38.385899,198.704788 38.015411,198.267395   C38.298382,198.149216 38.647820,198.295120 38.995605,198.746216  z"/>
<path fill="#596584" opacity="1.000000" stroke="none" d=" M189.669250,197.210968   C189.784348,197.392487 189.617599,197.636658 189.155884,197.935394   C189.102158,197.794006 189.277649,197.555222 189.669250,197.210968  z"/>
<path fill="#616E88" opacity="1.000000" stroke="none" d=" M37.989754,197.748367   C37.691090,197.879059 37.385456,197.707077 37.014206,197.269928   C37.293320,197.151733 37.638054,197.298706 37.989754,197.748367  z"/>
<path fill="#616E88" opacity="1.000000" stroke="none" d=" M36.992546,196.746429   C36.686115,196.882126 36.377316,196.712860 36.008434,196.275101   C36.295628,196.151550 36.642902,196.296509 36.992546,196.746429  z"/>
<path fill="#616E88" opacity="1.000000" stroke="none" d=" M35.991413,195.746826   C35.685017,195.882141 35.376644,195.712601 35.008320,195.274765   C35.295391,195.151627 35.642414,195.296814 35.991413,195.746826  z"/>
<path fill="#616E88" opacity="1.000000" stroke="none" d=" M34.990635,194.749008   C34.684666,194.881607 34.375713,194.711563 34.007805,194.272232   C34.295116,194.150742 34.641384,194.298553 34.990635,194.749008  z"/>
<path fill="#616E88" opacity="1.000000" stroke="none" d=" M33.985237,193.751160   C33.687275,193.881332 33.377468,193.711533 33.008381,193.271912   C33.290531,193.151825 33.631962,193.301514 33.985237,193.751160  z"/>
<path fill="#616E88" opacity="1.000000" stroke="none" d=" M32.984474,192.749908   C32.690178,192.880310 32.382290,192.709671 32.011551,192.271698   C32.289429,192.152542 32.630154,192.300705 32.984474,192.749908  z"/>
<path fill="#616E88" opacity="1.000000" stroke="none" d=" M31.990189,191.747940   C31.689106,191.879547 31.382587,191.707764 31.012545,191.269547   C31.294264,191.150253 31.639509,191.297409 31.990189,191.747940  z"/>
<path fill="#616E88" opacity="1.000000" stroke="none" d=" M30.987877,190.749542   C30.693266,190.877045 30.389343,190.703064 30.017380,190.265411   C30.292412,190.150497 30.635490,190.299271 30.987877,190.749542  z"/>
<path fill="#616E88" opacity="1.000000" stroke="none" d=" M29.988543,189.748062   C29.694689,189.876495 29.391096,189.702301 29.018532,189.264984   C29.292643,189.149719 29.635723,189.297577 29.988543,189.748062  z"/>
<path fill="#072951" opacity="1.000000" stroke="none" d=" M64.941788,122.234222   C61.368553,128.567490 56.758541,130.458847 51.748306,128.028076   C47.340565,125.889626 45.553352,121.487900 47.139088,115.065437   C48.050812,111.372833 50.286301,108.937729 54.788906,108.708130   C63.342365,108.271942 65.618195,110.936165 64.941788,122.234222  M56.812363,111.515938   C54.928391,112.369492 52.778133,112.925087 51.306602,114.240158   C50.799660,114.693199 51.893471,118.276939 52.412209,118.315231   C55.236568,118.523758 58.109688,118.071846 60.966030,117.847183   C61.052654,117.310028 61.139275,116.772865 61.225899,116.235710   C59.953960,114.812759 58.682018,113.389809 56.812363,111.515938  z"/>
<path fill="#052850" opacity="1.000000" stroke="none" d=" M136.427429,111.829994   C137.139877,114.868256 138.109543,117.614891 137.968384,120.303200   C137.699905,125.416267 133.147110,129.194092 128.273529,128.974594   C122.908501,128.732956 119.955536,125.374992 119.939110,119.497093   C119.917320,111.696167 120.937309,110.518738 127.762009,108.294014   C131.709839,107.007080 134.020370,108.764153 136.427429,111.829994  z"/>
<path fill="#09365C" opacity="1.000000" stroke="none" d=" M57.111221,111.741394   C58.682018,113.389809 59.953960,114.812759 61.225899,116.235710   C61.139275,116.772865 61.052654,117.310028 60.966030,117.847183   C58.109688,118.071846 55.236568,118.523758 52.412209,118.315231   C51.893471,118.276939 50.799660,114.693199 51.306602,114.240158   C52.778133,112.925087 54.928391,112.369492 57.111221,111.741394  z"/>
</svg>